<svg width="242" height="67" viewBox="0 0 242 67" fill="none" xmlns="http://www.w3.org/2000/svg">
	<path fill-rule="evenodd" clip-rule="evenodd"
		d="M17.0033 0H67.0033C76.2081 0 83.67 7.46192 83.67 16.6667V50C83.67 59.2048 76.2081 66.6667 67.0033 66.6667H17.0033C7.79859 66.6667 0.33667 59.2048 0.33667 50V16.6667C0.33667 7.46192 7.79859 0 17.0033 0ZM19.5033 10.625C18.4678 9.24429 16.509 8.96447 15.1283 10C13.7476 11.0355 13.4678 12.9943 14.5033 14.375L26.17 29.9306C34.0867 40.4861 49.92 40.4861 57.8367 29.9306L69.5033 14.375C70.5389 12.9943 70.2591 11.0355 68.8783 10C67.4976 8.96447 65.5389 9.24429 64.5033 10.625L52.8367 26.1806C47.42 33.4028 36.5867 33.4028 31.17 26.1806L19.5033 10.625Z"
		fill="url(#paint0_linear_21_12)" />
	<path
		d="M103.282 45.8373C100.69 45.8373 98.6259 45.1293 97.0899 43.7133C95.5779 42.2973 94.8219 40.3173 94.8219 37.7733V35.3973H99.5739V37.7733C99.5739 38.9013 99.8859 39.7893 100.51 40.4373C101.134 41.0613 102.01 41.3733 103.138 41.3733C104.194 41.3733 105.01 41.0613 105.586 40.4373C106.186 39.8133 106.486 38.9253 106.486 37.7733V24.4533H102.166V20.1333H114.118V24.4533H111.238V37.7733C111.238 40.3893 110.53 42.3933 109.114 43.7853C107.698 45.1533 105.754 45.8373 103.282 45.8373ZM126.767 45.8373C124.823 45.8373 123.107 45.4893 121.619 44.7933C120.131 44.0973 118.967 43.1013 118.127 41.8053C117.287 40.5093 116.867 38.9493 116.867 37.1253V36.1173H121.547V37.1253C121.547 38.6373 122.015 39.7773 122.951 40.5453C123.887 41.2893 125.159 41.6613 126.767 41.6613C128.399 41.6613 129.611 41.3373 130.403 40.6893C131.219 40.0413 131.627 39.2133 131.627 38.2053C131.627 37.5093 131.423 36.9453 131.015 36.5133C130.631 36.0813 130.055 35.7333 129.287 35.4693C128.543 35.1813 127.631 34.9173 126.551 34.6773L125.723 34.4973C123.995 34.1133 122.507 33.6333 121.259 33.0573C120.035 32.4573 119.087 31.6773 118.415 30.7173C117.767 29.7573 117.443 28.5093 117.443 26.9733C117.443 25.4373 117.803 24.1293 118.523 23.0493C119.267 21.9453 120.299 21.1053 121.619 20.5293C122.963 19.9293 124.535 19.6293 126.335 19.6293C128.135 19.6293 129.731 19.9413 131.123 20.5653C132.539 21.1653 133.643 22.0773 134.435 23.3013C135.251 24.5013 135.659 26.0133 135.659 27.8373V28.9173H130.979V27.8373C130.979 26.8773 130.787 26.1093 130.403 25.5333C130.043 24.9333 129.515 24.5013 128.819 24.2373C128.123 23.9493 127.295 23.8053 126.335 23.8053C124.895 23.8053 123.827 24.0813 123.131 24.6333C122.459 25.1613 122.123 25.8933 122.123 26.8293C122.123 27.4533 122.279 27.9813 122.591 28.4133C122.927 28.8453 123.419 29.2053 124.067 29.4933C124.715 29.7813 125.543 30.0333 126.551 30.2493L127.379 30.4293C129.179 30.8133 130.739 31.3053 132.059 31.9053C133.403 32.5053 134.447 33.2973 135.191 34.2813C135.935 35.2653 136.307 36.5253 136.307 38.0613C136.307 39.5973 135.911 40.9533 135.119 42.1293C134.351 43.2813 133.247 44.1933 131.807 44.8653C130.391 45.5133 128.711 45.8373 126.767 45.8373ZM137.774 45.3333L145.154 32.6253L137.846 20.1333H143.246L148.25 29.2413H148.898L153.902 20.1333H159.302L151.994 32.6253L159.374 45.3333H153.974L148.898 36.0093H148.25L143.174 45.3333H137.774ZM171.667 45.3333V20.1333H180.487L184.843 42.0933H185.491L189.847 20.1333H198.667V45.3333H194.059V23.6253H193.411L189.091 45.3333H181.243L176.923 23.6253H176.275V45.3333H171.667ZM209.101 45.8373C207.829 45.8373 206.689 45.6213 205.681 45.1893C204.673 44.7333 203.869 44.0853 203.269 43.2453C202.693 42.3813 202.405 41.3373 202.405 40.1133C202.405 38.8893 202.693 37.8693 203.269 37.0533C203.869 36.2133 204.685 35.5893 205.717 35.1813C206.773 34.7493 207.973 34.5333 209.317 34.5333H214.213V33.5253C214.213 32.6853 213.949 32.0013 213.421 31.4733C212.893 30.9213 212.053 30.6453 210.901 30.6453C209.773 30.6453 208.933 30.9093 208.381 31.4373C207.829 31.9413 207.469 32.6013 207.301 33.4173L203.125 32.0133C203.413 31.1013 203.869 30.2733 204.493 29.5293C205.141 28.7613 205.993 28.1493 207.049 27.6933C208.129 27.2133 209.437 26.9733 210.973 26.9733C213.325 26.9733 215.185 27.5613 216.553 28.7373C217.921 29.9133 218.605 31.6173 218.605 33.8493V40.5093C218.605 41.2293 218.941 41.5893 219.613 41.5893H221.053V45.3333H218.029C217.141 45.3333 216.409 45.1173 215.833 44.6853C215.257 44.2533 214.969 43.6773 214.969 42.9573V42.9213H214.285C214.189 43.2093 213.973 43.5933 213.637 44.0733C213.301 44.5293 212.773 44.9373 212.053 45.2973C211.333 45.6573 210.349 45.8373 209.101 45.8373ZM209.893 42.1653C211.165 42.1653 212.197 41.8173 212.989 41.1213C213.805 40.4013 214.213 39.4533 214.213 38.2773V37.9173H209.641C208.801 37.9173 208.141 38.0973 207.661 38.4573C207.181 38.8173 206.941 39.3213 206.941 39.9693C206.941 40.6173 207.193 41.1453 207.697 41.5533C208.201 41.9613 208.933 42.1653 209.893 42.1653ZM224.37 45.3333V27.4773H228.906V45.3333H224.37ZM226.638 25.3893C225.822 25.3893 225.126 25.1253 224.55 24.5973C223.998 24.0693 223.722 23.3733 223.722 22.5093C223.722 21.6453 223.998 20.9493 224.55 20.4213C225.126 19.8933 225.822 19.6293 226.638 19.6293C227.478 19.6293 228.174 19.8933 228.726 20.4213C229.278 20.9493 229.554 21.6453 229.554 22.5093C229.554 23.3733 229.278 24.0693 228.726 24.5973C228.174 25.1253 227.478 25.3893 226.638 25.3893ZM233.932 45.3333V20.1333H238.468V45.3333H233.932Z"
		fill="#EEEEEE" />
	<defs>
		<linearGradient id="paint0_linear_21_12" x1="0.33667" y1="0" x2="83.67" y2="66.6667"
			gradientUnits="userSpaceOnUse">
			<stop stop-color="#FF00B8" />
			<stop offset="1" stop-color="#FF013E" />
		</linearGradient>
	</defs>
</svg>