<svg width="95" height="24" viewBox="0 0 95 24" fill="none" xmlns="http://www.w3.org/2000/svg">
<g clip-path="url(#clip0_5_1676)">
<path d="M19.6667 1.99292C19.5747 1.99292 19.496 2.02625 19.4307 2.09025L8.09738 13.4236C7.95072 13.5703 7.85405 13.5816 7.69738 13.5623C7.54205 13.5423 7.34272 13.4543 7.14405 13.3589L0.927382 10.3589C0.744716 10.2696 0.668716 10.1389 0.667382 9.99225C0.666049 9.84559 0.717382 9.70559 0.898049 9.63892L16.4487 3.97225C16.8867 3.81225 16.5701 3.21692 16.2194 3.34559L0.668716 9.01225C0.236716 9.16892 -0.00395092 9.59959 4.90755e-05 9.99292C0.00404908 10.3863 0.230716 10.7636 0.638049 10.9596L6.85538 13.9596C7.05738 14.0576 7.31138 14.1849 7.61538 14.2236C7.91805 14.2623 8.28738 14.1769 8.56872 13.8956L18.8081 3.65692L12.1654 21.2569C12.112 21.3903 11.8434 21.3756 11.776 21.2276L8.63338 14.8463C8.43338 14.4396 7.86538 14.7969 8.03338 15.1396L11.1774 21.5216C11.3427 21.8576 11.6907 21.9989 12 21.9929C12.3101 21.9863 12.6574 21.8369 12.788 21.4916L19.98 2.44359C20.06 2.23025 19.8954 1.99492 19.6667 1.99292Z" fill="white"/>
</g>
<path d="M36.032 6.76092V14.4089C36.032 15.5929 35.696 16.5049 35.024 17.1449C34.3627 17.7849 33.4667 18.1049 32.336 18.1049C31.152 18.1049 30.2027 17.7689 29.488 17.0969C28.7733 16.4249 28.416 15.4703 28.416 14.2329H31.136C31.136 14.7023 31.232 15.0596 31.424 15.3049C31.616 15.5396 31.8933 15.6569 32.256 15.6569C32.5867 15.6569 32.8427 15.5503 33.024 15.3369C33.2053 15.1236 33.296 14.8143 33.296 14.4089V6.76092H36.032ZM42.306 18.1049C41.4847 18.1049 40.7487 17.9716 40.098 17.7049C39.4473 17.4383 38.9247 17.0436 38.53 16.5209C38.146 15.9983 37.9433 15.3689 37.922 14.6329H40.834C40.8767 15.0489 41.0207 15.3689 41.266 15.5929C41.5113 15.8063 41.8313 15.9129 42.226 15.9129C42.6313 15.9129 42.9513 15.8223 43.186 15.6409C43.4207 15.4489 43.538 15.1876 43.538 14.8569C43.538 14.5796 43.442 14.3503 43.25 14.1689C43.0687 13.9876 42.8393 13.8383 42.562 13.7209C42.2953 13.6036 41.9113 13.4703 41.41 13.3209C40.6847 13.0969 40.0927 12.8729 39.634 12.6489C39.1753 12.4249 38.7807 12.0943 38.45 11.6569C38.1193 11.2196 37.954 10.6489 37.954 9.94492C37.954 8.89959 38.3327 8.08359 39.09 7.49692C39.8473 6.89959 40.834 6.60092 42.05 6.60092C43.2873 6.60092 44.2847 6.89959 45.042 7.49692C45.7993 8.08359 46.2047 8.90492 46.258 9.96092H43.298C43.2767 9.59825 43.1433 9.31559 42.898 9.11292C42.6527 8.89959 42.338 8.79292 41.954 8.79292C41.6233 8.79292 41.3567 8.88359 41.154 9.06492C40.9513 9.23559 40.85 9.48625 40.85 9.81692C40.85 10.1796 41.0207 10.4623 41.362 10.6649C41.7033 10.8676 42.2367 11.0863 42.962 11.3209C43.6873 11.5663 44.274 11.8009 44.722 12.0249C45.1807 12.2489 45.5753 12.5743 45.906 13.0009C46.2367 13.4276 46.402 13.9769 46.402 14.6489C46.402 15.2889 46.2367 15.8703 45.906 16.3929C45.586 16.9156 45.1167 17.3316 44.498 17.6409C43.8793 17.9503 43.1487 18.1049 42.306 18.1049ZM54.9658 17.9929L52.6778 14.5529L50.6618 17.9929H47.5578L51.1578 12.2809L47.4778 6.76092H50.6618L52.9178 10.1529L54.9018 6.76092H58.0058L54.4378 12.4249L58.1498 17.9929H54.9658ZM74.4659 6.92092V17.9929H73.0099V9.73692L69.3299 17.9929H68.3059L64.6099 9.72092V17.9929H63.1539V6.92092H64.7219L68.8179 16.0729L72.9139 6.92092H74.4659ZM76.3911 13.5769C76.3911 12.6809 76.5725 11.8969 76.9351 11.2249C77.2978 10.5423 77.7938 10.0143 78.4231 9.64092C79.0631 9.26759 79.7725 9.08092 80.5511 9.08092C81.3191 9.08092 81.9858 9.24625 82.5511 9.57692C83.1165 9.90759 83.5378 10.3236 83.8151 10.8249V9.22492H85.2871V17.9929H83.8151V16.3609C83.5271 16.8729 83.0951 17.2996 82.5191 17.6409C81.9538 17.9716 81.2925 18.1369 80.5351 18.1369C79.7565 18.1369 79.0525 17.9449 78.4231 17.5609C77.7938 17.1769 77.2978 16.6383 76.9351 15.9449C76.5725 15.2516 76.3911 14.4623 76.3911 13.5769ZM83.8151 13.5929C83.8151 12.9316 83.6818 12.3556 83.4151 11.8649C83.1485 11.3743 82.7858 11.0009 82.3271 10.7449C81.8791 10.4783 81.3831 10.3449 80.8391 10.3449C80.2951 10.3449 79.7991 10.4729 79.3511 10.7289C78.9031 10.9849 78.5458 11.3583 78.2791 11.8489C78.0125 12.3396 77.8791 12.9156 77.8791 13.5769C77.8791 14.2489 78.0125 14.8356 78.2791 15.3369C78.5458 15.8276 78.9031 16.2063 79.3511 16.4729C79.7991 16.7289 80.2951 16.8569 80.8391 16.8569C81.3831 16.8569 81.8791 16.7289 82.3271 16.4729C82.7858 16.2063 83.1485 15.8276 83.4151 15.3369C83.6818 14.8356 83.8151 14.2543 83.8151 13.5929ZM88.4996 7.80092C88.2223 7.80092 87.9876 7.70492 87.7956 7.51292C87.6036 7.32092 87.5076 7.08625 87.5076 6.80892C87.5076 6.53159 87.6036 6.29692 87.7956 6.10492C87.9876 5.91292 88.2223 5.81692 88.4996 5.81692C88.7663 5.81692 88.9903 5.91292 89.1716 6.10492C89.3636 6.29692 89.4596 6.53159 89.4596 6.80892C89.4596 7.08625 89.3636 7.32092 89.1716 7.51292C88.9903 7.70492 88.7663 7.80092 88.4996 7.80092ZM89.2036 9.22492V17.9929H87.7476V9.22492H89.2036ZM93.1411 6.15292V17.9929H91.6851V6.15292H93.1411Z" fill="white"/>
<defs>
<clipPath id="clip0_5_1676">
<rect width="20" height="20" fill="white" transform="translate(0 1.99292)"/>
</clipPath>
</defs>
</svg>
