<svg width="1400" height="1400" viewBox="0 0 1400 1400" fill="none" xmlns="http://www.w3.org/2000/svg">
	<g clip-path="url(#clip0_34_16)">
		<mask id="mask0_34_16" style="mask-type:luminance" maskUnits="userSpaceOnUse" x="0" y="0" width="1400"
			height="1400">
			<path d="M1400 0H0V1400H1400V0Z" fill="white" />
		</mask>
		<g mask="url(#mask0_34_16)">
			<path
				d="M350.259 94.2309C566.68 -30.7195 833.32 -30.7195 1049.74 94.2309C1266.16 219.181 1399.49 450.099 1399.49 700C1399.49 949.901 1266.16 1180.82 1049.74 1305.77C833.32 1430.72 566.68 1430.72 350.259 1305.77C133.839 1180.82 0.518066 949.901 0.518066 700C0.518066 450.099 133.839 219.181 350.259 94.2309Z"
				fill="black" fill-opacity="0.64" />
			<path
				d="M350.259 94.2309C566.68 -30.7195 833.32 -30.7195 1049.74 94.2309C1266.16 219.181 1399.49 450.099 1399.49 700C1399.49 949.901 1266.16 1180.82 1049.74 1305.77C833.32 1430.72 566.68 1430.72 350.259 1305.77C133.839 1180.82 0.518066 949.901 0.518066 700C0.518066 450.099 133.839 219.181 350.259 94.2309Z"
				fill="url(#paint0_linear_34_16)" fill-opacity="0.15" />
			<path
				d="M350.259 94.2309C566.68 -30.7195 833.32 -30.7195 1049.74 94.2309C1266.16 219.181 1399.49 450.099 1399.49 700C1399.49 949.901 1266.16 1180.82 1049.74 1305.77C833.32 1430.72 566.68 1430.72 350.259 1305.77C133.839 1180.82 0.518066 949.901 0.518066 700C0.518066 450.099 133.839 219.181 350.259 94.2309Z"
				fill="black" fill-opacity="0.5" />
			<path
				d="M7.24902 700C7.24902 452.504 139.287 223.808 353.624 100.06C567.963 -23.6882 832.038 -23.6882 1046.38 100.06C1260.71 223.808 1392.76 452.504 1392.76 700C1392.76 947.496 1260.71 1176.19 1046.38 1299.94C832.038 1423.69 567.963 1423.69 353.624 1299.94C139.287 1176.19 7.24902 947.496 7.24902 700Z"
				stroke="url(#paint1_radial_34_16)" stroke-opacity="0.15" />
			<path
				d="M7.24902 700C7.24902 452.504 139.287 223.808 353.624 100.06C567.963 -23.6882 832.038 -23.6882 1046.38 100.06C1260.71 223.808 1392.76 452.504 1392.76 700C1392.76 947.496 1260.71 1176.19 1046.38 1299.94C832.038 1423.69 567.963 1423.69 353.624 1299.94C139.287 1176.19 7.24902 947.496 7.24902 700Z"
				stroke="url(#paint2_linear_34_16)" stroke-opacity="0.5" />
			<g opacity="0.9">
				<path fill-rule="evenodd" clip-rule="evenodd"
					d="M483.8 412H915.2C994.619 412 1059 476.359 1059 555.75V843.25C1059 922.641 994.619 987 915.2 987H483.8C404.381 987 340 922.641 340 843.25V555.75C340 476.359 404.381 412 483.8 412ZM505.37 503.641C496.435 491.732 479.535 489.319 467.623 498.25C455.71 507.181 453.295 524.076 462.23 535.984L562.89 670.151C631.195 761.193 767.805 761.193 836.11 670.151L936.77 535.984C945.705 524.076 943.29 507.181 931.378 498.25C919.465 489.319 902.565 491.732 893.63 503.641L792.97 637.807C746.235 700.099 652.765 700.099 606.03 637.807L505.37 503.641Z"
					fill="url(#paint3_linear_34_16)" />
			</g>
		</g>
	</g>
	<defs>
		<linearGradient id="paint0_linear_34_16" x1="0.999994" y1="0.999994" x2="1399" y2="1399"
			gradientUnits="userSpaceOnUse">
			<stop stop-color="#FF00B8" />
			<stop offset="1" stop-color="#FF013E" />
		</linearGradient>
		<radialGradient id="paint1_radial_34_16" cx="0" cy="0" r="1" gradientUnits="userSpaceOnUse"
			gradientTransform="translate(700 -107.692) rotate(90) scale(2076.93 2076.93)">
			<stop stop-color="white" />
			<stop offset="1" stop-color="white" />
		</radialGradient>
		<linearGradient id="paint2_linear_34_16" x1="-107.692" y1="-107.692" x2="245.673" y2="548.558"
			gradientUnits="userSpaceOnUse">
			<stop stop-color="white" />
			<stop offset="1" stop-color="white" stop-opacity="0" />
		</linearGradient>
		<linearGradient id="paint3_linear_34_16" x1="340" y1="412" x2="1058.8" y2="987.244"
			gradientUnits="userSpaceOnUse">
			<stop stop-color="#FF00B8" />
			<stop offset="1" stop-color="#FF013E" />
		</linearGradient>
		<clipPath id="clip0_34_16">
			<rect width="1400" height="1400" fill="white" />
		</clipPath>
	</defs>
</svg>