<svg width="103" height="24" viewBox="0 0 103 24" fill="none" xmlns="http://www.w3.org/2000/svg">
<path d="M17 3.5H7C4 3.5 2 5 2 8.5V15.5C2 19 4 20.5 7 20.5H17C20 20.5 22 19 22 15.5V8.5C22 5 20 3.5 17 3.5ZM17.47 9.59L14.34 12.09C13.68 12.62 12.84 12.88 12 12.88C11.16 12.88 10.31 12.62 9.66 12.09L6.53 9.59C6.21 9.33 6.16 8.85 6.41 8.53C6.67 8.21 7.14 8.15 7.46 8.41L10.59 10.91C11.35 11.52 12.64 11.52 13.4 10.91L16.53 8.41C16.85 8.15 17.33 8.2 17.58 8.53C17.84 8.85 17.79 9.33 17.47 9.59Z" fill="white"/>
<path d="M42.032 6.768V14.416C42.032 15.6 41.696 16.512 41.024 17.152C40.3627 17.792 39.4667 18.112 38.336 18.112C37.152 18.112 36.2027 17.776 35.488 17.104C34.7733 16.432 34.416 15.4773 34.416 14.24H37.136C37.136 14.7093 37.232 15.0667 37.424 15.312C37.616 15.5467 37.8933 15.664 38.256 15.664C38.5867 15.664 38.8427 15.5573 39.024 15.344C39.2053 15.1307 39.296 14.8213 39.296 14.416V6.768H42.032ZM48.306 18.112C47.4847 18.112 46.7487 17.9787 46.098 17.712C45.4473 17.4453 44.9247 17.0507 44.53 16.528C44.146 16.0053 43.9433 15.376 43.922 14.64H46.834C46.8767 15.056 47.0207 15.376 47.266 15.6C47.5113 15.8133 47.8313 15.92 48.226 15.92C48.6313 15.92 48.9513 15.8293 49.186 15.648C49.4207 15.456 49.538 15.1947 49.538 14.864C49.538 14.5867 49.442 14.3573 49.25 14.176C49.0687 13.9947 48.8393 13.8453 48.562 13.728C48.2953 13.6107 47.9113 13.4773 47.41 13.328C46.6847 13.104 46.0927 12.88 45.634 12.656C45.1753 12.432 44.7807 12.1013 44.45 11.664C44.1193 11.2267 43.954 10.656 43.954 9.952C43.954 8.90667 44.3327 8.09067 45.09 7.504C45.8473 6.90667 46.834 6.608 48.05 6.608C49.2873 6.608 50.2847 6.90667 51.042 7.504C51.7993 8.09067 52.2047 8.912 52.258 9.968H49.298C49.2767 9.60533 49.1433 9.32267 48.898 9.12C48.6527 8.90667 48.338 8.8 47.954 8.8C47.6233 8.8 47.3567 8.89067 47.154 9.072C46.9513 9.24267 46.85 9.49333 46.85 9.824C46.85 10.1867 47.0207 10.4693 47.362 10.672C47.7033 10.8747 48.2367 11.0933 48.962 11.328C49.6873 11.5733 50.274 11.808 50.722 12.032C51.1807 12.256 51.5753 12.5813 51.906 13.008C52.2367 13.4347 52.402 13.984 52.402 14.656C52.402 15.296 52.2367 15.8773 51.906 16.4C51.586 16.9227 51.1167 17.3387 50.498 17.648C49.8793 17.9573 49.1487 18.112 48.306 18.112ZM60.9658 18L58.6778 14.56L56.6618 18H53.5578L57.1578 12.288L53.4778 6.768H56.6618L58.9178 10.16L60.9018 6.768H64.0058L60.4378 12.432L64.1498 18H60.9658ZM81.6339 6.768V18H78.8979V11.264L76.3859 18H74.1779L71.6499 11.248V18H68.9139V6.768H72.1459L75.2979 14.544L78.4179 6.768H81.6339ZM83.0574 13.52C83.0574 12.6027 83.228 11.7973 83.5694 11.104C83.9214 10.4107 84.396 9.87733 84.9934 9.504C85.5907 9.13067 86.2574 8.944 86.9934 8.944C87.6227 8.944 88.172 9.072 88.6414 9.328C89.1214 9.584 89.4894 9.92 89.7454 10.336V9.072H92.4814V18H89.7454V16.736C89.4787 17.152 89.1054 17.488 88.6254 17.744C88.156 18 87.6067 18.128 86.9774 18.128C86.252 18.128 85.5907 17.9413 84.9934 17.568C84.396 17.184 83.9214 16.6453 83.5694 15.952C83.228 15.248 83.0574 14.4373 83.0574 13.52ZM89.7454 13.536C89.7454 12.8533 89.5534 12.3147 89.1694 11.92C88.796 11.5253 88.3374 11.328 87.7934 11.328C87.2494 11.328 86.7854 11.5253 86.4014 11.92C86.028 12.304 85.8414 12.8373 85.8414 13.52C85.8414 14.2027 86.028 14.7467 86.4014 15.152C86.7854 15.5467 87.2494 15.744 87.7934 15.744C88.3374 15.744 88.796 15.5467 89.1694 15.152C89.5534 14.7573 89.7454 14.2187 89.7454 13.536ZM95.8368 8.144C95.3568 8.144 94.9621 8.00533 94.6528 7.728C94.3541 7.44 94.2048 7.088 94.2048 6.672C94.2048 6.24533 94.3541 5.89333 94.6528 5.616C94.9621 5.328 95.3568 5.184 95.8368 5.184C96.3061 5.184 96.6901 5.328 96.9888 5.616C97.2981 5.89333 97.4528 6.24533 97.4528 6.672C97.4528 7.088 97.2981 7.44 96.9888 7.728C96.6901 8.00533 96.3061 8.144 95.8368 8.144ZM97.1968 9.072V18H94.4608V9.072H97.1968ZM101.916 6.16V18H99.1795V6.16H101.916Z" fill="white"/>
</svg>
