<svg width="392" height="392" viewBox="0 0 392 392" fill="none" xmlns="http://www.w3.org/2000/svg">
<rect width="392" height="391.996" rx="195.998" fill="black"/>
<path d="M292.662 96C291.742 96 290.955 96.3333 290.302 96.9733L176.972 210.304C175.505 211.77 174.538 211.884 172.972 211.69C171.418 211.49 169.425 210.61 167.439 209.657L105.274 179.658C103.447 178.764 102.687 177.458 102.674 175.991C102.66 174.525 103.174 173.125 104.98 172.458L260.483 115.793C264.863 114.193 261.696 108.24 258.189 109.526L102.687 166.191C98.3671 167.758 95.9605 172.065 96.0005 175.998C96.0405 179.931 98.3071 183.704 102.38 185.664L164.552 215.663C166.572 216.643 169.112 217.917 172.152 218.303C175.178 218.69 178.872 217.837 181.685 215.023L284.075 112.64L217.651 288.635C217.117 289.968 214.431 289.821 213.757 288.341L182.331 224.53C180.332 220.463 174.652 224.037 176.332 227.463L207.771 291.281C209.424 294.641 212.904 296.055 215.997 295.995C219.097 295.928 222.57 294.435 223.877 290.981L295.795 100.507C296.595 98.3733 294.948 96.02 292.662 96Z" fill="white"/>
</svg>
