<svg width="84" height="67" viewBox="0 0 84 67" fill="none" xmlns="http://www.w3.org/2000/svg">
	<path fill-rule="evenodd" clip-rule="evenodd"
		d="M16.6667 0H66.6667C75.8714 0 83.3333 7.46192 83.3333 16.6667V50C83.3333 59.2048 75.8714 66.6667 66.6667 66.6667H16.6667C7.46192 66.6667 0 59.2048 0 50V16.6667C0 7.46192 7.46192 0 16.6667 0ZM19.1667 10.625C18.1311 9.24429 16.1724 8.96447 14.7917 10C13.411 11.0355 13.1311 12.9943 14.1667 14.375L25.8333 29.9306C33.75 40.4861 49.5833 40.4861 57.5 29.9306L69.1667 14.375C70.2022 12.9943 69.9224 11.0355 68.5417 10C67.1609 8.96447 65.2022 9.24429 64.1667 10.625L52.5 26.1806C47.0833 33.4028 36.25 33.4028 30.8333 26.1806L19.1667 10.625Z"
		fill="url(#paint0_linear_1_10)" />
	<defs>
		<linearGradient id="paint0_linear_1_10" x1="0" y1="0" x2="83.3333" y2="66.6667" gradientUnits="userSpaceOnUse">
			<stop stop-color="#FF00B8" />
			<stop offset="1" stop-color="#FF013E" />
		</linearGradient>
	</defs>
</svg>