<svg width="133" height="24" viewBox="0 0 133 24" fill="none" xmlns="http://www.w3.org/2000/svg">
<path d="M17 3.5H7C4 3.5 2 5 2 8.5V15.5C2 19 4 20.5 7 20.5H17C20 20.5 22 19 22 15.5V8.5C22 5 20 3.5 17 3.5ZM17.47 9.59L14.34 12.09C13.68 12.62 12.84 12.88 12 12.88C11.16 12.88 10.31 12.62 9.66 12.09L6.53 9.59C6.21 9.33 6.16 8.85 6.41 8.53C6.67 8.21 7.14 8.15 7.46 8.41L10.59 10.91C11.35 11.52 12.64 11.52 13.4 10.91L16.53 8.41C16.85 8.15 17.33 8.2 17.58 8.53C17.84 8.85 17.79 9.33 17.47 9.59Z" fill="white"/>
<path d="M41.028 7.172V13.864C41.028 14.9 40.734 15.698 40.146 16.258C39.5673 16.818 38.7833 17.098 37.794 17.098C36.758 17.098 35.9273 16.804 35.302 16.216C34.6767 15.628 34.364 14.7927 34.364 13.71H36.744C36.744 14.1207 36.828 14.4333 36.996 14.648C37.164 14.8533 37.4067 14.956 37.724 14.956C38.0133 14.956 38.2373 14.8627 38.396 14.676C38.5547 14.4893 38.634 14.2187 38.634 13.864V7.172H41.028ZM46.5178 17.098C45.7991 17.098 45.1551 16.9813 44.5858 16.748C44.0164 16.5147 43.5591 16.1693 43.2138 15.712C42.8778 15.2547 42.7004 14.704 42.6818 14.06H45.2298C45.2671 14.424 45.3931 14.704 45.6078 14.9C45.8224 15.0867 46.1024 15.18 46.4478 15.18C46.8024 15.18 47.0824 15.1007 47.2878 14.942C47.4931 14.774 47.5958 14.5453 47.5958 14.256C47.5958 14.0133 47.5118 13.8127 47.3438 13.654C47.1851 13.4953 46.9844 13.3647 46.7418 13.262C46.5084 13.1593 46.1724 13.0427 45.7338 12.912C45.0991 12.716 44.5811 12.52 44.1798 12.324C43.7784 12.128 43.4331 11.8387 43.1438 11.456C42.8544 11.0733 42.7098 10.574 42.7098 9.958C42.7098 9.04333 43.0411 8.32933 43.7038 7.816C44.3664 7.29333 45.2298 7.032 46.2938 7.032C47.3764 7.032 48.2491 7.29333 48.9118 7.816C49.5744 8.32933 49.9291 9.048 49.9758 9.972H47.3858C47.3671 9.65467 47.2504 9.40733 47.0358 9.23C46.8211 9.04333 46.5458 8.95 46.2097 8.95C45.9204 8.95 45.6871 9.02933 45.5098 9.188C45.3324 9.33733 45.2438 9.55667 45.2438 9.846C45.2438 10.1633 45.3931 10.4107 45.6917 10.588C45.9904 10.7653 46.4571 10.9567 47.0918 11.162C47.7264 11.3767 48.2398 11.582 48.6318 11.778C49.0331 11.974 49.3784 12.2587 49.6678 12.632C49.9571 13.0053 50.1018 13.486 50.1018 14.074C50.1018 14.634 49.9571 15.1427 49.6678 15.6C49.3878 16.0573 48.9771 16.4213 48.4358 16.692C47.8944 16.9627 47.2551 17.098 46.5178 17.098ZM57.595 17L55.593 13.99L53.829 17H51.113L54.263 12.002L51.043 7.172H53.829L55.803 10.14L57.539 7.172H60.255L57.133 12.128L60.381 17H57.595ZM75.6796 7.172V17H73.2856V11.106L71.0876 17H69.1556L66.9436 11.092V17H64.5496V7.172H67.3776L70.1356 13.976L72.8656 7.172H75.6796ZM76.9252 13.08C76.9252 12.2773 77.0745 11.5727 77.3732 10.966C77.6812 10.3593 78.0965 9.89267 78.6192 9.566C79.1419 9.23933 79.7252 9.076 80.3692 9.076C80.9199 9.076 81.4005 9.188 81.8112 9.412C82.2312 9.636 82.5532 9.93 82.7772 10.294V9.188H85.1712V17H82.7772V15.894C82.5439 16.258 82.2172 16.552 81.7972 16.776C81.3865 17 80.9059 17.112 80.3552 17.112C79.7205 17.112 79.1419 16.9487 78.6192 16.622C78.0965 16.286 77.6812 15.8147 77.3732 15.208C77.0745 14.592 76.9252 13.8827 76.9252 13.08ZM82.7772 13.094C82.7772 12.4967 82.6092 12.0253 82.2732 11.68C81.9465 11.3347 81.5452 11.162 81.0692 11.162C80.5932 11.162 80.1872 11.3347 79.8512 11.68C79.5245 12.016 79.3612 12.4827 79.3612 13.08C79.3612 13.6773 79.5245 14.1533 79.8512 14.508C80.1872 14.8533 80.5932 15.026 81.0692 15.026C81.5452 15.026 81.9465 14.8533 82.2732 14.508C82.6092 14.1627 82.7772 13.6913 82.7772 13.094ZM88.1072 8.376C87.6872 8.376 87.3418 8.25467 87.0712 8.012C86.8098 7.76 86.6792 7.452 86.6792 7.088C86.6792 6.71467 86.8098 6.40667 87.0712 6.164C87.3418 5.912 87.6872 5.786 88.1072 5.786C88.5178 5.786 88.8538 5.912 89.1152 6.164C89.3858 6.40667 89.5212 6.71467 89.5212 7.088C89.5212 7.452 89.3858 7.76 89.1152 8.012C88.8538 8.25467 88.5178 8.376 88.1072 8.376ZM89.2972 9.188V17H86.9032V9.188H89.2972ZM93.4261 6.64V17H91.0321V6.64H93.4261ZM102.141 7.242C103.205 7.242 104.125 7.44267 104.899 7.844C105.683 8.236 106.281 8.80067 106.691 9.538C107.111 10.2753 107.321 11.1433 107.321 12.142C107.321 13.1407 107.111 14.0087 106.691 14.746C106.281 15.474 105.683 16.034 104.899 16.426C104.125 16.8087 103.205 17 102.141 17H99.1034V7.242H102.141ZM102.141 15.95C103.401 15.95 104.363 15.6187 105.025 14.956C105.688 14.284 106.019 13.346 106.019 12.142C106.019 10.9287 105.683 9.98133 105.011 9.3C104.349 8.61867 103.392 8.278 102.141 8.278H100.377V15.95H102.141ZM112.348 17.126C111.629 17.126 110.976 16.9627 110.388 16.636C109.809 16.3093 109.352 15.8473 109.016 15.25C108.689 14.6433 108.526 13.9433 108.526 13.15C108.526 12.366 108.694 11.6753 109.03 11.078C109.375 10.4713 109.842 10.0093 110.43 9.692C111.018 9.36533 111.676 9.202 112.404 9.202C113.132 9.202 113.79 9.36533 114.378 9.692C114.966 10.0093 115.428 10.4667 115.764 11.064C116.109 11.6613 116.282 12.3567 116.282 13.15C116.282 13.9433 116.104 14.6433 115.75 15.25C115.404 15.8473 114.933 16.3093 114.336 16.636C113.738 16.9627 113.076 17.126 112.348 17.126ZM112.348 16.006C112.805 16.006 113.234 15.8987 113.636 15.684C114.037 15.4693 114.359 15.1473 114.602 14.718C114.854 14.2887 114.98 13.766 114.98 13.15C114.98 12.534 114.858 12.0113 114.616 11.582C114.373 11.1527 114.056 10.8353 113.664 10.63C113.272 10.4153 112.847 10.308 112.39 10.308C111.923 10.308 111.494 10.4153 111.102 10.63C110.719 10.8353 110.411 11.1527 110.178 11.582C109.944 12.0113 109.828 12.534 109.828 13.15C109.828 13.7753 109.94 14.3027 110.164 14.732C110.397 15.1613 110.705 15.4833 111.088 15.698C111.47 15.9033 111.89 16.006 112.348 16.006ZM117.481 13.15C117.481 12.3567 117.64 11.666 117.957 11.078C118.274 10.4807 118.713 10.0187 119.273 9.692C119.842 9.36533 120.491 9.202 121.219 9.202C122.162 9.202 122.936 9.43067 123.543 9.888C124.159 10.3453 124.565 10.98 124.761 11.792H123.389C123.258 11.3253 123.002 10.9567 122.619 10.686C122.246 10.4153 121.779 10.28 121.219 10.28C120.491 10.28 119.903 10.532 119.455 11.036C119.007 11.5307 118.783 12.2353 118.783 13.15C118.783 14.074 119.007 14.788 119.455 15.292C119.903 15.796 120.491 16.048 121.219 16.048C121.779 16.048 122.246 15.9173 122.619 15.656C122.992 15.3947 123.249 15.0213 123.389 14.536H124.761C124.556 15.32 124.145 15.95 123.529 16.426C122.913 16.8927 122.143 17.126 121.219 17.126C120.491 17.126 119.842 16.9627 119.273 16.636C118.713 16.3093 118.274 15.8473 117.957 15.25C117.64 14.6527 117.481 13.9527 117.481 13.15ZM129.177 17.126C128.589 17.126 128.061 17.028 127.595 16.832C127.128 16.6267 126.759 16.3467 126.489 15.992C126.218 15.628 126.069 15.2127 126.041 14.746H127.357C127.394 15.1287 127.571 15.4413 127.889 15.684C128.215 15.9267 128.64 16.048 129.163 16.048C129.648 16.048 130.031 15.9407 130.311 15.726C130.591 15.5113 130.731 15.2407 130.731 14.914C130.731 14.578 130.581 14.3307 130.283 14.172C129.984 14.004 129.522 13.8407 128.897 13.682C128.327 13.5327 127.861 13.3833 127.497 13.234C127.142 13.0753 126.834 12.8467 126.573 12.548C126.321 12.24 126.195 11.8387 126.195 11.344C126.195 10.952 126.311 10.5927 126.545 10.266C126.778 9.93933 127.109 9.68267 127.539 9.496C127.968 9.3 128.458 9.202 129.009 9.202C129.858 9.202 130.544 9.41667 131.067 9.846C131.589 10.2753 131.869 10.8633 131.907 11.61H130.633C130.605 11.2087 130.441 10.8867 130.143 10.644C129.853 10.4013 129.461 10.28 128.967 10.28C128.509 10.28 128.145 10.378 127.875 10.574C127.604 10.77 127.469 11.0267 127.469 11.344C127.469 11.596 127.548 11.806 127.707 11.974C127.875 12.1327 128.08 12.2633 128.323 12.366C128.575 12.4593 128.92 12.5667 129.359 12.688C129.909 12.8373 130.357 12.9867 130.703 13.136C131.048 13.276 131.342 13.4907 131.585 13.78C131.837 14.0693 131.967 14.4473 131.977 14.914C131.977 15.334 131.86 15.712 131.627 16.048C131.393 16.384 131.062 16.65 130.633 16.846C130.213 17.0327 129.727 17.126 129.177 17.126Z" fill="white"/>
</svg>
