<svg width="141" height="24" viewBox="0 0 141 24" fill="none" xmlns="http://www.w3.org/2000/svg">
<g clip-path="url(#clip0_17_1657)">
<path d="M19.6667 1.99646C19.5747 1.99646 19.4961 2.02979 19.4307 2.09379L8.09738 13.4271C7.95072 13.5738 7.85405 13.5851 7.69738 13.5658C7.54205 13.5458 7.34272 13.4578 7.14405 13.3625L0.927382 10.3625C0.744716 10.2731 0.668716 10.1425 0.667382 9.99579C0.666049 9.84913 0.717382 9.70913 0.898049 9.64246L16.4487 3.97579C16.8867 3.81579 16.5701 3.22046 16.2194 3.34913L0.668716 9.01579C0.236716 9.17246 -0.00395092 9.60313 4.90755e-05 9.99646C0.00404908 10.3898 0.230716 10.7671 0.638049 10.9631L6.85538 13.9631C7.05738 14.0611 7.31138 14.1885 7.61538 14.2271C7.91805 14.2658 8.28738 14.1805 8.56872 13.8991L18.8081 3.66046L12.1654 21.2605C12.112 21.3938 11.8434 21.3791 11.776 21.2311L8.63338 14.8498C8.43338 14.4431 7.86538 14.8005 8.03338 15.1431L11.1774 21.5251C11.3427 21.8611 11.6907 22.0025 12 21.9965C12.31 21.9898 12.6574 21.8405 12.788 21.4951L19.98 2.44713C20.06 2.23379 19.8954 1.99846 19.6667 1.99646Z" fill="black"/>
</g>
<path d="M36.032 6.76446V14.4125C36.032 15.5965 35.696 16.5085 35.024 17.1485C34.3627 17.7885 33.4667 18.1085 32.336 18.1085C31.152 18.1085 30.2027 17.7725 29.488 17.1005C28.7733 16.4285 28.416 15.4738 28.416 14.2365H31.136C31.136 14.7058 31.232 15.0631 31.424 15.3085C31.616 15.5431 31.8933 15.6605 32.256 15.6605C32.5867 15.6605 32.8427 15.5538 33.024 15.3405C33.2053 15.1271 33.296 14.8178 33.296 14.4125V6.76446H36.032ZM42.306 18.1085C41.4847 18.1085 40.7487 17.9751 40.098 17.7085C39.4473 17.4418 38.9247 17.0471 38.53 16.5245C38.146 16.0018 37.9433 15.3725 37.922 14.6365H40.834C40.8767 15.0525 41.0207 15.3725 41.266 15.5965C41.5113 15.8098 41.8313 15.9165 42.226 15.9165C42.6313 15.9165 42.9513 15.8258 43.186 15.6445C43.4207 15.4525 43.538 15.1911 43.538 14.8605C43.538 14.5831 43.442 14.3538 43.25 14.1725C43.0687 13.9911 42.8393 13.8418 42.562 13.7245C42.2953 13.6071 41.9113 13.4738 41.41 13.3245C40.6847 13.1005 40.0927 12.8765 39.634 12.6525C39.1753 12.4285 38.7807 12.0978 38.45 11.6605C38.1193 11.2231 37.954 10.6525 37.954 9.94846C37.954 8.90313 38.3327 8.08713 39.09 7.50046C39.8473 6.90313 40.834 6.60446 42.05 6.60446C43.2873 6.60446 44.2847 6.90313 45.042 7.50046C45.7993 8.08713 46.2047 8.90846 46.258 9.96446H43.298C43.2767 9.60179 43.1433 9.31913 42.898 9.11646C42.6527 8.90313 42.338 8.79646 41.954 8.79646C41.6233 8.79646 41.3567 8.88713 41.154 9.06846C40.9513 9.23913 40.85 9.48979 40.85 9.82046C40.85 10.1831 41.0207 10.4658 41.362 10.6685C41.7033 10.8711 42.2367 11.0898 42.962 11.3245C43.6873 11.5698 44.274 11.8045 44.722 12.0285C45.1807 12.2525 45.5753 12.5778 45.906 13.0045C46.2367 13.4311 46.402 13.9805 46.402 14.6525C46.402 15.2925 46.2367 15.8738 45.906 16.3965C45.586 16.9191 45.1167 17.3351 44.498 17.6445C43.8793 17.9538 43.1487 18.1085 42.306 18.1085ZM54.9658 17.9965L52.6778 14.5565L50.6618 17.9965H47.5578L51.1578 12.2845L47.4778 6.76446H50.6618L52.9178 10.1565L54.9018 6.76446H58.0058L54.4378 12.4285L58.1498 17.9965H54.9658ZM75.6339 6.76446V17.9965H72.8979V11.2605L70.3859 17.9965H68.1779L65.6499 11.2445V17.9965H62.9139V6.76446H66.1459L69.2979 14.5405L72.4179 6.76446H75.6339ZM77.0574 13.5165C77.0574 12.5991 77.228 11.7938 77.5694 11.1005C77.9214 10.4071 78.396 9.87379 78.9934 9.50046C79.5907 9.12713 80.2574 8.94046 80.9934 8.94046C81.6227 8.94046 82.172 9.06846 82.6414 9.32446C83.1214 9.58046 83.4894 9.91646 83.7454 10.3325V9.06846H86.4814V17.9965H83.7454V16.7325C83.4787 17.1485 83.1054 17.4845 82.6254 17.7405C82.156 17.9965 81.6067 18.1245 80.9774 18.1245C80.252 18.1245 79.5907 17.9378 78.9934 17.5645C78.396 17.1805 77.9214 16.6418 77.5694 15.9485C77.228 15.2445 77.0574 14.4338 77.0574 13.5165ZM83.7454 13.5325C83.7454 12.8498 83.5534 12.3111 83.1694 11.9165C82.796 11.5218 82.3374 11.3245 81.7934 11.3245C81.2494 11.3245 80.7854 11.5218 80.4014 11.9165C80.028 12.3005 79.8414 12.8338 79.8414 13.5165C79.8414 14.1991 80.028 14.7431 80.4014 15.1485C80.7854 15.5431 81.2494 15.7405 81.7934 15.7405C82.3374 15.7405 82.796 15.5431 83.1694 15.1485C83.5534 14.7538 83.7454 14.2151 83.7454 13.5325ZM89.8368 8.14046C89.3568 8.14046 88.9621 8.00179 88.6528 7.72446C88.3541 7.43646 88.2048 7.08446 88.2048 6.66846C88.2048 6.24179 88.3541 5.88979 88.6528 5.61246C88.9621 5.32446 89.3568 5.18046 89.8368 5.18046C90.3061 5.18046 90.6901 5.32446 90.9888 5.61246C91.2981 5.88979 91.4528 6.24179 91.4528 6.66846C91.4528 7.08446 91.2981 7.43646 90.9888 7.72446C90.6901 8.00179 90.3061 8.14046 89.8368 8.14046ZM91.1968 9.06846V17.9965H88.4608V9.06846H91.1968ZM95.9155 6.15646V17.9965H93.1795V6.15646H95.9155ZM105.876 6.84446C107.092 6.84446 108.143 7.07379 109.028 7.53246C109.924 7.98046 110.607 8.62579 111.076 9.46846C111.556 10.3111 111.796 11.3031 111.796 12.4445C111.796 13.5858 111.556 14.5778 111.076 15.4205C110.607 16.2525 109.924 16.8925 109.028 17.3405C108.143 17.7778 107.092 17.9965 105.876 17.9965H102.404V6.84446H105.876ZM105.876 16.7965C107.316 16.7965 108.415 16.4178 109.172 15.6605C109.929 14.8925 110.308 13.8205 110.308 12.4445C110.308 11.0578 109.924 9.97513 109.156 9.19646C108.399 8.41779 107.305 8.02846 105.876 8.02846H103.86V16.7965H105.876ZM117.54 18.1405C116.719 18.1405 115.972 17.9538 115.3 17.5805C114.639 17.2071 114.116 16.6791 113.732 15.9965C113.359 15.3031 113.172 14.5031 113.172 13.5965C113.172 12.7005 113.364 11.9111 113.748 11.2285C114.143 10.5351 114.676 10.0071 115.348 9.64446C116.02 9.27113 116.772 9.08446 117.604 9.08446C118.436 9.08446 119.188 9.27113 119.86 9.64446C120.532 10.0071 121.06 10.5298 121.444 11.2125C121.839 11.8951 122.036 12.6898 122.036 13.5965C122.036 14.5031 121.834 15.3031 121.428 15.9965C121.034 16.6791 120.495 17.2071 119.812 17.5805C119.13 17.9538 118.372 18.1405 117.54 18.1405ZM117.54 16.8605C118.063 16.8605 118.554 16.7378 119.012 16.4925C119.471 16.2471 119.839 15.8791 120.116 15.3885C120.404 14.8978 120.548 14.3005 120.548 13.5965C120.548 12.8925 120.41 12.2951 120.132 11.8045C119.855 11.3138 119.492 10.9511 119.044 10.7165C118.596 10.4711 118.111 10.3485 117.588 10.3485C117.055 10.3485 116.564 10.4711 116.116 10.7165C115.679 10.9511 115.327 11.3138 115.06 11.8045C114.794 12.2951 114.66 12.8925 114.66 13.5965C114.66 14.3111 114.788 14.9138 115.044 15.4045C115.311 15.8951 115.663 16.2631 116.1 16.5085C116.538 16.7431 117.018 16.8605 117.54 16.8605ZM123.407 13.5965C123.407 12.6898 123.588 11.9005 123.951 11.2285C124.313 10.5458 124.815 10.0178 125.455 9.64446C126.105 9.27113 126.847 9.08446 127.679 9.08446C128.756 9.08446 129.641 9.34579 130.335 9.86846C131.039 10.3911 131.503 11.1165 131.727 12.0445H130.159C130.009 11.5111 129.716 11.0898 129.279 10.7805C128.852 10.4711 128.319 10.3165 127.679 10.3165C126.847 10.3165 126.175 10.6045 125.663 11.1805C125.151 11.7458 124.895 12.5511 124.895 13.5965C124.895 14.6525 125.151 15.4685 125.663 16.0445C126.175 16.6205 126.847 16.9085 127.679 16.9085C128.319 16.9085 128.852 16.7591 129.279 16.4605C129.705 16.1618 129.999 15.7351 130.159 15.1805H131.727C131.492 16.0765 131.023 16.7965 130.319 17.3405C129.615 17.8738 128.735 18.1405 127.679 18.1405C126.847 18.1405 126.105 17.9538 125.455 17.5805C124.815 17.2071 124.313 16.6791 123.951 15.9965C123.588 15.3138 123.407 14.5138 123.407 13.5965ZM136.774 18.1405C136.102 18.1405 135.499 18.0285 134.966 17.8045C134.432 17.5698 134.011 17.2498 133.702 16.8445C133.392 16.4285 133.222 15.9538 133.19 15.4205H134.694C134.736 15.8578 134.939 16.2151 135.302 16.4925C135.675 16.7698 136.16 16.9085 136.758 16.9085C137.312 16.9085 137.75 16.7858 138.07 16.5405C138.39 16.2951 138.55 15.9858 138.55 15.6125C138.55 15.2285 138.379 14.9458 138.038 14.7645C137.696 14.5725 137.168 14.3858 136.454 14.2045C135.803 14.0338 135.27 13.8631 134.854 13.6925C134.448 13.5111 134.096 13.2498 133.798 12.9085C133.51 12.5565 133.366 12.0978 133.366 11.5325C133.366 11.0845 133.499 10.6738 133.766 10.3005C134.032 9.92713 134.411 9.63379 134.902 9.42046C135.392 9.19646 135.952 9.08446 136.582 9.08446C137.552 9.08446 138.336 9.32979 138.934 9.82046C139.531 10.3111 139.851 10.9831 139.894 11.8365H138.438C138.406 11.3778 138.219 11.0098 137.878 10.7325C137.547 10.4551 137.099 10.3165 136.534 10.3165C136.011 10.3165 135.595 10.4285 135.286 10.6525C134.976 10.8765 134.822 11.1698 134.822 11.5325C134.822 11.8205 134.912 12.0605 135.094 12.2525C135.286 12.4338 135.52 12.5831 135.798 12.7005C136.086 12.8071 136.48 12.9298 136.982 13.0685C137.611 13.2391 138.123 13.4098 138.518 13.5805C138.912 13.7405 139.248 13.9858 139.526 14.3165C139.814 14.6471 139.963 15.0791 139.974 15.6125C139.974 16.0925 139.84 16.5245 139.574 16.9085C139.307 17.2925 138.928 17.5965 138.438 17.8205C137.958 18.0338 137.403 18.1405 136.774 18.1405Z" fill="black"/>
<defs>
<clipPath id="clip0_17_1657">
<rect width="20" height="20" fill="white" transform="translate(0 1.99646)"/>
</clipPath>
</defs>
</svg>
