<svg width="149" height="24" viewBox="0 0 149 24" fill="none" xmlns="http://www.w3.org/2000/svg">
<g clip-path="url(#clip0_5_1677)">
<path d="M19.6667 1.99646C19.5747 1.99646 19.4961 2.02979 19.4307 2.09379L8.09738 13.4271C7.95072 13.5738 7.85405 13.5851 7.69738 13.5658C7.54205 13.5458 7.34272 13.4578 7.14405 13.3625L0.927382 10.3625C0.744716 10.2731 0.668716 10.1425 0.667382 9.99579C0.666049 9.84913 0.717382 9.70913 0.898049 9.64246L16.4487 3.97579C16.8867 3.81579 16.5701 3.22046 16.2194 3.34913L0.668716 9.01579C0.236716 9.17246 -0.00395092 9.60313 4.90755e-05 9.99646C0.00404908 10.3898 0.230716 10.7671 0.638049 10.9631L6.85538 13.9631C7.05738 14.0611 7.31138 14.1885 7.61538 14.2271C7.91805 14.2658 8.28738 14.1805 8.56872 13.8991L18.8081 3.66046L12.1654 21.2605C12.112 21.3938 11.8434 21.3791 11.776 21.2311L8.63338 14.8498C8.43338 14.4431 7.86538 14.8005 8.03338 15.1431L11.1774 21.5251C11.3427 21.8611 11.6907 22.0025 12 21.9965C12.31 21.9898 12.6574 21.8405 12.788 21.4951L19.98 2.44713C20.06 2.23379 19.8954 1.99846 19.6667 1.99646Z" fill="white"/>
</g>
<path d="M36.032 6.76446V14.4125C36.032 15.5965 35.696 16.5085 35.024 17.1485C34.3627 17.7885 33.4667 18.1085 32.336 18.1085C31.152 18.1085 30.2027 17.7725 29.488 17.1005C28.7733 16.4285 28.416 15.4738 28.416 14.2365H31.136C31.136 14.7058 31.232 15.0631 31.424 15.3085C31.616 15.5431 31.8933 15.6605 32.256 15.6605C32.5867 15.6605 32.8427 15.5538 33.024 15.3405C33.2053 15.1271 33.296 14.8178 33.296 14.4125V6.76446H36.032ZM42.306 18.1085C41.4847 18.1085 40.7487 17.9751 40.098 17.7085C39.4473 17.4418 38.9247 17.0471 38.53 16.5245C38.146 16.0018 37.9433 15.3725 37.922 14.6365H40.834C40.8767 15.0525 41.0207 15.3725 41.266 15.5965C41.5113 15.8098 41.8313 15.9165 42.226 15.9165C42.6313 15.9165 42.9513 15.8258 43.186 15.6445C43.4207 15.4525 43.538 15.1911 43.538 14.8605C43.538 14.5831 43.442 14.3538 43.25 14.1725C43.0687 13.9911 42.8393 13.8418 42.562 13.7245C42.2953 13.6071 41.9113 13.4738 41.41 13.3245C40.6847 13.1005 40.0927 12.8765 39.634 12.6525C39.1753 12.4285 38.7807 12.0978 38.45 11.6605C38.1193 11.2231 37.954 10.6525 37.954 9.94846C37.954 8.90313 38.3327 8.08713 39.09 7.50046C39.8473 6.90313 40.834 6.60446 42.05 6.60446C43.2873 6.60446 44.2847 6.90313 45.042 7.50046C45.7993 8.08713 46.2047 8.90846 46.258 9.96446H43.298C43.2767 9.60179 43.1433 9.31913 42.898 9.11646C42.6527 8.90313 42.338 8.79646 41.954 8.79646C41.6233 8.79646 41.3567 8.88713 41.154 9.06846C40.9513 9.23913 40.85 9.48979 40.85 9.82046C40.85 10.1831 41.0207 10.4658 41.362 10.6685C41.7033 10.8711 42.2367 11.0898 42.962 11.3245C43.6873 11.5698 44.274 11.8045 44.722 12.0285C45.1807 12.2525 45.5753 12.5778 45.906 13.0045C46.2367 13.4311 46.402 13.9805 46.402 14.6525C46.402 15.2925 46.2367 15.8738 45.906 16.3965C45.586 16.9191 45.1167 17.3351 44.498 17.6445C43.8793 17.9538 43.1487 18.1085 42.306 18.1085ZM54.9658 17.9965L52.6778 14.5565L50.6618 17.9965H47.5578L51.1578 12.2845L47.4778 6.76446H50.6618L52.9178 10.1565L54.9018 6.76446H58.0058L54.4378 12.4285L58.1498 17.9965H54.9658ZM75.6339 6.76446V17.9965H72.8979V11.2605L70.3859 17.9965H68.1779L65.6499 11.2445V17.9965H62.9139V6.76446H66.1459L69.2979 14.5405L72.4179 6.76446H75.6339ZM77.0574 13.5165C77.0574 12.5991 77.228 11.7938 77.5694 11.1005C77.9214 10.4071 78.396 9.87379 78.9934 9.50046C79.5907 9.12713 80.2574 8.94046 80.9934 8.94046C81.6227 8.94046 82.172 9.06846 82.6414 9.32446C83.1214 9.58046 83.4894 9.91646 83.7454 10.3325V9.06846H86.4814V17.9965H83.7454V16.7325C83.4787 17.1485 83.1054 17.4845 82.6254 17.7405C82.156 17.9965 81.6067 18.1245 80.9774 18.1245C80.252 18.1245 79.5907 17.9378 78.9934 17.5645C78.396 17.1805 77.9214 16.6418 77.5694 15.9485C77.228 15.2445 77.0574 14.4338 77.0574 13.5165ZM83.7454 13.5325C83.7454 12.8498 83.5534 12.3111 83.1694 11.9165C82.796 11.5218 82.3374 11.3245 81.7934 11.3245C81.2494 11.3245 80.7854 11.5218 80.4014 11.9165C80.028 12.3005 79.8414 12.8338 79.8414 13.5165C79.8414 14.1991 80.028 14.7431 80.4014 15.1485C80.7854 15.5431 81.2494 15.7405 81.7934 15.7405C82.3374 15.7405 82.796 15.5431 83.1694 15.1485C83.5534 14.7538 83.7454 14.2151 83.7454 13.5325ZM89.8368 8.14046C89.3568 8.14046 88.9621 8.00179 88.6528 7.72446C88.3541 7.43646 88.2048 7.08446 88.2048 6.66846C88.2048 6.24179 88.3541 5.88979 88.6528 5.61246C88.9621 5.32446 89.3568 5.18046 89.8368 5.18046C90.3061 5.18046 90.6901 5.32446 90.9888 5.61246C91.2981 5.88979 91.4528 6.24179 91.4528 6.66846C91.4528 7.08446 91.2981 7.43646 90.9888 7.72446C90.6901 8.00179 90.3061 8.14046 89.8368 8.14046ZM91.1968 9.06846V17.9965H88.4608V9.06846H91.1968ZM95.9155 6.15646V17.9965H93.1795V6.15646H95.9155ZM101.86 12.4125C101.86 11.3245 102.105 10.3485 102.596 9.48446C103.087 8.60979 103.753 7.92713 104.596 7.43646C105.449 6.94579 106.393 6.70046 107.428 6.70046C108.644 6.70046 109.705 6.99379 110.612 7.58046C111.519 8.16713 112.18 8.99913 112.596 10.0765H110.852C110.543 9.40446 110.095 8.88713 109.508 8.52446C108.932 8.16179 108.239 7.98046 107.428 7.98046C106.649 7.98046 105.951 8.16179 105.332 8.52446C104.713 8.88713 104.228 9.40446 103.876 10.0765C103.524 10.7378 103.348 11.5165 103.348 12.4125C103.348 13.2978 103.524 14.0765 103.876 14.7485C104.228 15.4098 104.713 15.9218 105.332 16.2845C105.951 16.6471 106.649 16.8285 107.428 16.8285C108.239 16.8285 108.932 16.6525 109.508 16.3005C110.095 15.9378 110.543 15.4205 110.852 14.7485H112.596C112.18 15.8151 111.519 16.6418 110.612 17.2285C109.705 17.8045 108.644 18.0925 107.428 18.0925C106.393 18.0925 105.449 17.8525 104.596 17.3725C103.753 16.8818 103.087 16.2045 102.596 15.3405C102.105 14.4765 101.86 13.5005 101.86 12.4125ZM116.219 6.15646V17.9965H114.763V6.15646H116.219ZM122.525 18.1405C121.703 18.1405 120.957 17.9538 120.285 17.5805C119.623 17.2071 119.101 16.6791 118.717 15.9965C118.343 15.3031 118.157 14.5031 118.157 13.5965C118.157 12.7005 118.349 11.9111 118.733 11.2285C119.127 10.5351 119.661 10.0071 120.333 9.64446C121.005 9.27113 121.757 9.08446 122.589 9.08446C123.421 9.08446 124.173 9.27113 124.845 9.64446C125.517 10.0071 126.045 10.5298 126.429 11.2125C126.823 11.8951 127.021 12.6898 127.021 13.5965C127.021 14.5031 126.818 15.3031 126.413 15.9965C126.018 16.6791 125.479 17.2071 124.797 17.5805C124.114 17.9538 123.357 18.1405 122.525 18.1405ZM122.525 16.8605C123.047 16.8605 123.538 16.7378 123.997 16.4925C124.455 16.2471 124.823 15.8791 125.101 15.3885C125.389 14.8978 125.533 14.3005 125.533 13.5965C125.533 12.8925 125.394 12.2951 125.117 11.8045C124.839 11.3138 124.477 10.9511 124.029 10.7165C123.581 10.4711 123.095 10.3485 122.573 10.3485C122.039 10.3485 121.549 10.4711 121.101 10.7165C120.663 10.9511 120.311 11.3138 120.045 11.8045C119.778 12.2951 119.645 12.8925 119.645 13.5965C119.645 14.3111 119.773 14.9138 120.029 15.4045C120.295 15.8951 120.647 16.2631 121.085 16.5085C121.522 16.7431 122.002 16.8605 122.525 16.8605ZM136.711 9.22846V17.9965H135.255V16.7005C134.978 17.1485 134.588 17.5005 134.087 17.7565C133.596 18.0018 133.052 18.1245 132.455 18.1245C131.772 18.1245 131.159 17.9858 130.615 17.7085C130.071 17.4205 129.639 16.9938 129.319 16.4285C129.01 15.8631 128.855 15.1751 128.855 14.3645V9.22846H130.295V14.1725C130.295 15.0365 130.514 15.7031 130.951 16.1725C131.388 16.6311 131.986 16.8605 132.743 16.8605C133.522 16.8605 134.135 16.6205 134.583 16.1405C135.031 15.6605 135.255 14.9618 135.255 14.0445V9.22846H136.711ZM138.626 13.5805C138.626 12.6845 138.807 11.9005 139.17 11.2285C139.532 10.5458 140.028 10.0178 140.658 9.64446C141.298 9.27113 142.012 9.08446 142.802 9.08446C143.484 9.08446 144.119 9.24446 144.706 9.56446C145.292 9.87379 145.74 10.2845 146.05 10.7965V6.15646H147.522V17.9965H146.05V16.3485C145.762 16.8711 145.335 17.3031 144.77 17.6445C144.204 17.9751 143.543 18.1405 142.786 18.1405C142.007 18.1405 141.298 17.9485 140.658 17.5645C140.028 17.1805 139.532 16.6418 139.17 15.9485C138.807 15.2551 138.626 14.4658 138.626 13.5805ZM146.05 13.5965C146.05 12.9351 145.916 12.3591 145.65 11.8685C145.383 11.3778 145.02 11.0045 144.562 10.7485C144.114 10.4818 143.618 10.3485 143.074 10.3485C142.53 10.3485 142.034 10.4765 141.586 10.7325C141.138 10.9885 140.78 11.3618 140.514 11.8525C140.247 12.3431 140.114 12.9191 140.114 13.5805C140.114 14.2525 140.247 14.8391 140.514 15.3405C140.78 15.8311 141.138 16.2098 141.586 16.4765C142.034 16.7325 142.53 16.8605 143.074 16.8605C143.618 16.8605 144.114 16.7325 144.562 16.4765C145.02 16.2098 145.383 15.8311 145.65 15.3405C145.916 14.8391 146.05 14.2578 146.05 13.5965Z" fill="white"/>
<defs>
<clipPath id="clip0_5_1677">
<rect width="20" height="20" fill="white" transform="translate(0 1.99646)"/>
</clipPath>
</defs>
</svg>
