<svg width="420" height="141" viewBox="0 0 420 141" fill="none" xmlns="http://www.w3.org/2000/svg">
<g clip-path="url(#clip0_4515_1315)">
<path d="M408.918 0.948242H11.0818C4.96149 0.948242 0 5.90973 0 12.03V129.497C0 135.617 4.96149 140.579 11.0818 140.579H408.918C415.039 140.579 420 135.617 420 129.497V12.03C420 5.90973 415.039 0.948242 408.918 0.948242Z" fill="#18181B"/>
<path d="M44.6672 15.9338H46.0084L48.6907 20.4484H48.804L51.4864 15.9338H52.8275L49.3329 21.6195V25.6052H48.1618V21.6195L44.6672 15.9338ZM56.1116 25.7563C55.4572 25.7563 54.8825 25.6005 54.3882 25.2888C53.8971 24.9771 53.513 24.5411 53.236 23.9807C52.9621 23.4203 52.8251 22.7655 52.8251 22.0162C52.8251 21.2606 52.9621 20.601 53.236 20.0375C53.513 19.474 53.8971 19.0364 54.3882 18.7247C54.8825 18.413 55.4572 18.2572 56.1116 18.2572C56.7666 18.2572 57.3395 18.413 57.831 18.7247C58.3252 19.0364 58.7092 19.474 58.9829 20.0375C59.26 20.601 59.3985 21.2606 59.3985 22.0162C59.3985 22.7655 59.26 23.4203 58.9829 23.9807C58.7092 24.5411 58.3252 24.9771 57.831 25.2888C57.3395 25.6005 56.7666 25.7563 56.1116 25.7563ZM56.1116 24.7552C56.6092 24.7552 57.0187 24.6277 57.3395 24.3727C57.6609 24.1176 57.8986 23.7823 58.0526 23.3668C58.2072 22.9512 58.2842 22.501 58.2842 22.0162C58.2842 21.5314 58.2072 21.0796 58.0526 20.6609C57.8986 20.2421 57.6609 19.9037 57.3395 19.6456C57.0187 19.3874 56.6092 19.2584 56.1116 19.2584C55.6146 19.2584 55.2052 19.3874 54.8841 19.6456C54.5629 19.9037 54.3252 20.2421 54.171 20.6609C54.0167 21.0796 53.9396 21.5314 53.9396 22.0162C53.9396 22.501 54.0167 22.9512 54.171 23.3668C54.3252 23.7823 54.5629 24.1176 54.8841 24.3727C55.2052 24.6277 55.6146 24.7552 56.1116 24.7552ZM65.6713 22.6395V18.3517H66.7856V25.6052H65.6713V24.3774H65.5954C65.4253 24.7457 65.161 25.059 64.802 25.3171C64.4435 25.5721 63.9902 25.6997 63.4422 25.6997C62.989 25.6997 62.5856 25.6005 62.2332 25.4021C61.8808 25.2006 61.6038 24.8984 61.4021 24.4955C61.2004 24.0893 61.1001 23.5777 61.1001 22.9607V18.3517H62.2144V22.8851C62.2144 23.414 62.3623 23.8359 62.6582 24.1507C62.9574 24.4655 63.3381 24.6229 63.8013 24.6229C64.0783 24.6229 64.3598 24.5521 64.6463 24.4105C64.9361 24.2688 65.1782 24.0515 65.3738 23.7587C65.5722 23.466 65.6713 23.0929 65.6713 22.6395ZM68.8269 25.6052V18.3517H69.9035V19.4473H69.9788C70.1113 19.0883 70.3506 18.7971 70.6969 18.5736C71.0432 18.35 71.4333 18.2383 71.8683 18.2383C71.9497 18.2383 72.0522 18.2399 72.1752 18.243C72.2977 18.2462 72.3908 18.2509 72.4534 18.2572V19.3906C72.4157 19.3811 72.3293 19.367 72.1941 19.3481C72.0617 19.326 71.9215 19.315 71.7735 19.315C71.4211 19.315 71.1064 19.389 70.8294 19.537C70.5551 19.6818 70.3379 19.8833 70.1772 20.1414C70.0198 20.3964 69.9412 20.6876 69.9412 21.015V25.6052H68.8269ZM80.7448 18.3517V19.2961H76.8346V18.3517H80.7448ZM78.0059 25.6052V17.3505C78.0059 16.935 78.1034 16.5886 78.2985 16.3116C78.4941 16.0346 78.7473 15.8268 79.0592 15.6883C79.3707 15.5497 79.6998 15.4805 80.0461 15.4805C80.3198 15.4805 80.5437 15.5025 80.7165 15.5466C80.89 15.5906 81.0185 15.6316 81.1038 15.6694L80.7825 16.6327C80.726 16.6138 80.6473 16.5902 80.5464 16.5619C80.4489 16.5335 80.3198 16.5194 80.1591 16.5194C79.7912 16.5194 79.5247 16.6123 79.3612 16.798C79.2005 16.9837 79.1202 17.256 79.1202 17.6149V25.6052H78.0059ZM82.3068 25.6052V18.3517H83.421V25.6052H82.3068ZM82.8736 17.1427C82.6564 17.1427 82.4691 17.0688 82.3118 16.9208C82.1572 16.7728 82.0801 16.5949 82.0801 16.3871C82.0801 16.1793 82.1572 16.0015 82.3118 15.8535C82.4691 15.7055 82.6564 15.6316 82.8736 15.6316C83.0908 15.6316 83.2764 15.7055 83.4305 15.8535C83.5884 16.0015 83.6671 16.1793 83.6671 16.3871C83.6671 16.5949 83.5884 16.7728 83.4305 16.9208C83.2764 17.0688 83.0908 17.1427 82.8736 17.1427ZM85.4623 25.6052V18.3517H86.5395V19.4473H86.6148C86.7472 19.0883 86.9861 18.7971 87.3324 18.5736C87.6787 18.35 88.0693 18.2383 88.5037 18.2383C88.5857 18.2383 88.6877 18.2399 88.8107 18.243C88.9337 18.2462 89.0262 18.2509 89.0894 18.2572V19.3906C89.0517 19.3811 88.9647 19.367 88.8295 19.3481C88.6971 19.326 88.5575 19.315 88.4095 19.315C88.0566 19.315 87.7418 19.389 87.4648 19.537C87.1911 19.6818 86.9739 19.8833 86.8132 20.1414C86.6558 20.3964 86.5771 20.6876 86.5771 21.015V25.6052H85.4623ZM95.5484 19.9761L94.5472 20.2595C94.484 20.0926 94.3915 19.9305 94.2685 19.7731C94.1488 19.6125 93.9853 19.4803 93.7775 19.3764C93.5698 19.2725 93.3038 19.2206 92.9791 19.2206C92.5353 19.2206 92.1657 19.3229 91.8698 19.5275C91.5767 19.729 91.4304 19.9856 91.4304 20.2973C91.4304 20.5743 91.5313 20.7931 91.7324 20.9537C91.9341 21.1142 92.2488 21.248 92.6771 21.355L93.7537 21.6195C94.4026 21.7769 94.8857 22.0178 95.2038 22.342C95.5213 22.6631 95.6803 23.0771 95.6803 23.584C95.6803 23.9996 95.5606 24.3711 95.3218 24.6985C95.0857 25.0259 94.755 25.2841 94.33 25.473C93.905 25.6619 93.4107 25.7563 92.8472 25.7563C92.1075 25.7563 91.4947 25.5958 91.0099 25.2746C90.525 24.9535 90.2181 24.4844 90.089 23.8673L91.1473 23.6029C91.2476 23.9933 91.4382 24.2861 91.7185 24.4813C92.0017 24.6765 92.3718 24.774 92.8284 24.774C93.3476 24.774 93.7598 24.6638 94.0657 24.4435C94.3737 24.22 94.5283 23.9523 94.5283 23.6407C94.5283 23.3888 94.4402 23.1779 94.264 23.0079C94.0873 22.8347 93.8169 22.7056 93.4517 22.6206L92.2427 22.3373C91.5784 22.1799 91.0902 21.9359 90.7788 21.6053C90.4702 21.2716 90.3161 20.8545 90.3161 20.3539C90.3161 19.9447 90.4308 19.5826 90.6608 19.2678C90.8935 18.9529 91.2099 18.7058 91.6099 18.5264C92.0128 18.3469 92.4693 18.2572 92.9791 18.2572C93.6972 18.2572 94.2607 18.4146 94.6702 18.7294C95.0824 19.0443 95.375 19.4598 95.5484 19.9761ZM100.512 18.3517V19.2961H96.7536V18.3517H100.512ZM97.849 16.6138H98.9638V23.5273C98.9638 23.8422 99.0093 24.0783 99.1007 24.2357C99.1949 24.39 99.3146 24.4938 99.4597 24.5474C99.6077 24.5977 99.7634 24.6229 99.9268 24.6229C100.05 24.6229 100.151 24.6166 100.229 24.6041C100.308 24.5883 100.371 24.5757 100.418 24.5663L100.645 25.5674C100.57 25.5958 100.464 25.6241 100.329 25.6524C100.193 25.6839 100.022 25.6997 99.8138 25.6997C99.4991 25.6997 99.1904 25.6319 98.8879 25.4966C98.5892 25.3612 98.3405 25.155 98.1421 24.8779C97.9471 24.6009 97.849 24.2514 97.849 23.8296V16.6138ZM108.97 25.7563C108.271 25.7563 107.669 25.602 107.162 25.2935C106.658 24.9818 106.269 24.5474 105.995 23.9901C105.725 23.4298 105.589 22.7781 105.589 22.0351C105.589 21.2921 105.725 20.6373 105.995 20.0706C106.269 19.5008 106.65 19.0568 107.138 18.7389C107.629 18.4178 108.202 18.2572 108.857 18.2572C109.235 18.2572 109.608 18.3202 109.976 18.4461C110.345 18.572 110.68 18.7766 110.982 19.06C111.285 19.3402 111.525 19.7117 111.705 20.1745C111.884 20.6373 111.974 21.2071 111.974 21.884V22.3562H106.383V21.3928H110.84C110.84 20.9836 110.759 20.6184 110.595 20.2973C110.435 19.9761 110.205 19.7227 109.905 19.537C109.61 19.3512 109.26 19.2584 108.857 19.2584C108.413 19.2584 108.029 19.3685 107.705 19.5889C107.384 19.8061 107.137 20.0895 106.963 20.4389C106.79 20.7884 106.704 21.163 106.704 21.5628V22.2051C106.704 22.7529 106.798 23.2172 106.987 23.5982C107.179 23.976 107.445 24.264 107.785 24.4624C108.125 24.6576 108.52 24.7552 108.97 24.7552C109.263 24.7552 109.528 24.7142 109.764 24.6324C110.003 24.5474 110.209 24.4214 110.382 24.2546C110.555 24.0846 110.689 23.8737 110.784 23.6218L111.86 23.924C111.747 24.2892 111.557 24.6103 111.289 24.8874C111.021 25.1613 110.691 25.3753 110.297 25.5296C109.904 25.6808 109.462 25.7563 108.97 25.7563ZM113.669 25.6052V18.3517H114.746V19.485H114.84C114.991 19.0978 115.235 18.7971 115.572 18.583C115.909 18.3658 116.313 18.2572 116.786 18.2572C117.264 18.2572 117.663 18.3658 117.981 18.583C118.302 18.7971 118.552 19.0978 118.732 19.485H118.807C118.993 19.1104 119.271 18.8129 119.643 18.5925C120.014 18.3689 120.46 18.2572 120.979 18.2572C121.628 18.2572 122.159 18.4603 122.571 18.8664C122.983 19.2693 123.189 19.8975 123.189 20.7506V25.6052H122.075V20.7506C122.075 20.2154 121.929 19.8329 121.636 19.6031C121.343 19.3732 120.998 19.2584 120.602 19.2584C120.092 19.2584 119.696 19.4126 119.416 19.7211C119.136 20.0265 118.996 20.4138 118.996 20.8828V25.6052H117.863V20.6373C117.863 20.2249 117.729 19.8927 117.461 19.6409C117.193 19.3859 116.849 19.2584 116.427 19.2584C116.137 19.2584 115.867 19.3355 115.615 19.4898C115.366 19.644 115.164 19.8581 115.01 20.132C114.859 20.4027 114.784 20.716 114.784 21.0717V25.6052H113.669ZM127.361 25.7752C126.902 25.7752 126.485 25.6886 126.11 25.5155C125.736 25.3392 125.438 25.0857 125.218 24.7552C124.997 24.4214 124.887 24.0185 124.887 23.5462C124.887 23.1307 124.969 22.7938 125.133 22.5356C125.296 22.2743 125.515 22.0697 125.789 21.9218C126.063 21.7738 126.365 21.6636 126.696 21.5912C127.03 21.5156 127.365 21.4558 127.702 21.4117C128.142 21.355 128.5 21.3125 128.774 21.2842C129.051 21.2528 129.252 21.2008 129.378 21.1284C129.507 21.056 129.572 20.9301 129.572 20.7506V20.7129C129.572 20.2469 129.444 19.8848 129.189 19.6267C128.937 19.3685 128.555 19.2395 128.042 19.2395C127.509 19.2395 127.092 19.3559 126.79 19.5889C126.488 19.8219 126.275 20.0706 126.152 20.335L125.095 19.9572C125.284 19.5165 125.536 19.1733 125.85 18.9278C126.169 18.6791 126.515 18.5059 126.889 18.4083C127.267 18.3075 127.639 18.2572 128.004 18.2572C128.237 18.2572 128.505 18.2855 128.807 18.3422C129.112 18.3957 129.407 18.5075 129.69 18.6775C129.976 18.8475 130.214 19.104 130.403 19.4473C130.592 19.7904 130.686 20.25 130.686 20.8262V25.6052H129.572V24.6229H129.515C129.439 24.7804 129.314 24.9488 129.137 25.1282C128.961 25.3077 128.726 25.4603 128.434 25.5863C128.141 25.7122 127.784 25.7752 127.361 25.7752ZM127.532 24.774C127.973 24.774 128.344 24.6875 128.646 24.5143C128.952 24.3412 129.181 24.1176 129.336 23.8437C129.493 23.5698 129.572 23.2818 129.572 22.9796V21.9596C129.525 22.0162 129.42 22.0682 129.26 22.1154C129.102 22.1594 128.92 22.1988 128.712 22.2334C128.507 22.2649 128.308 22.2932 128.112 22.3184C127.921 22.3405 127.765 22.3593 127.645 22.3751C127.355 22.4129 127.084 22.4742 126.833 22.5592C126.584 22.6411 126.382 22.7655 126.228 22.9323C126.077 23.096 126.002 23.3196 126.002 23.6029C126.002 23.9901 126.145 24.2829 126.431 24.4813C126.721 24.6765 127.088 24.774 127.532 24.774ZM132.72 25.6052V18.3517H133.835V25.6052H132.72ZM133.287 17.1427C133.07 17.1427 132.882 17.0688 132.725 16.9208C132.571 16.7728 132.493 16.5949 132.493 16.3871C132.493 16.1793 132.571 16.0015 132.725 15.8535C132.882 15.7055 133.07 15.6316 133.287 15.6316C133.504 15.6316 133.69 15.7055 133.844 15.8535C134.002 16.0015 134.08 16.1793 134.08 16.3871C134.08 16.5949 134.002 16.7728 133.844 16.9208C133.69 17.0688 133.504 17.1427 133.287 17.1427ZM136.99 15.9338V25.6052H135.876V15.9338H136.99ZM144.415 25.6052L142.205 18.3517H143.376L144.944 23.9051H145.02L146.568 18.3517H147.759L149.288 23.8862H149.364L150.932 18.3517H152.103L149.893 25.6052H148.798L147.211 20.0328H147.098L145.511 25.6052H144.415ZM153.577 25.6052V18.3517H154.691V25.6052H153.577ZM154.143 17.1427C153.926 17.1427 153.739 17.0688 153.582 16.9208C153.427 16.7728 153.35 16.5949 153.35 16.3871C153.35 16.1793 153.427 16.0015 153.582 15.8535C153.739 15.7055 153.926 15.6316 154.143 15.6316C154.361 15.6316 154.546 15.7055 154.7 15.8535C154.858 16.0015 154.937 16.1793 154.937 16.3871C154.937 16.5949 154.858 16.7728 154.7 16.9208C154.546 17.0688 154.361 17.1427 154.143 17.1427ZM159.887 18.3517V19.2961H156.128V18.3517H159.887ZM157.224 16.6138H158.338V23.5273C158.338 23.8422 158.383 24.0783 158.475 24.2357C158.569 24.39 158.689 24.4938 158.834 24.5474C158.982 24.5977 159.137 24.6229 159.301 24.6229C159.424 24.6229 159.525 24.6166 159.603 24.6041C159.682 24.5883 159.745 24.5757 159.792 24.5663L160.019 25.5674C159.944 25.5958 159.838 25.6241 159.703 25.6524C159.567 25.6839 159.396 25.6997 159.188 25.6997C158.873 25.6997 158.564 25.6319 158.263 25.4966C157.963 25.3612 157.715 25.155 157.516 24.8779C157.321 24.6009 157.224 24.2514 157.224 23.8296V16.6138ZM162.834 21.2417V25.6052H161.719V15.9338H162.834V19.485H162.928C163.098 19.1104 163.353 18.8129 163.693 18.5925C164.036 18.3689 164.493 18.2572 165.062 18.2572C165.557 18.2572 165.99 18.3564 166.361 18.5547C166.733 18.7499 167.021 19.0506 167.225 19.4567C167.433 19.8597 167.537 20.3728 167.537 20.9962V25.6052H166.423V21.0717C166.423 20.4956 166.273 20.0501 165.974 19.7353C165.678 19.4173 165.267 19.2584 164.741 19.2584C164.376 19.2584 164.049 19.3355 163.759 19.4898C163.473 19.644 163.246 19.8691 163.079 20.165C162.915 20.461 162.834 20.8198 162.834 21.2417ZM177.17 15.9338H178.34V22.8473C178.34 23.4644 178.227 23.9886 178.001 24.4199C177.774 24.8512 177.455 25.1786 177.042 25.4021C176.629 25.6256 176.143 25.7374 175.583 25.7374C175.054 25.7374 174.583 25.6414 174.171 25.4494C173.758 25.2542 173.434 24.9771 173.198 24.6182C172.962 24.2593 172.844 23.8327 172.844 23.3385H173.996C173.996 23.6123 174.063 23.8516 174.199 24.0562C174.338 24.2577 174.527 24.4152 174.766 24.5285C175.005 24.6418 175.277 24.6985 175.583 24.6985C175.92 24.6985 176.206 24.6277 176.442 24.486C176.678 24.3443 176.858 24.1365 176.981 23.8626C177.107 23.5856 177.17 23.2471 177.17 22.8473V15.9338ZM185.976 18.3517C185.92 17.8731 185.69 17.5016 185.287 17.2372C184.884 16.9727 184.39 16.8405 183.804 16.8405C183.376 16.8405 183.001 16.9097 182.681 17.0483C182.363 17.1868 182.114 17.3773 181.934 17.6197C181.758 17.8621 181.67 18.1376 181.67 18.4461C181.67 18.7043 181.732 18.9262 181.854 19.1119C181.98 19.2945 182.14 19.4473 182.335 19.57C182.531 19.6897 182.736 19.7888 182.949 19.8675C183.164 19.9431 183.361 20.0044 183.54 20.0517L184.522 20.3161C184.774 20.3823 185.054 20.4735 185.363 20.5901C185.674 20.7065 185.972 20.8655 186.255 21.067C186.542 21.2653 186.778 21.5203 186.964 21.832C187.149 22.1437 187.242 22.5262 187.242 22.9796C187.242 23.5021 187.105 23.9744 186.831 24.3963C186.56 24.8181 186.164 25.1534 185.641 25.4021C185.122 25.6508 184.491 25.7752 183.748 25.7752C183.055 25.7752 182.455 25.6634 181.949 25.4399C181.445 25.2164 181.048 24.9047 180.759 24.5049C180.472 24.105 180.31 23.6407 180.272 23.1118H181.481C181.513 23.477 181.635 23.7792 181.85 24.0185C182.067 24.2546 182.34 24.4309 182.671 24.5474C183.005 24.6607 183.364 24.7174 183.748 24.7174C184.195 24.7174 184.596 24.6449 184.952 24.5002C185.308 24.3522 185.59 24.1475 185.797 23.8862C186.005 23.6218 186.109 23.3132 186.109 22.9607C186.109 22.6395 186.019 22.3782 185.84 22.1768C185.66 21.9753 185.424 21.8116 185.131 21.6856C184.838 21.5597 184.522 21.4495 184.182 21.355L182.992 21.015C182.236 20.7978 181.638 20.4877 181.197 20.0847C180.757 19.6818 180.536 19.1545 180.536 18.5028C180.536 17.9612 180.683 17.489 180.976 17.0861C181.272 16.6799 181.668 16.3651 182.166 16.1416C182.666 15.9149 183.225 15.8016 183.842 15.8016C184.465 15.8016 185.019 15.9133 185.504 16.1368C185.989 16.3573 186.373 16.6595 186.657 17.0436C186.943 17.4277 187.095 17.8637 187.11 18.3517H185.976ZM189.734 15.9338L192.228 19.9572H192.304L194.797 15.9338H196.176L193.135 20.7695L196.176 25.6052H194.797L192.304 21.6573H192.228L189.734 25.6052H188.356L191.472 20.7695L188.356 15.9338H189.734ZM201.44 15.9338H202.838L206.125 23.9618H206.238L209.525 15.9338H210.923V25.6052H209.827V18.2572H209.732L206.71 25.6052H205.652L202.63 18.2572H202.535V25.6052H201.44V15.9338ZM215.254 25.7752C214.795 25.7752 214.377 25.6886 214.003 25.5155C213.628 25.3392 213.331 25.0857 213.11 24.7552C212.89 24.4214 212.779 24.0185 212.779 23.5462C212.779 23.1307 212.861 22.7938 213.025 22.5356C213.189 22.2743 213.408 22.0697 213.681 21.9218C213.955 21.7738 214.258 21.6636 214.589 21.5912C214.922 21.5156 215.257 21.4558 215.594 21.4117C216.035 21.355 216.392 21.3125 216.666 21.2842C216.943 21.2528 217.145 21.2008 217.27 21.1284C217.399 21.056 217.464 20.9301 217.464 20.7506V20.7129C217.464 20.2469 217.337 19.8848 217.082 19.6267C216.83 19.3685 216.447 19.2395 215.934 19.2395C215.402 19.2395 214.985 19.3559 214.683 19.5889C214.381 19.8219 214.168 20.0706 214.045 20.335L212.987 19.9572C213.176 19.5165 213.428 19.1733 213.743 18.9278C214.061 18.6791 214.407 18.5059 214.782 18.4083C215.16 18.3075 215.531 18.2572 215.896 18.2572C216.129 18.2572 216.397 18.2855 216.699 18.3422C217.004 18.3957 217.299 18.5075 217.582 18.6775C217.869 18.8475 218.106 19.104 218.295 19.4473C218.484 19.7904 218.578 20.25 218.578 20.8262V25.6052H217.464V24.6229H217.408C217.332 24.7804 217.206 24.9488 217.03 25.1282C216.854 25.3077 216.619 25.4603 216.326 25.5863C216.033 25.7122 215.676 25.7752 215.254 25.7752ZM215.424 24.774C215.865 24.774 216.236 24.6875 216.538 24.5143C216.844 24.3412 217.074 24.1176 217.228 23.8437C217.386 23.5698 217.464 23.2818 217.464 22.9796V21.9596C217.417 22.0162 217.313 22.0682 217.152 22.1154C216.995 22.1594 216.813 22.1988 216.605 22.2334C216.4 22.2649 216.2 22.2932 216.005 22.3184C215.813 22.3405 215.657 22.3593 215.538 22.3751C215.248 22.4129 214.977 22.4742 214.725 22.5592C214.477 22.6411 214.275 22.7655 214.121 22.9323C213.97 23.096 213.894 23.3196 213.894 23.6029C213.894 23.9901 214.037 24.2829 214.324 24.4813C214.613 24.6765 214.98 24.774 215.424 24.774ZM220.613 25.6052V18.3517H221.727V25.6052H220.613ZM221.179 17.1427C220.962 17.1427 220.775 17.0688 220.618 16.9208C220.464 16.7728 220.386 16.5949 220.386 16.3871C220.386 16.1793 220.464 16.0015 220.618 15.8535C220.775 15.7055 220.962 15.6316 221.179 15.6316C221.397 15.6316 221.582 15.7055 221.737 15.8535C221.894 16.0015 221.973 16.1793 221.973 16.3871C221.973 16.5949 221.894 16.7728 221.737 16.9208C221.582 17.0688 221.397 17.1427 221.179 17.1427ZM224.883 15.9338V25.6052H223.769V15.9338H224.883Z" fill="white"/>
<mask id="mask0_4515_1315" style="mask-type:luminance" maskUnits="userSpaceOnUse" x="360" y="12" width="18" height="18">
<path d="M377.889 12.0303H360.158V29.7611H377.889V12.0303Z" fill="white"/>
</mask>
<g mask="url(#mask0_4515_1315)">
<path d="M364.591 17.5712V14.8008H373.457V17.5712" stroke="#A1A1AA" stroke-width="2" stroke-linecap="round" stroke-linejoin="round"/>
<path d="M373.457 22.5576H364.591V26.9903H373.457V22.5576Z" stroke="#A1A1AA" stroke-width="2" stroke-linecap="round" stroke-linejoin="round"/>
<path d="M364.591 24.2204H361.821V18.6795C361.821 18.0672 362.358 17.5713 363.021 17.5713H375.027C375.689 17.5713 376.227 18.0672 376.227 18.6795V24.2204H373.456" stroke="#A1A1AA" stroke-width="2" stroke-linecap="round" stroke-linejoin="round"/>
<path d="M373.179 20.8957C373.638 20.8957 374.011 20.5235 374.011 20.0645C374.011 19.6055 373.638 19.2334 373.179 19.2334C372.721 19.2334 372.348 19.6055 372.348 20.0645C372.348 20.5235 372.721 20.8957 373.179 20.8957Z" fill="#A1A1AA"/>
</g>
<mask id="mask1_4515_1315" style="mask-type:luminance" maskUnits="userSpaceOnUse" x="391" y="12" width="18" height="18">
<path d="M408.918 12.0303H391.187V29.7611H408.918V12.0303Z" fill="white"/>
</mask>
<g mask="url(#mask1_4515_1315)">
<path d="M406.148 19.2335L406.147 14.8014L401.715 14.8008" stroke="#A1A1AA" stroke-width="2" stroke-linecap="round" stroke-linejoin="round"/>
<path d="M400.607 20.3417L406.148 14.8008" stroke="#A1A1AA" stroke-width="2" stroke-linecap="round" stroke-linejoin="round"/>
<path d="M403.931 21.4503V26.4371C403.931 26.584 403.873 26.725 403.769 26.8289C403.665 26.9328 403.524 26.9912 403.377 26.9912H394.512C394.365 26.9912 394.224 26.9328 394.12 26.8289C394.016 26.725 393.958 26.584 393.958 26.4371V17.5717C393.958 17.4247 394.016 17.2838 394.12 17.1799C394.224 17.076 394.365 17.0176 394.512 17.0176H399.499" stroke="#A1A1AA" stroke-width="2" stroke-linecap="round" stroke-linejoin="round"/>
</g>
<path d="M46.2665 64.114C46.2665 54.4745 38.4522 46.6602 28.8127 46.6602C19.1732 46.6602 11.3589 54.4745 11.3589 64.114C11.3589 73.7535 19.1732 81.5678 28.8127 81.5678C38.4522 81.5678 46.2665 73.7535 46.2665 64.114Z" fill="white"/>
<path d="M46.2665 64.114C46.2665 54.4745 38.4522 46.6602 28.8127 46.6602C19.1732 46.6602 11.3589 54.4745 11.3589 64.114C11.3589 73.7535 19.1732 81.5678 28.8127 81.5678C38.4522 81.5678 46.2665 73.7535 46.2665 64.114Z" stroke="#E3E5F0"/>
<path d="M33.4301 56.2646H24.1953C21.4249 56.2646 19.5779 57.6497 19.5779 60.8823V67.3463C19.5779 70.5788 21.4249 71.9641 24.1953 71.9641H33.4301C36.2006 71.9641 38.0476 70.5788 38.0476 67.3463V60.8823C38.0476 57.6497 36.2006 56.2646 33.4301 56.2646ZM33.8642 61.8885L30.9737 64.1974C30.3642 64.6866 29.5885 64.9271 28.8127 64.9271C28.037 64.9271 27.252 64.6866 26.6518 64.1974L23.7613 61.8885C23.4658 61.6486 23.4196 61.2053 23.6504 60.91C23.8906 60.6141 24.3246 60.5587 24.6201 60.7992L27.5106 63.1075C28.2125 63.671 29.4038 63.671 30.1056 63.1075L32.9961 60.7992C33.2916 60.5587 33.7349 60.6052 33.9658 60.91C34.2058 61.2053 34.1597 61.6486 33.8642 61.8885Z" fill="black"/>
<path d="M67.8516 51.8741H69.1548V56.9744C69.1526 57.4415 69.0534 57.8443 68.8572 58.1818C68.6616 58.517 68.3874 58.7758 68.0355 58.9575C67.6864 59.137 67.2792 59.2268 66.8137 59.2268C66.3888 59.2268 66.0064 59.1514 65.6662 59.0002C65.3288 58.8467 65.0606 58.6201 64.8622 58.3203C64.6639 58.02 64.5647 57.6471 64.5647 57.201H65.8718C65.874 57.3966 65.9167 57.5656 65.9992 57.7075C66.084 57.8488 66.2009 57.9574 66.35 58.0333C66.4985 58.1086 66.6697 58.1463 66.8636 58.1463C67.0736 58.1463 67.252 58.1031 67.3983 58.0155C67.5446 57.9258 67.6554 57.7934 67.7313 57.6188C67.8089 57.4443 67.8493 57.2293 67.8516 56.9744V51.8741ZM74.5222 53.8681C74.4895 53.5588 74.3499 53.3179 74.1045 53.1455C73.8612 52.9732 73.5448 52.887 73.1553 52.887C72.8816 52.887 72.6466 52.9283 72.4505 53.0109C72.2544 53.0936 72.1047 53.2058 72.0006 53.3474C71.897 53.4891 71.8438 53.6509 71.8416 53.8327C71.8416 53.9838 71.8754 54.1148 71.9441 54.2258C72.015 54.3368 72.1103 54.4312 72.2311 54.5092C72.3513 54.5847 72.4849 54.6485 72.6311 54.7004C72.7774 54.7523 72.9254 54.796 73.0739 54.8314L73.7537 55.0015C74.028 55.0652 74.2912 55.1514 74.5438 55.26C74.7987 55.3686 75.0265 55.5056 75.227 55.6709C75.4304 55.8361 75.5911 56.0356 75.7091 56.2694C75.8271 56.5029 75.8859 56.7771 75.8859 57.0913C75.8859 57.5163 75.7773 57.8903 75.5601 58.2139C75.3428 58.5347 75.0287 58.7863 74.6181 58.968C74.2097 59.1475 73.7149 59.2373 73.1343 59.2373C72.5696 59.2373 72.0798 59.1498 71.6643 58.9752C71.2509 58.8007 70.9273 58.5458 70.694 58.21C70.4624 57.8748 70.3372 57.4664 70.3184 56.9849H71.6111C71.6299 57.2376 71.708 57.4476 71.8449 57.6155C71.9817 57.7828 72.1602 57.908 72.3796 57.9906C72.6018 58.0732 72.8494 58.1147 73.1237 58.1147C73.4091 58.1147 73.6595 58.0721 73.8745 57.9873C74.0917 57.8997 74.2618 57.7795 74.3843 57.626C74.5073 57.4703 74.5699 57.288 74.5721 57.0802C74.5699 56.8913 74.5139 56.7356 74.4053 56.6131C74.2967 56.4879 74.1449 56.3837 73.9488 56.3012C73.7548 56.2162 73.5282 56.1407 73.2689 56.0746L72.4433 55.8621C71.846 55.7086 71.3739 55.476 71.0265 55.1644C70.6818 54.8503 70.5095 54.4336 70.5095 53.9141C70.5095 53.4867 70.6253 53.1125 70.8569 52.7914C71.0902 52.4703 71.4083 52.2211 71.8094 52.0441C72.2111 51.8646 72.6655 51.7749 73.173 51.7749C73.6878 51.7749 74.1388 51.8646 74.5261 52.0441C74.9156 52.2211 75.2215 52.4679 75.4431 52.7843C75.6653 53.0983 75.78 53.4596 75.7867 53.8681H74.5222ZM78.1554 51.8741L79.7528 54.5304H79.8094L81.414 51.8741H82.9123L80.6771 55.5008L82.9472 59.1276H81.4245L79.8094 56.489H79.7528L78.1377 59.1276H76.6217L78.9134 55.5008L76.65 51.8741H78.1554ZM86.4174 51.8741H88.0254L90.1786 57.1301H90.2639L92.4171 51.8741H94.0251V59.1276H92.7645V54.1443H92.6969L90.6922 59.1065H89.7503L87.7456 54.1337H87.6785V59.1276H86.4174V51.8741ZM96.9651 59.2373C96.6199 59.2373 96.3096 59.1758 96.0331 59.0533C95.7594 58.9281 95.5422 58.7442 95.3815 58.5009C95.2236 58.2577 95.1444 57.9574 95.1444 57.6011C95.1444 57.2941 95.2009 57.0403 95.3145 56.8398C95.4275 56.6392 95.5826 56.4785 95.7782 56.3577C95.9744 56.2375 96.1949 56.1466 96.4409 56.0852C96.6886 56.0215 96.9446 55.9754 97.2094 55.9471C97.528 55.914 97.7868 55.8845 97.9846 55.8585C98.183 55.8302 98.327 55.7877 98.4168 55.731C98.5093 55.672 98.5553 55.5811 98.5553 55.4583V55.4371C98.5553 55.1703 98.4761 54.9637 98.3176 54.8173C98.1597 54.6709 97.932 54.5977 97.6344 54.5977C97.3203 54.5977 97.0709 54.6662 96.887 54.8031C96.7052 54.9401 96.5822 55.1018 96.5185 55.2883L95.3217 55.1183C95.4159 54.7877 95.5716 54.5115 95.7888 54.2896C96.006 54.0652 96.2719 53.8976 96.5861 53.7866C96.8997 53.6733 97.2471 53.6166 97.6272 53.6166C97.8893 53.6166 98.1503 53.6473 98.4102 53.7087C98.6695 53.7701 98.9072 53.8716 99.1216 54.0133C99.3366 54.1526 99.5089 54.3426 99.6391 54.5835C99.771 54.8244 99.8375 55.1254 99.8375 55.4867V59.1276H98.6046V58.3801H98.562C98.4844 58.5314 98.3747 58.6732 98.2329 58.8051C98.0938 58.9353 97.9176 59.0401 97.7054 59.1204C97.4948 59.1985 97.2482 59.2373 96.9651 59.2373ZM97.2975 58.2954C97.5552 58.2954 97.7785 58.2444 97.9674 58.143C98.1558 58.0394 98.3016 57.902 98.403 57.7324C98.5066 57.5623 98.5587 57.3767 98.5587 57.1761V56.535C98.5188 56.5683 98.4501 56.5987 98.3531 56.627C98.2589 56.6553 98.1525 56.6802 98.0345 56.7012C97.9165 56.7229 97.7996 56.7417 97.6838 56.7583C97.5679 56.7749 97.4677 56.7888 97.3829 56.8004C97.1917 56.8265 97.0205 56.8691 96.8692 56.9284C96.718 56.9871 96.5988 57.0697 96.5113 57.1761C96.4243 57.2797 96.3805 57.4144 96.3805 57.58C96.3805 57.8161 96.4664 57.9945 96.6393 58.1147C96.8116 58.235 97.031 58.2954 97.2975 58.2954ZM101.126 59.1276V53.6874H102.408V59.1276H101.126ZM101.771 52.9154C101.568 52.9154 101.393 52.848 101.247 52.7135C101.1 52.5765 101.027 52.4124 101.027 52.2211C101.027 52.0275 101.1 51.8634 101.247 51.7288C101.393 51.5919 101.568 51.5234 101.771 51.5234C101.976 51.5234 102.151 51.5919 102.295 51.7288C102.442 51.8634 102.515 52.0275 102.515 52.2211C102.515 52.4124 102.442 52.5765 102.295 52.7135C102.151 52.848 101.976 52.9154 101.771 52.9154ZM105.009 51.8741V59.1276H103.727V51.8741H105.009Z" fill="white"/>
<path d="M115.591 56.0298V55.5261L119.646 53.4608V54.2668L116.535 55.7653L116.56 55.715V55.8409L116.535 55.7906L119.646 57.2892V58.0949L115.591 56.0298ZM124.646 54.5439L123.978 54.7327C123.937 54.6215 123.874 54.5134 123.792 54.4085C123.713 54.3014 123.604 54.2133 123.465 54.144C123.326 54.0748 123.149 54.0401 122.933 54.0401C122.637 54.0401 122.391 54.1083 122.193 54.2448C121.998 54.3791 121.9 54.5501 121.9 54.7579C121.9 54.9426 121.968 55.0885 122.102 55.1955C122.236 55.3026 122.446 55.3918 122.731 55.4631L123.449 55.6394C123.882 55.7443 124.204 55.9049 124.416 56.1211C124.628 56.3352 124.734 56.611 124.734 56.949C124.734 57.226 124.654 57.4737 124.494 57.692C124.337 57.9103 124.117 58.0827 123.833 58.2084C123.55 58.3342 123.221 58.3974 122.845 58.3974C122.352 58.3974 121.943 58.2904 121.62 58.076C121.297 57.8621 121.092 57.5496 121.006 57.1379L121.712 56.9617C121.779 57.2222 121.906 57.4172 122.093 57.5474C122.281 57.6776 122.528 57.7424 122.832 57.7424C123.179 57.7424 123.453 57.6688 123.657 57.5219C123.863 57.3729 123.966 57.1945 123.966 56.9867C123.966 56.8188 123.907 56.6786 123.79 56.565C123.672 56.4498 123.492 56.3633 123.248 56.3069L122.442 56.118C121.999 56.013 121.674 55.8503 121.466 55.63C121.26 55.4075 121.158 55.1294 121.158 54.7957C121.158 54.5229 121.234 54.2815 121.387 54.0716C121.543 53.8617 121.753 53.697 122.02 53.5774C122.289 53.4577 122.593 53.3979 122.933 53.3979C123.412 53.3979 123.787 53.5028 124.06 53.7127C124.335 53.9226 124.531 54.1997 124.646 54.5439ZM127.88 58.3974C127.414 58.3974 127.012 58.2943 126.674 58.0888C126.338 57.881 126.079 57.5912 125.896 57.2199C125.716 56.8465 125.625 56.4115 125.625 55.9164C125.625 55.4211 125.716 54.9846 125.896 54.6068C126.079 54.2269 126.333 53.931 126.658 53.719C126.986 53.5049 127.367 53.3979 127.804 53.3979C128.056 53.3979 128.305 53.4398 128.55 53.5238C128.796 53.6078 129.019 53.7442 129.221 53.9331C129.423 54.1199 129.583 54.3675 129.702 54.6761C129.822 54.9846 129.882 55.3645 129.882 55.8157V56.1305H126.155V55.4883H129.127C129.127 55.2155 129.072 54.972 128.963 54.7579C128.856 54.5439 128.702 54.3749 128.503 54.2511C128.306 54.1272 128.073 54.0653 127.804 54.0653C127.508 54.0653 127.252 54.1388 127.036 54.2857C126.822 54.4305 126.657 54.6194 126.542 54.8524C126.427 55.0853 126.368 55.3351 126.368 55.6017V56.0298C126.368 56.3949 126.432 56.7046 126.557 56.9584C126.685 57.2105 126.863 57.4022 127.089 57.5347C127.316 57.6649 127.58 57.7297 127.88 57.7297C128.075 57.7297 128.251 57.7026 128.409 57.6483C128.568 57.5912 128.706 57.5075 128.821 57.3961C128.937 57.2826 129.026 57.1424 129.088 56.9745L129.807 57.1756C129.731 57.4194 129.604 57.6333 129.425 57.8178C129.247 58.0007 129.027 58.1431 128.764 58.2461C128.502 58.347 128.207 58.3974 127.88 58.3974ZM131.755 55.3876V58.2965H131.012V53.4608H131.73V54.2164H131.793C131.907 53.9709 132.078 53.7736 132.309 53.6246C132.54 53.4735 132.838 53.3979 133.204 53.3979C133.531 53.3979 133.818 53.465 134.063 53.5994C134.309 53.7316 134.5 53.9331 134.636 54.2038C134.772 54.4725 134.84 54.8125 134.84 55.2238V58.2965H134.097V55.2743C134.097 54.8943 133.999 54.5984 133.802 54.3864C133.604 54.1723 133.333 54.0653 132.989 54.0653C132.752 54.0653 132.54 54.1167 132.353 54.2195C132.169 54.3224 132.023 54.4725 131.916 54.6697C131.809 54.8671 131.755 55.1063 131.755 55.3876ZM138.024 58.3974C137.621 58.3974 137.266 58.2954 136.957 58.0921C136.648 57.886 136.407 57.5967 136.233 57.2227C136.059 56.847 135.971 56.4032 135.971 55.8913C135.971 55.3834 136.059 54.9426 136.233 54.569C136.407 54.1954 136.65 53.9069 136.96 53.7032C137.271 53.4997 137.63 53.3979 138.037 53.3979C138.352 53.3979 138.601 53.4504 138.783 53.5553C138.968 53.6581 139.108 53.7757 139.205 53.9079C139.304 54.038 139.38 54.1451 139.434 54.229H139.498V51.8489H140.241V58.2965H139.523V57.5535H139.434C139.38 57.6416 139.303 57.753 139.202 57.8871C139.101 58.0195 138.957 58.1381 138.77 58.2428C138.583 58.3459 138.335 58.3974 138.024 58.3974ZM138.125 57.7297C138.423 57.7297 138.675 57.6521 138.88 57.497C139.086 57.3396 139.243 57.1224 139.35 56.8454C139.457 56.5661 139.51 56.2439 139.51 55.8787C139.51 55.5177 139.458 55.2018 139.353 54.9311C139.248 54.6582 139.093 54.4462 138.887 54.2951C138.681 54.1419 138.427 54.0653 138.125 54.0653C137.81 54.0653 137.548 54.1461 137.338 54.3077C137.13 54.4672 136.974 54.6845 136.869 54.9594C136.766 55.2323 136.714 55.5387 136.714 55.8787C136.714 56.2229 136.767 56.5356 136.872 56.8171C136.979 57.0958 137.137 57.3186 137.344 57.4842C137.554 57.6483 137.814 57.7297 138.125 57.7297ZM143.732 58.3974C143.266 58.3974 142.864 58.2943 142.526 58.0888C142.19 57.881 141.931 57.5912 141.748 57.2199C141.568 56.8465 141.478 56.4115 141.478 55.9164C141.478 55.4211 141.568 54.9846 141.748 54.6068C141.931 54.2269 142.185 53.931 142.51 53.719C142.838 53.5049 143.22 53.3979 143.657 53.3979C143.908 53.3979 144.157 53.4398 144.402 53.5238C144.648 53.6078 144.872 53.7442 145.073 53.9331C145.275 54.1199 145.435 54.3675 145.555 54.6761C145.675 54.9846 145.734 55.3645 145.734 55.8157V56.1305H142.006V55.4883H144.979C144.979 55.2155 144.924 54.972 144.815 54.7579C144.708 54.5439 144.555 54.3749 144.355 54.2511C144.158 54.1272 143.925 54.0653 143.657 54.0653C143.361 54.0653 143.104 54.1388 142.888 54.2857C142.674 54.4305 142.51 54.6194 142.394 54.8524C142.279 55.0853 142.221 55.3351 142.221 55.6017V56.0298C142.221 56.3949 142.284 56.7046 142.41 56.9584C142.538 57.2105 142.715 57.4022 142.942 57.5347C143.168 57.6649 143.432 57.7297 143.732 57.7297C143.927 57.7297 144.103 57.7026 144.261 57.6483C144.42 57.5912 144.558 57.5075 144.673 57.3961C144.789 57.2826 144.878 57.1424 144.941 56.9745L145.658 57.1756C145.583 57.4194 145.456 57.6333 145.278 57.8178C145.099 58.0007 144.879 58.1431 144.617 58.2461C144.354 58.347 144.059 58.3974 143.732 58.3974ZM146.864 58.2965V53.4608H147.582V54.1912H147.633C147.721 53.952 147.88 53.7578 148.111 53.6088C148.342 53.4598 148.602 53.3853 148.892 53.3853C148.946 53.3853 149.015 53.3864 149.097 53.3884C149.179 53.3905 149.24 53.3937 149.282 53.3979V54.1534C149.257 54.1472 149.199 54.1377 149.109 54.1251C149.021 54.1104 148.928 54.1031 148.829 54.1031C148.594 54.1031 148.384 54.1524 148.199 54.2511C148.017 54.3476 147.872 54.4819 147.765 54.654C147.66 54.8241 147.607 55.0182 147.607 55.2365V58.2965H146.864ZM153.878 59.9965C153.236 59.9965 152.668 59.9084 152.175 59.7322C151.681 59.5582 151.267 59.3011 150.931 58.9609C150.595 58.6207 150.341 58.204 150.169 57.7109C149.997 57.2177 149.911 56.6531 149.911 56.0172C149.911 55.4022 149.998 54.8524 150.173 54.3675C150.349 53.8827 150.604 53.4714 150.937 53.1334C151.273 52.7934 151.68 52.5342 152.159 52.3558C152.639 52.1774 153.183 52.0882 153.79 52.0882C154.379 52.0882 154.896 52.1848 155.338 52.3779C155.783 52.5689 156.155 52.8281 156.453 53.1555C156.753 53.4808 156.978 53.847 157.127 54.2542C157.278 54.6614 157.354 55.0812 157.354 55.5135C157.354 55.8178 157.339 56.1263 157.309 56.4392C157.28 56.7517 157.218 57.0393 157.124 57.3019C157.03 57.5618 156.883 57.7718 156.686 57.9314C156.491 58.091 156.227 58.1708 155.893 58.1708C155.746 58.1708 155.584 58.1475 155.408 58.1015C155.232 58.055 155.075 57.9785 154.939 57.8716C154.803 57.7646 154.722 57.6205 154.696 57.4405H154.659C154.608 57.5618 154.531 57.6776 154.426 57.7868C154.323 57.8959 154.188 57.9829 154.02 58.0478C153.854 58.1131 153.651 58.1414 153.412 58.1331C153.139 58.1226 152.899 58.0616 152.691 57.9502C152.483 57.8366 152.309 57.6837 152.168 57.4903C152.03 57.2953 151.925 57.0698 151.854 56.8138C151.785 56.5556 151.75 56.2775 151.75 55.9794C151.75 55.6961 151.792 55.4369 151.875 55.2018C151.96 54.9667 152.076 54.7611 152.225 54.5847C152.376 54.4085 152.552 54.2679 152.754 54.1629C152.958 54.0559 153.177 53.9898 153.412 53.9646C153.622 53.9436 153.813 53.953 153.985 53.9929C154.157 54.0307 154.299 54.0884 154.41 54.1661C154.521 54.2416 154.592 54.3255 154.621 54.4179H154.659V54.0653H155.326V56.9113C155.326 57.0875 155.376 57.2427 155.474 57.3773C155.573 57.5114 155.716 57.579 155.905 57.579C156.12 57.579 156.283 57.5053 156.397 57.3585C156.512 57.2116 156.591 56.985 156.633 56.6786C156.677 56.3722 156.699 55.9794 156.699 55.5009C156.699 55.2197 156.66 54.9426 156.582 54.6697C156.506 54.3948 156.391 54.1377 156.236 53.8985C156.083 53.6592 155.889 53.4483 155.654 53.2657C155.418 53.0831 155.142 52.9403 154.825 52.8375C154.511 52.7325 154.153 52.6801 153.752 52.6801C153.259 52.6801 152.817 52.7567 152.427 52.9099C152.038 53.061 151.707 53.2825 151.435 53.5742C151.164 53.8638 150.957 54.2164 150.815 54.632C150.674 55.0455 150.604 55.5156 150.604 56.0424C150.604 56.5778 150.674 57.0532 150.815 57.4687C150.957 57.8843 151.167 58.2345 151.444 58.5198C151.724 58.8057 152.069 59.0218 152.48 59.1687C152.892 59.3177 153.366 59.392 153.903 59.392C154.134 59.392 154.362 59.3704 154.586 59.326C154.811 59.2817 155.009 59.2335 155.181 59.1814C155.353 59.1288 155.477 59.09 155.553 59.0645L155.729 59.6441C155.599 59.6984 155.429 59.7532 155.219 59.8075C155.012 59.8624 154.789 59.9073 154.552 59.9433C154.317 59.9788 154.092 59.9965 153.878 59.9965ZM153.513 57.4903C153.794 57.4903 154.022 57.4338 154.196 57.3208C154.37 57.2072 154.497 57.036 154.577 56.8071C154.656 56.5789 154.696 56.2901 154.696 55.9417C154.696 55.589 154.652 55.3141 154.564 55.1168C154.476 54.9195 154.346 54.781 154.174 54.7013C154.002 54.6215 153.79 54.5816 153.538 54.5816C153.299 54.5816 153.094 54.6446 152.924 54.7705C152.756 54.8943 152.627 55.0602 152.537 55.2679C152.449 55.4736 152.405 55.6982 152.405 55.9417C152.405 56.2103 152.44 56.4631 152.511 56.7002C152.583 56.9357 152.699 57.1263 152.861 57.2731C153.023 57.4183 153.24 57.4903 153.513 57.4903ZM158.466 53.4608H159.209V58.6489C159.209 58.947 159.157 59.2052 159.054 59.4236C158.954 59.6419 158.8 59.8109 158.595 59.9305C158.391 60.0502 158.134 60.1101 157.824 60.1101C157.798 60.1101 157.773 60.1101 157.748 60.1101C157.723 60.1101 157.698 60.1101 157.672 60.1101V59.4175C157.698 59.4175 157.72 59.4175 157.742 59.4175C157.763 59.4175 157.786 59.4175 157.811 59.4175C158.037 59.4175 158.203 59.3504 158.308 59.2158C158.413 59.0833 158.466 58.895 158.466 58.6489V53.4608ZM158.831 52.6549C158.686 52.6549 158.561 52.6056 158.456 52.5069C158.353 52.4083 158.302 52.2897 158.302 52.1512C158.302 52.0127 158.353 51.8941 158.456 51.7954C158.561 51.6968 158.686 51.6475 158.831 51.6475C158.975 51.6475 159.1 51.6968 159.202 51.7954C159.307 51.8941 159.36 52.0127 159.36 52.1512C159.36 52.2897 159.307 52.4083 159.202 52.5069C159.1 52.6056 158.975 52.6549 158.831 52.6549ZM163.995 54.5439L163.327 54.7327C163.285 54.6215 163.224 54.5134 163.142 54.4085C163.062 54.3014 162.953 54.2133 162.814 54.144C162.676 54.0748 162.498 54.0401 162.282 54.0401C161.986 54.0401 161.74 54.1083 161.542 54.2448C161.347 54.3791 161.249 54.5501 161.249 54.7579C161.249 54.9426 161.317 55.0885 161.451 55.1955C161.585 55.3026 161.795 55.3918 162.081 55.4631L162.798 55.6394C163.231 55.7443 163.553 55.9049 163.765 56.1211C163.977 56.3352 164.083 56.611 164.083 56.949C164.083 57.226 164.003 57.4737 163.844 57.692C163.686 57.9103 163.466 58.0827 163.183 58.2084C162.899 58.3342 162.57 58.3974 162.194 58.3974C161.7 58.3974 161.293 58.2904 160.969 58.076C160.646 57.8621 160.442 57.5496 160.355 57.1379L161.061 56.9617C161.128 57.2222 161.255 57.4172 161.442 57.5474C161.631 57.6776 161.877 57.7424 162.181 57.7424C162.528 57.7424 162.803 57.6688 163.006 57.5219C163.212 57.3729 163.315 57.1945 163.315 56.9867C163.315 56.8188 163.256 56.6786 163.138 56.565C163.021 56.4498 162.84 56.3633 162.597 56.3069L161.791 56.118C161.348 56.013 161.023 55.8503 160.815 55.63C160.61 55.4075 160.506 55.1294 160.506 54.7957C160.506 54.5229 160.583 54.2815 160.736 54.0716C160.892 53.8617 161.103 53.697 161.369 53.5774C161.638 53.4577 161.942 53.3979 162.282 53.3979C162.76 53.3979 163.136 53.5028 163.409 53.7127C163.684 53.9226 163.879 54.1997 163.995 54.5439ZM165.755 53.4608L166.914 55.4379L168.073 53.4608H168.929L167.367 55.8787L168.929 58.2965H168.073L166.914 56.4204L165.755 58.2965H164.899L166.435 55.8787L164.899 53.4608H165.755ZM169.989 58.2965V53.4608H170.707V54.2164H170.77C170.871 53.9583 171.033 53.7578 171.258 53.6151C171.482 53.4703 171.752 53.3979 172.067 53.3979C172.386 53.3979 172.652 53.4703 172.863 53.6151C173.078 53.7578 173.244 53.9583 173.364 54.2164H173.415C173.538 53.9667 173.724 53.7684 173.971 53.6214C174.219 53.4724 174.516 53.3979 174.862 53.3979C175.295 53.3979 175.649 53.5332 175.923 53.804C176.198 54.0727 176.336 54.4914 176.336 55.0602V58.2965H175.593V55.0602C175.593 54.7034 175.495 54.4483 175.3 54.2951C175.105 54.1419 174.875 54.0653 174.611 54.0653C174.271 54.0653 174.007 54.1681 173.821 54.3739C173.633 54.5774 173.54 54.8356 173.54 55.1483V58.2965H172.785V54.9846C172.785 54.7096 172.695 54.4882 172.517 54.3203C172.338 54.1503 172.109 54.0653 171.828 54.0653C171.634 54.0653 171.454 54.1167 171.286 54.2195C171.12 54.3224 170.986 54.4651 170.883 54.6477C170.783 54.8282 170.732 55.0371 170.732 55.2743V58.2965H169.989ZM179.117 58.4101C178.811 58.4101 178.533 58.3519 178.283 58.2367C178.033 58.1192 177.835 57.9502 177.688 57.7297C177.541 57.5075 177.468 57.2388 177.468 56.9241C177.468 56.647 177.522 56.4221 177.631 56.2502C177.74 56.076 177.887 55.9396 178.069 55.8409C178.252 55.7423 178.453 55.6688 178.673 55.6206C178.896 55.5701 179.119 55.5303 179.344 55.5009C179.638 55.4631 179.876 55.4348 180.059 55.4159C180.243 55.3949 180.378 55.3603 180.461 55.312C180.548 55.2637 180.591 55.1798 180.591 55.0602V55.0349C180.591 54.7243 180.506 54.483 180.336 54.3109C180.168 54.1388 179.913 54.0527 179.57 54.0527C179.216 54.0527 178.938 54.1304 178.737 54.2857C178.535 54.441 178.393 54.6068 178.312 54.7831L177.606 54.5312C177.732 54.2374 177.9 54.0087 178.11 53.8449C178.322 53.6791 178.553 53.5637 178.802 53.4986C179.055 53.4315 179.302 53.3979 179.546 53.3979C179.701 53.3979 179.879 53.4168 180.081 53.4546C180.284 53.4903 180.48 53.5647 180.669 53.6781C180.86 53.7914 181.019 53.9624 181.145 54.1912C181.271 54.42 181.334 54.7264 181.334 55.1105V58.2965H180.591V57.6416H180.553C180.502 57.7469 180.419 57.8588 180.301 57.9785C180.183 58.0982 180.027 58.2001 179.832 58.2838C179.637 58.368 179.399 58.4101 179.117 58.4101ZM179.231 57.7424C179.524 57.7424 179.772 57.6848 179.974 57.5696C180.177 57.4538 180.331 57.3047 180.433 57.1224C180.538 56.9396 180.591 56.7479 180.591 56.5462V55.8661C180.559 55.9039 180.49 55.9385 180.383 55.97C180.278 55.9994 180.156 56.0256 180.018 56.0487C179.881 56.0697 179.748 56.0886 179.618 56.1054C179.49 56.1201 179.386 56.1327 179.306 56.1431C179.113 56.1683 178.933 56.2093 178.765 56.2659C178.599 56.3205 178.464 56.4032 178.362 56.5146C178.261 56.6237 178.211 56.7728 178.211 56.9617C178.211 57.2199 178.306 57.415 178.497 57.5474C178.69 57.6776 178.935 57.7424 179.231 57.7424ZM182.69 58.2965V53.4608H183.433V58.2965H182.69ZM183.067 52.6549C182.923 52.6549 182.798 52.6056 182.693 52.5069C182.59 52.4083 182.539 52.2897 182.539 52.1512C182.539 52.0127 182.59 51.8941 182.693 51.7954C182.798 51.6968 182.923 51.6475 183.067 51.6475C183.212 51.6475 183.336 51.6968 183.439 51.7954C183.544 51.8941 183.596 52.0127 183.596 52.1512C183.596 52.2897 183.544 52.4083 183.439 52.5069C183.336 52.6056 183.212 52.6549 183.067 52.6549ZM185.536 51.8489V58.2965H184.794V51.8489H185.536ZM187.439 58.347C187.283 58.347 187.15 58.2916 187.039 58.1802C186.928 58.0688 186.872 57.9353 186.872 57.7801C186.872 57.625 186.928 57.4914 187.039 57.3806C187.15 57.2693 187.283 57.2133 187.439 57.2133C187.594 57.2133 187.728 57.2693 187.839 57.3806C187.95 57.4914 188.005 57.625 188.005 57.7801C188.005 57.8832 187.979 57.9774 187.927 58.0638C187.876 58.1497 187.808 58.219 187.722 58.2716C187.639 58.3215 187.544 58.347 187.439 58.347ZM191.303 58.3974C190.867 58.3974 190.484 58.2932 190.154 58.0854C189.827 57.8776 189.571 57.5873 189.386 57.2133C189.203 56.8398 189.112 56.4032 189.112 55.9039C189.112 55.4001 189.203 54.9605 189.386 54.5847C189.571 54.2091 189.827 53.9173 190.154 53.7096C190.484 53.5018 190.867 53.3979 191.303 53.3979C191.74 53.3979 192.122 53.5018 192.449 53.7096C192.779 53.9173 193.035 54.2091 193.218 54.5847C193.402 54.9605 193.495 55.4001 193.495 55.9039C193.495 56.4032 193.402 56.8398 193.218 57.2133C193.035 57.5873 192.779 57.8776 192.449 58.0854C192.122 58.2932 191.74 58.3974 191.303 58.3974ZM191.303 57.7297C191.635 57.7297 191.908 57.6449 192.122 57.4748C192.336 57.3047 192.495 57.0814 192.597 56.8044C192.7 56.5273 192.752 56.2271 192.752 55.9039C192.752 55.5807 192.7 55.2795 192.597 55.0003C192.495 54.7212 192.336 54.4956 192.122 54.3234C191.908 54.1513 191.635 54.0653 191.303 54.0653C190.972 54.0653 190.699 54.1513 190.485 54.3234C190.27 54.4956 190.112 54.7212 190.009 55.0003C189.906 55.2795 189.855 55.5807 189.855 55.9039C189.855 56.2271 189.906 56.5273 190.009 56.8044C190.112 57.0814 190.27 57.3047 190.485 57.4748C190.699 57.6449 190.972 57.7297 191.303 57.7297ZM194.629 58.2965V53.4608H195.346V54.1912H195.397C195.485 53.952 195.645 53.7578 195.876 53.6088C196.106 53.4598 196.367 53.3853 196.656 53.3853C196.711 53.3853 196.779 53.3864 196.861 53.3884C196.943 53.3905 197.004 53.3937 197.046 53.3979V54.1534C197.022 54.1472 196.964 54.1377 196.874 54.1251C196.785 54.1104 196.692 54.1031 196.593 54.1031C196.358 54.1031 196.148 54.1524 195.964 54.2511C195.781 54.3476 195.636 54.4819 195.529 54.654C195.424 54.8241 195.371 55.0182 195.371 55.2365V58.2965H194.629ZM199.732 60.2109C199.373 60.2109 199.064 60.1644 198.806 60.0724C198.548 59.9821 198.333 59.8624 198.161 59.7133C197.991 59.5665 197.855 59.4092 197.755 59.2413L198.347 58.8257C198.414 58.9138 198.499 59.0141 198.602 59.1277C198.705 59.2429 198.845 59.3427 199.023 59.4269C199.204 59.5128 199.44 59.556 199.732 59.556C200.122 59.556 200.445 59.4612 200.698 59.2723C200.952 59.0833 201.08 58.7875 201.08 58.3846V57.4022H201.016C200.962 57.4903 200.884 57.5995 200.783 57.7297C200.685 57.8577 200.542 57.9724 200.355 58.0732C200.17 58.1719 199.921 58.2212 199.606 58.2212C199.216 58.2212 198.865 58.1286 198.555 57.9441C198.246 57.7591 198.002 57.4903 197.821 57.1379C197.643 56.7855 197.553 56.3572 197.553 55.8535C197.553 55.3582 197.64 54.9269 197.815 54.5596C197.989 54.1902 198.231 53.9048 198.542 53.7032C198.853 53.4997 199.211 53.3979 199.619 53.3979C199.933 53.3979 200.183 53.4504 200.368 53.5553C200.555 53.6581 200.697 53.7757 200.796 53.9079C200.897 54.038 200.974 54.1451 201.029 54.229H201.105V53.4608H201.822V58.4351C201.822 58.8506 201.728 59.1886 201.539 59.449C201.352 59.7111 201.1 59.9034 200.783 60.0247C200.468 60.1489 200.118 60.2109 199.732 60.2109ZM199.707 57.5535C200.005 57.5535 200.257 57.4854 200.462 57.349C200.668 57.2127 200.824 57.016 200.932 56.76C201.039 56.5041 201.092 56.1977 201.092 55.8409C201.092 55.4925 201.04 55.185 200.934 54.9185C200.83 54.6519 200.675 54.4431 200.469 54.292C200.263 54.1409 200.009 54.0653 199.707 54.0653C199.392 54.0653 199.13 54.1451 198.92 54.3046C198.712 54.4641 198.556 54.6782 198.451 54.9468C198.348 55.2155 198.296 55.5135 198.296 55.8409C198.296 56.1767 198.349 56.4736 198.454 56.7318C198.561 56.9878 198.718 57.1895 198.926 57.3363C199.136 57.4809 199.396 57.5535 199.707 57.5535ZM207.452 56.0298L203.396 58.0949V57.2892L206.507 55.7906L206.482 55.8409V55.715L206.507 55.7653L203.396 54.2668V53.4608L207.452 55.5261V56.0298Z" fill="#A1A1AA"/>
<mask id="mask2_4515_1315" style="mask-type:luminance" maskUnits="userSpaceOnUse" x="329" y="49" width="18" height="18">
<path d="M346.86 49.1543H329.129V66.8852H346.86V49.1543Z" fill="white"/>
</mask>
<g mask="url(#mask2_4515_1315)">
<path d="M338.503 51.156L340.112 54.9903C340.151 55.0833 340.214 55.164 340.296 55.2236C340.377 55.2831 340.474 55.3194 340.574 55.3283L344.692 55.6843C344.802 55.6931 344.906 55.734 344.992 55.8021C345.078 55.8701 345.141 55.9621 345.175 56.0664C345.209 56.1708 345.211 56.2828 345.181 56.388C345.151 56.4938 345.09 56.588 345.007 56.6589L341.882 59.3845C341.806 59.451 341.75 59.5369 341.719 59.6333C341.688 59.7291 341.684 59.8322 341.706 59.9308L342.643 63.9851C342.667 64.0909 342.661 64.2018 342.623 64.3037C342.585 64.4057 342.518 64.4943 342.43 64.5586C342.343 64.6229 342.238 64.66 342.129 64.665C342.02 64.67 341.913 64.6428 341.819 64.5874L338.28 62.4403C338.194 62.3877 338.096 62.36 337.995 62.36C337.894 62.36 337.795 62.3877 337.709 62.4403L334.17 64.5874C334.077 64.6428 333.969 64.67 333.86 64.665C333.751 64.66 333.647 64.6229 333.559 64.5586C333.471 64.4943 333.405 64.4057 333.366 64.3037C333.329 64.2018 333.322 64.0909 333.346 63.9851L334.283 59.9308C334.306 59.8322 334.301 59.7291 334.271 59.6333C334.24 59.5369 334.183 59.451 334.107 59.3845L330.983 56.6589C330.899 56.588 330.839 56.4938 330.809 56.388C330.779 56.2828 330.78 56.1708 330.814 56.0664C330.848 55.9621 330.912 55.8701 330.998 55.8021C331.084 55.734 331.188 55.6931 331.297 55.6843L335.415 55.3283C335.516 55.3194 335.612 55.2831 335.694 55.2236C335.775 55.164 335.838 55.0833 335.877 54.9903L337.486 51.156C337.529 51.0569 337.6 50.9725 337.69 50.9132C337.781 50.8538 337.887 50.8223 337.995 50.8223C338.103 50.8223 338.209 50.8538 338.299 50.9132C338.389 50.9725 338.46 51.0569 338.503 51.156Z" stroke="#A1A1AA" stroke-width="2" stroke-linecap="round" stroke-linejoin="round"/>
</g>
<mask id="mask3_4515_1315" style="mask-type:luminance" maskUnits="userSpaceOnUse" x="360" y="49" width="18" height="18">
<path d="M377.889 49.1543H360.158V66.8852H377.889V49.1543Z" fill="white"/>
</mask>
<g mask="url(#mask3_4515_1315)">
<path d="M373.457 64.6689V54.6953H363.483" stroke="#A1A1AA" stroke-width="2" stroke-linecap="round" stroke-linejoin="round"/>
<path d="M366.807 58.0202L363.483 54.6956L366.807 51.3711" stroke="#A1A1AA" stroke-width="2" stroke-linecap="round" stroke-linejoin="round"/>
<path d="M373.457 64.6689V54.6953H363.483" stroke="#A1A1AA" stroke-width="2" stroke-linecap="round" stroke-linejoin="round"/>
</g>
<mask id="mask4_4515_1315" style="mask-type:luminance" maskUnits="userSpaceOnUse" x="391" y="49" width="18" height="18">
<path d="M408.918 49.1543H391.187V66.8852H408.918V49.1543Z" fill="white"/>
</mask>
<g mask="url(#mask4_4515_1315)">
<path d="M401.992 58.0193C401.992 58.4027 401.878 58.7778 401.665 59.0964C401.452 59.4156 401.149 59.6644 400.795 59.8112C400.441 59.9575 400.051 59.9963 399.674 59.9215C399.298 59.8467 398.953 59.6616 398.681 59.3906C398.41 59.1191 398.225 58.7739 398.151 58.3977C398.076 58.0215 398.115 57.6314 398.261 57.2773C398.408 56.9227 398.656 56.6196 398.976 56.4069C399.294 56.1937 399.669 56.08 400.053 56.08C400.567 56.08 401.06 56.2843 401.424 56.6479C401.788 57.0119 401.992 57.5051 401.992 58.0193ZM400.053 54.4177C400.436 54.4177 400.811 54.3039 401.13 54.0908C401.449 53.8778 401.698 53.5749 401.845 53.2205C401.991 52.8662 402.03 52.4762 401.955 52.1C401.88 51.7239 401.695 51.3783 401.424 51.1071C401.153 50.8358 400.807 50.6512 400.431 50.5763C400.055 50.5015 399.665 50.5399 399.311 50.6867C398.956 50.8334 398.653 51.082 398.44 51.4009C398.227 51.7199 398.113 52.0948 398.113 52.4784C398.113 52.9927 398.318 53.486 398.681 53.8497C399.045 54.2134 399.539 54.4177 400.053 54.4177ZM400.053 61.6209C399.669 61.6209 399.294 61.7344 398.976 61.9478C398.656 62.1605 398.408 62.4636 398.261 62.8182C398.115 63.1723 398.076 63.5624 398.151 63.9386C398.225 64.3148 398.41 64.66 398.681 64.9315C398.953 65.2025 399.298 65.3876 399.674 65.4624C400.051 65.5372 400.441 65.4984 400.795 65.3521C401.149 65.2053 401.452 64.9565 401.665 64.6373C401.878 64.3187 401.992 63.9436 401.992 63.5602C401.992 63.046 401.788 62.5528 401.424 62.1888C401.06 61.8253 400.567 61.6209 400.053 61.6209Z" fill="#A1A1AA"/>
</g>
<path d="M67.4055 71.4185V72.1266H64.5857V71.4185H67.4055ZM65.4074 70.1152H66.2435V75.3004C66.2435 75.5364 66.2779 75.7132 66.346 75.8312C66.417 75.947 66.5067 76.0252 66.6153 76.065C66.7261 76.1027 66.8431 76.1216 66.9661 76.1216C67.058 76.1216 67.134 76.1171 67.1927 76.1077C67.252 76.0961 67.2991 76.0867 67.3345 76.0795L67.5046 76.8302C67.4476 76.8513 67.3689 76.8729 67.2669 76.894C67.1655 76.9178 67.037 76.9294 66.8813 76.9294C66.6447 76.9294 66.4136 76.8785 66.187 76.7771C65.9626 76.6757 65.7759 76.5211 65.6274 76.3133C65.4811 76.1055 65.4074 75.8434 65.4074 75.527V70.1152ZM70.8142 76.9721C70.3233 76.9721 69.8922 76.8552 69.5215 76.6214C69.1531 76.3875 68.8649 76.0606 68.6571 75.6401C68.4516 75.2201 68.3491 74.7286 68.3491 74.1667C68.3491 73.5999 68.4516 73.1057 68.6571 72.6829C68.8649 72.2601 69.1531 71.9321 69.5215 71.6983C69.8922 71.4644 70.3233 71.3475 70.8142 71.3475C71.3051 71.3475 71.7351 71.4644 72.1036 71.6983C72.4743 71.9321 72.7624 72.2601 72.9674 72.6829C73.1752 73.1057 73.2794 73.5999 73.2794 74.1667C73.2794 74.7286 73.1752 75.2201 72.9674 75.6401C72.7624 76.0606 72.4743 76.3875 72.1036 76.6214C71.7351 76.8552 71.3051 76.9721 70.8142 76.9721ZM70.8142 76.2207C71.1871 76.2207 71.4941 76.1254 71.7351 75.9343C71.9761 75.7431 72.154 75.4916 72.2698 75.1796C72.3856 74.8682 72.4432 74.5302 72.4432 74.1667C72.4432 73.8033 72.3856 73.4642 72.2698 73.1505C72.154 72.8364 71.9761 72.5826 71.7351 72.3887C71.4941 72.1953 71.1871 72.0983 70.8142 72.0983C70.4413 72.0983 70.1343 72.1953 69.8933 72.3887C69.6523 72.5826 69.4744 72.8364 69.3586 73.1505C69.2428 73.4642 69.1852 73.8033 69.1852 74.1667C69.1852 74.5302 69.2428 74.8682 69.3586 75.1796C69.4744 75.4916 69.6523 75.7431 69.8933 75.9343C70.1343 76.1254 70.4413 76.2207 70.8142 76.2207ZM77.3602 76.8585V71.4185H78.1675V72.2684H78.2385C78.3521 71.9781 78.5349 71.7526 78.7876 71.5919C79.0402 71.429 79.3439 71.3475 79.6979 71.3475C80.0564 71.3475 80.3556 71.429 80.5939 71.5919C80.8349 71.7526 81.0222 71.9781 81.1569 72.2684H81.2139C81.353 71.9875 81.5619 71.7642 81.8406 71.5991C82.1193 71.4312 82.4534 71.3475 82.8429 71.3475C83.3294 71.3475 83.7273 71.4999 84.0365 71.8047C84.3456 72.1066 84.5002 72.5776 84.5002 73.2176V76.8585H83.6647V73.2176C83.6647 72.8164 83.555 72.5294 83.335 72.3571C83.1156 72.1848 82.8568 72.0983 82.5598 72.0983C82.1769 72.0983 81.8805 72.2141 81.6705 72.4457C81.4605 72.6746 81.3552 72.9649 81.3552 73.3168V76.8585H80.5052V73.1328C80.5052 72.8231 80.405 72.5743 80.2044 72.3853C80.0038 72.1942 79.745 72.0983 79.4287 72.0983C79.2115 72.0983 79.0081 72.1559 78.8197 72.2718C78.633 72.3876 78.4817 72.5482 78.3659 72.7538C78.2529 72.9566 78.1964 73.1915 78.1964 73.4586V76.8585H77.3602ZM88.3096 76.9721C87.7854 76.9721 87.3333 76.8563 86.9532 76.6247C86.5753 76.3909 86.2838 76.065 86.0783 75.6473C85.8755 75.2267 85.7735 74.738 85.7735 74.1811C85.7735 73.6237 85.8755 73.1328 86.0783 72.7078C86.2838 72.2801 86.5692 71.9471 86.9355 71.7088C87.3039 71.4678 87.7334 71.3475 88.2248 71.3475C88.508 71.3475 88.7878 71.3946 89.0643 71.4894C89.3402 71.5836 89.5918 71.7371 89.8184 71.9498C90.045 72.1598 90.2256 72.4385 90.3603 72.7854C90.4949 73.1328 90.562 73.56 90.562 74.0676V74.4216H86.3686V73.6991H89.712C89.712 73.3921 89.6505 73.1184 89.528 72.8774C89.4078 72.6369 89.2349 72.4468 89.0111 72.3072C88.7889 72.1681 88.5268 72.0983 88.2248 72.0983C87.8918 72.0983 87.6037 72.1809 87.3604 72.3465C87.1194 72.5095 86.9343 72.7217 86.8041 72.9838C86.6745 73.2458 86.6097 73.5268 86.6097 73.8265V74.3086C86.6097 74.7192 86.6806 75.0677 86.8219 75.353C86.9659 75.6367 87.1654 75.8528 87.4208 76.0013C87.6757 76.1476 87.9722 76.2207 88.3096 76.2207C88.529 76.2207 88.7274 76.1903 88.9047 76.1288C89.0842 76.065 89.2388 75.9709 89.3685 75.8456C89.4987 75.7182 89.599 75.5597 89.6699 75.3708L90.4772 75.5974C90.3924 75.8717 90.2495 76.1121 90.0489 76.3199C89.8478 76.5255 89.6001 76.6862 89.3047 76.802C89.01 76.915 88.6781 76.9721 88.3096 76.9721Z" fill="#A1A1AA"/>
<mask id="mask5_4515_1315" style="mask-type:luminance" maskUnits="userSpaceOnUse" x="95" y="68" width="10" height="10">
<path d="M104.723 68.5469H95.8574V77.4123H104.723V68.5469Z" fill="white"/>
</mask>
<g mask="url(#mask5_4515_1315)">
<path d="M103.317 71.7659C103.296 71.715 103.26 71.6717 103.215 71.6413C103.169 71.6108 103.115 71.5947 103.061 71.5947H97.5197C97.4648 71.5947 97.4111 71.6108 97.3656 71.6413C97.3202 71.6717 97.2847 71.715 97.2637 71.7659C97.2426 71.8164 97.2371 71.8723 97.2476 71.9261C97.2587 71.9798 97.2847 72.0291 97.3235 72.0679L100.094 74.8384C100.12 74.8639 100.151 74.8844 100.184 74.8982C100.218 74.9121 100.254 74.9193 100.29 74.9193C100.327 74.9193 100.363 74.9121 100.396 74.8982C100.43 74.8844 100.46 74.8639 100.486 74.8384L103.257 72.0679C103.296 72.0291 103.322 71.9798 103.332 71.9261C103.343 71.8723 103.338 71.8164 103.317 71.7659Z" fill="#4A4A4A"/>
</g>
<path d="M397.836 95.1436H22.1636C16.0433 95.1436 11.0818 100.105 11.0818 106.225V118.415C11.0818 124.536 16.0433 129.497 22.1636 129.497H397.836C403.957 129.497 408.918 124.536 408.918 118.415V106.225C408.918 100.105 403.957 95.1436 397.836 95.1436Z" fill="white"/>
<path d="M29.9004 116.199L27.917 108.945H28.8095L30.3254 114.853H30.3963L31.9405 108.945H32.9322L34.4764 114.853H34.5472L36.0631 108.945H36.9556L34.9722 116.199H34.0655L32.4646 110.419H32.4079L30.8071 116.199H29.9004ZM39.7111 116.313C39.1869 116.313 38.7348 116.197 38.3546 115.965C37.9768 115.731 37.6852 115.406 37.4797 114.988C37.2767 114.567 37.1752 114.078 37.1752 113.522C37.1752 112.964 37.2767 112.473 37.4797 112.048C37.6852 111.621 37.9709 111.288 38.3369 111.049C38.7052 110.808 39.135 110.688 39.6261 110.688C39.9094 110.688 40.1892 110.735 40.4655 110.83C40.7417 110.924 40.9932 111.078 41.2199 111.29C41.4465 111.5 41.6272 111.779 41.7618 112.126C41.8963 112.473 41.9637 112.9 41.9637 113.408V113.762H37.7702V113.04H41.1136C41.1136 112.733 41.0522 112.459 40.9295 112.218C40.8091 111.977 40.6367 111.787 40.4124 111.648C40.1904 111.509 39.9283 111.439 39.6261 111.439C39.2932 111.439 39.0051 111.521 38.7619 111.687C38.5211 111.85 38.3357 112.062 38.2058 112.324C38.076 112.586 38.0111 112.867 38.0111 113.167V113.649C38.0111 114.06 38.0819 114.408 38.2236 114.694C38.3676 114.977 38.5671 115.193 38.8221 115.342C39.0771 115.488 39.3735 115.561 39.7111 115.561C39.9307 115.561 40.129 115.531 40.3061 115.469C40.4856 115.406 40.6402 115.311 40.7701 115.186C40.8999 115.059 41.0003 114.9 41.0711 114.711L41.8787 114.938C41.7937 115.212 41.6508 115.453 41.4501 115.66C41.2494 115.866 41.0015 116.027 40.7063 116.142C40.4112 116.255 40.0794 116.313 39.7111 116.313ZM44.071 108.945V116.199H43.2351V108.945H44.071ZM47.812 116.313C47.302 116.313 46.8628 116.192 46.4945 115.951C46.1261 115.71 45.8428 115.378 45.6444 114.956C45.4461 114.533 45.3469 114.05 45.3469 113.507C45.3469 112.955 45.4484 112.467 45.6515 112.044C45.8569 111.619 46.1427 111.288 46.5086 111.049C46.8769 110.808 47.3067 110.688 47.7978 110.688C48.1803 110.688 48.5251 110.759 48.832 110.901C49.139 111.042 49.3905 111.24 49.5864 111.495C49.7824 111.751 49.904 112.048 49.9512 112.388H49.1154C49.0516 112.14 48.91 111.92 48.6904 111.729C48.4731 111.536 48.1803 111.439 47.812 111.439C47.4862 111.439 47.2004 111.524 46.9549 111.694C46.7117 111.862 46.5216 112.099 46.3846 112.406C46.25 112.71 46.1828 113.068 46.1828 113.479C46.1828 113.899 46.2489 114.265 46.3811 114.577C46.5157 114.889 46.7046 115.131 46.9478 115.303C47.1934 115.475 47.4814 115.561 47.812 115.561C48.0292 115.561 48.2264 115.524 48.4035 115.448C48.5805 115.373 48.7305 115.264 48.8533 115.122C48.9761 114.981 49.0634 114.81 49.1154 114.612H49.9512C49.904 114.933 49.7871 115.223 49.6006 115.48C49.4164 115.735 49.172 115.938 48.8675 116.089C48.5652 116.238 48.2134 116.313 47.812 116.313ZM53.3832 116.313C52.8921 116.313 52.4612 116.196 52.0904 115.962C51.7221 115.728 51.4341 115.401 51.2263 114.981C51.0208 114.561 50.9181 114.069 50.9181 113.507C50.9181 112.94 51.0208 112.446 51.2263 112.023C51.4341 111.601 51.7221 111.273 52.0904 111.039C52.4612 110.805 52.8921 110.688 53.3832 110.688C53.8743 110.688 54.3041 110.805 54.6724 111.039C55.0431 111.273 55.3312 111.601 55.5364 112.023C55.7442 112.446 55.8484 112.94 55.8484 113.507C55.8484 114.069 55.7442 114.561 55.5364 114.981C55.3312 115.401 55.0431 115.728 54.6724 115.962C54.3041 116.196 53.8743 116.313 53.3832 116.313ZM53.3832 115.561C53.7562 115.561 54.0632 115.466 54.3041 115.275C54.5449 115.084 54.7232 114.832 54.8389 114.52C54.9546 114.209 55.0124 113.871 55.0124 113.507C55.0124 113.144 54.9546 112.805 54.8389 112.491C54.7232 112.177 54.5449 111.923 54.3041 111.729C54.0632 111.536 53.7562 111.439 53.3832 111.439C53.0101 111.439 52.7032 111.536 52.4623 111.729C52.2215 111.923 52.0432 112.177 51.9275 112.491C51.8118 112.805 51.754 113.144 51.754 113.507C51.754 113.871 51.8118 114.209 51.9275 114.52C52.0432 114.832 52.2215 115.084 52.4623 115.275C52.7032 115.466 53.0101 115.561 53.3832 115.561ZM57.1244 116.199V110.759H57.9318V111.609H58.0027C58.1157 111.319 58.2991 111.093 58.5518 110.932C58.8039 110.769 59.1075 110.688 59.4616 110.688C59.8207 110.688 60.1193 110.769 60.3576 110.932C60.5986 111.093 60.7864 111.319 60.9211 111.609H60.9776C61.1167 111.328 61.3261 111.105 61.6043 110.94C61.883 110.772 62.2171 110.688 62.6066 110.688C63.0931 110.688 63.4909 110.84 63.8007 111.145C64.1099 111.447 64.2645 111.918 64.2645 112.558V116.199H63.4283V112.558C63.4283 112.157 63.3186 111.87 63.0992 111.698C62.8798 111.525 62.621 111.439 62.3235 111.439C61.9411 111.439 61.6447 111.555 61.4347 111.786C61.2242 112.015 61.1194 112.305 61.1194 112.657V116.199H60.2695V112.473C60.2695 112.164 60.1692 111.915 59.968 111.726C59.7675 111.535 59.5093 111.439 59.1923 111.439C58.9751 111.439 58.7723 111.496 58.5834 111.612C58.3966 111.728 58.2459 111.889 58.1301 112.094C58.0165 112.297 57.96 112.532 57.96 112.799V116.199H57.1244ZM68.0738 116.313C67.5496 116.313 67.097 116.197 66.7168 115.965C66.3395 115.731 66.0475 115.406 65.8425 114.988C65.6391 114.567 65.5377 114.078 65.5377 113.522C65.5377 112.964 65.6391 112.473 65.8425 112.048C66.0475 111.621 66.3334 111.288 66.6991 111.049C67.0676 110.808 67.4976 110.688 67.9885 110.688C68.2716 110.688 68.5514 110.735 68.8279 110.83C69.1044 110.924 69.3554 111.078 69.5826 111.29C69.8092 111.5 69.9899 111.779 70.1245 112.126C70.2586 112.473 70.3262 112.9 70.3262 113.408V113.762H66.1328V113.04H69.4762C69.4762 112.733 69.4147 112.459 69.2917 112.218C69.1715 111.977 68.9991 111.787 68.7747 111.648C68.5531 111.509 68.291 111.439 67.9885 111.439C67.6555 111.439 67.3673 111.521 67.1241 111.687C66.8836 111.85 66.698 112.062 66.5684 112.324C66.4387 112.586 66.3733 112.867 66.3733 113.167V113.649C66.3733 114.06 66.4442 114.408 66.5861 114.694C66.7301 114.977 66.9296 115.193 67.1845 115.342C67.4394 115.488 67.7358 115.561 68.0738 115.561C68.2932 115.561 68.4916 115.531 68.6684 115.469C68.8479 115.406 69.0025 115.311 69.1327 115.186C69.2623 115.059 69.3626 114.9 69.4335 114.711L70.2409 114.938C70.1561 115.212 70.0131 115.453 69.8125 115.66C69.612 115.866 69.3637 116.027 69.069 116.142C68.7736 116.255 68.4417 116.313 68.0738 116.313ZM76.7686 110.759V111.467H73.9494V110.759H76.7686ZM74.7711 109.456H75.6067V114.641C75.6067 114.877 75.641 115.054 75.7097 115.172C75.7806 115.287 75.8704 115.366 75.979 115.406C76.0898 115.443 76.2067 115.462 76.3292 115.462C76.4217 115.462 76.4971 115.458 76.5558 115.448C76.6151 115.437 76.6622 115.427 76.6977 115.42L76.8678 116.171C76.8113 116.192 76.732 116.213 76.6306 116.234C76.5287 116.258 76.4001 116.27 76.2444 116.27C76.0084 116.27 75.7768 116.219 75.5502 116.118C75.3257 116.016 75.1396 115.862 74.9905 115.654C74.8442 115.446 74.7711 115.184 74.7711 114.867V109.456ZM80.1774 116.313C79.6864 116.313 79.2553 116.196 78.8847 115.962C78.5162 115.728 78.2286 115.401 78.0208 114.981C77.8153 114.561 77.7122 114.069 77.7122 113.507C77.7122 112.94 77.8153 112.446 78.0208 112.023C78.2286 111.601 78.5162 111.273 78.8847 111.039C79.2553 110.805 79.6864 110.688 80.1774 110.688C80.6688 110.688 81.0982 110.805 81.4667 111.039C81.8374 111.273 82.1255 111.601 82.3311 112.023C82.5389 112.446 82.6425 112.94 82.6425 113.507C82.6425 114.069 82.5389 114.561 82.3311 114.981C82.1255 115.401 81.8374 115.728 81.4667 115.962C81.0982 116.196 80.6688 116.313 80.1774 116.313ZM80.1774 115.561C80.5508 115.561 80.8578 115.466 81.0983 115.275C81.3393 115.084 81.5177 114.832 81.6329 114.52C81.7487 114.209 81.8069 113.871 81.8069 113.507C81.8069 113.144 81.7487 112.805 81.6329 112.491C81.5177 112.177 81.3393 111.923 81.0983 111.729C80.8578 111.536 80.5508 111.439 80.1774 111.439C79.8045 111.439 79.4975 111.536 79.2565 111.729C79.016 111.923 78.8376 112.177 78.7218 112.491C78.606 112.805 78.5483 113.144 78.5483 113.507C78.5483 113.871 78.606 114.209 78.7218 114.52C78.8376 114.832 79.016 115.084 79.2565 115.275C79.4975 115.466 79.8045 115.561 80.1774 115.561ZM89.6135 108.945H90.4923V114.131C90.4923 114.593 90.407 114.987 90.2369 115.31C90.0673 115.633 89.8274 115.879 89.5182 116.047C89.209 116.214 88.8439 116.298 88.4239 116.298C88.0271 116.298 87.6742 116.226 87.3644 116.082C87.0553 115.936 86.812 115.728 86.6353 115.459C86.458 115.189 86.3693 114.87 86.3693 114.499H87.2337C87.2337 114.705 87.2847 114.884 87.3861 115.037C87.4897 115.188 87.6315 115.306 87.811 115.392C87.9906 115.476 88.1945 115.519 88.4239 115.519C88.6765 115.519 88.891 115.466 89.0683 115.36C89.2456 115.253 89.3797 115.097 89.4722 114.892C89.5664 114.684 89.6135 114.43 89.6135 114.131V108.945ZM96.2194 110.759C96.1767 110.4 96.0044 110.121 95.7018 109.923C95.3999 109.724 95.0292 109.625 94.5898 109.625C94.269 109.625 93.988 109.677 93.747 109.781C93.5082 109.885 93.322 110.028 93.1874 110.21C93.0549 110.392 92.989 110.598 92.989 110.83C92.989 111.023 93.035 111.19 93.127 111.329C93.2217 111.466 93.342 111.581 93.4883 111.673C93.6345 111.762 93.788 111.837 93.9487 111.896C94.1094 111.952 94.2568 111.998 94.3914 112.034L95.1284 112.232C95.3173 112.282 95.5273 112.35 95.7589 112.438C95.9922 112.525 96.2155 112.644 96.4282 112.795C96.6427 112.944 96.82 113.135 96.9591 113.369C97.0987 113.603 97.1685 113.89 97.1685 114.23C97.1685 114.621 97.0655 114.976 96.8599 115.292C96.6571 115.609 96.3595 115.86 95.9678 116.047C95.5783 116.233 95.1045 116.326 94.5471 116.326C94.0279 116.326 93.578 116.243 93.1979 116.075C92.82 115.908 92.5225 115.674 92.3053 115.374C92.0908 115.074 91.9689 114.726 91.9407 114.329H92.8472C92.871 114.603 92.963 114.829 93.1237 115.009C93.2866 115.186 93.4921 115.319 93.7398 115.406C93.9902 115.491 94.2595 115.533 94.5471 115.533C94.8829 115.533 95.1838 115.479 95.4503 115.37C95.7174 115.259 95.9285 115.106 96.0847 114.91C96.2404 114.711 96.318 114.48 96.318 114.215C96.318 113.975 96.2509 113.779 96.1163 113.627C95.9817 113.477 95.8049 113.354 95.5849 113.26C95.3655 113.165 95.1283 113.082 94.8735 113.011L93.9808 112.756C93.414 112.594 92.9652 112.361 92.635 112.059C92.3042 111.756 92.139 111.361 92.139 110.872C92.139 110.466 92.2487 110.112 92.4682 109.81C92.6904 109.505 92.9879 109.269 93.3608 109.101C93.7365 108.932 94.1554 108.846 94.618 108.846C95.0857 108.846 95.5013 108.93 95.8647 109.098C96.2288 109.263 96.5163 109.489 96.7291 109.778C96.9441 110.066 97.0571 110.393 97.0693 110.759H96.2194ZM99.0375 108.945L100.908 111.963H100.964L102.834 108.945H103.869L101.587 112.572L103.869 116.199H102.834L100.964 113.238H100.908L99.0375 116.199H98.0035L100.341 112.572L98.0035 108.945H99.0375ZM107.816 108.945H108.865L111.33 114.967H111.415L113.88 108.945H114.929V116.199H114.107V110.688H114.036L111.769 116.199H110.976L108.709 110.688H108.638V116.199H107.816V108.945ZM118.177 116.326C117.832 116.326 117.52 116.262 117.239 116.132C116.958 115.999 116.735 115.809 116.569 115.561C116.404 115.311 116.321 115.009 116.321 114.655C116.321 114.343 116.383 114.091 116.506 113.897C116.628 113.701 116.792 113.547 116.998 113.436C117.203 113.325 117.43 113.243 117.678 113.189C117.928 113.132 118.18 113.087 118.432 113.054C118.762 113.011 119.031 112.98 119.236 112.958C119.444 112.935 119.595 112.895 119.689 112.841C119.786 112.787 119.835 112.693 119.835 112.558V112.53C119.835 112.18 119.739 111.909 119.548 111.715C119.359 111.521 119.072 111.425 118.687 111.425C118.288 111.425 117.975 111.512 117.749 111.687C117.522 111.862 117.362 112.048 117.27 112.246L116.477 111.963C116.619 111.633 116.808 111.375 117.044 111.191C117.283 111.004 117.542 110.875 117.823 110.802C118.106 110.726 118.385 110.688 118.659 110.688C118.833 110.688 119.034 110.709 119.261 110.752C119.49 110.792 119.711 110.876 119.923 111.003C120.138 111.131 120.316 111.323 120.458 111.581C120.6 111.838 120.671 112.182 120.671 112.615V116.199H119.835V115.462H119.792C119.735 115.581 119.641 115.707 119.509 115.841C119.376 115.976 119.201 116.09 118.981 116.185C118.761 116.279 118.494 116.326 118.177 116.326ZM118.305 115.576C118.635 115.576 118.914 115.511 119.14 115.381C119.37 115.251 119.542 115.084 119.657 114.878C119.776 114.672 119.835 114.456 119.835 114.23V113.465C119.799 113.507 119.722 113.546 119.601 113.581C119.483 113.615 119.346 113.644 119.19 113.67C119.037 113.694 118.887 113.715 118.74 113.734C118.596 113.75 118.479 113.765 118.39 113.776C118.172 113.805 117.97 113.851 117.781 113.914C117.594 113.976 117.443 114.069 117.327 114.194C117.214 114.317 117.157 114.485 117.157 114.697C117.157 114.988 117.265 115.207 117.479 115.356C117.696 115.502 117.972 115.576 118.305 115.576ZM122.196 116.199V110.759H123.032V116.199H122.196ZM122.621 109.852C122.458 109.852 122.318 109.796 122.2 109.686C122.084 109.575 122.026 109.441 122.026 109.286C122.026 109.129 122.084 108.996 122.2 108.885C122.318 108.774 122.458 108.719 122.621 108.719C122.784 108.719 122.923 108.774 123.039 108.885C123.157 108.996 123.216 109.129 123.216 109.286C123.216 109.441 123.157 109.575 123.039 109.686C122.923 109.796 122.784 109.852 122.621 109.852ZM125.399 108.945V116.199H124.563V108.945H125.399ZM128.035 108.945L127.964 114.159H127.142L127.072 108.945H128.035ZM127.553 116.255C127.379 116.255 127.228 116.193 127.103 116.068C126.978 115.943 126.915 115.793 126.915 115.618C126.915 115.443 126.978 115.294 127.103 115.168C127.228 115.043 127.379 114.981 127.553 114.981C127.728 114.981 127.878 115.043 128.003 115.168C128.128 115.294 128.191 115.443 128.191 115.618C128.191 115.734 128.161 115.84 128.102 115.937C128.045 116.034 127.969 116.111 127.872 116.171C127.778 116.227 127.671 116.255 127.553 116.255Z" fill="black"/>
</g>
<defs>
<clipPath id="clip0_4515_1315">
<rect width="420" height="139.631" fill="white" transform="translate(0 0.948242)"/>
</clipPath>
</defs>
</svg>
