<svg width="420" height="141" viewBox="0 0 420 141" fill="none" xmlns="http://www.w3.org/2000/svg">
<g clip-path="url(#clip0_2_21594)">
<path d="M408.918 0.94812H11.0818C4.96149 0.94812 0 5.90961 0 12.0299V129.497C0 135.617 4.96149 140.579 11.0818 140.579H408.918C415.039 140.579 420 135.617 420 129.497V12.0299C420 5.90961 415.039 0.94812 408.918 0.94812Z" fill="#18181B"/>
<path d="M44.667 15.9337H46.0082L48.6905 20.4483H48.8038L51.4861 15.9337H52.8272L49.3327 21.6194V25.6051H48.1616V21.6194L44.667 15.9337ZM56.1114 25.7562C55.457 25.7562 54.8822 25.6004 54.388 25.2887C53.8969 24.977 53.5128 24.5409 53.2357 23.9806C52.9618 23.4202 52.8249 22.7654 52.8249 22.0161C52.8249 21.2605 52.9618 20.6009 53.2357 20.0374C53.5128 19.4739 53.8969 19.0363 54.388 18.7246C54.8822 18.4129 55.457 18.2571 56.1114 18.2571C56.7663 18.2571 57.3392 18.4129 57.8307 18.7246C58.325 19.0363 58.709 19.4739 58.9827 20.0374C59.2597 20.6009 59.3982 21.2605 59.3982 22.0161C59.3982 22.7654 59.2597 23.4202 58.9827 23.9806C58.709 24.5409 58.325 24.977 57.8307 25.2887C57.3392 25.6004 56.7663 25.7562 56.1114 25.7562ZM56.1114 24.755C56.609 24.755 57.0184 24.6275 57.3392 24.3725C57.6606 24.1175 57.8983 23.7822 58.0524 23.3667C58.207 22.9511 58.284 22.5009 58.284 22.0161C58.284 21.5312 58.207 21.0795 58.0524 20.6608C57.8983 20.242 57.6606 19.9036 57.3392 19.6454C57.0184 19.3873 56.609 19.2582 56.1114 19.2582C55.6144 19.2582 55.2049 19.3873 54.8839 19.6454C54.5627 19.9036 54.325 20.242 54.1707 20.6608C54.0165 21.0795 53.9394 21.5312 53.9394 22.0161C53.9394 22.5009 54.0165 22.9511 54.1707 23.3667C54.325 23.7822 54.5627 24.1175 54.8839 24.3725C55.2049 24.6275 55.6144 24.755 56.1114 24.755ZM65.6711 22.6394V18.3515H66.7854V25.6051H65.6711V24.3773H65.5952C65.4251 24.7456 65.1608 25.0588 64.8017 25.317C64.4432 25.572 63.99 25.6995 63.442 25.6995C62.9887 25.6995 62.5854 25.6004 62.233 25.402C61.8806 25.2005 61.6035 24.8983 61.4018 24.4953C61.2001 24.0892 61.0999 23.5776 61.0999 22.9606V18.3515H62.2141V22.885C62.2141 23.4139 62.3621 23.8357 62.658 24.1506C62.9572 24.4654 63.3378 24.6228 63.801 24.6228C64.0781 24.6228 64.3596 24.552 64.646 24.4103C64.9358 24.2687 65.178 24.0514 65.3735 23.7586C65.5719 23.4658 65.6711 23.0928 65.6711 22.6394ZM68.8266 25.6051V18.3515H69.9032V19.4471H69.9786C70.111 19.0882 70.3504 18.797 70.6967 18.5735C71.043 18.3499 71.4331 18.2382 71.868 18.2382C71.9495 18.2382 72.052 18.2398 72.175 18.2429C72.2975 18.246 72.3905 18.2508 72.4532 18.2571V19.3904C72.4155 19.381 72.329 19.3668 72.1938 19.3479C72.0614 19.3259 71.9212 19.3149 71.7733 19.3149C71.4209 19.3149 71.1062 19.3888 70.8291 19.5368C70.5548 19.6817 70.3376 19.8831 70.177 20.1413C70.0196 20.3963 69.9409 20.6875 69.9409 21.0149V25.6051H68.8266ZM80.7446 18.3515V19.296H76.8343V18.3515H80.7446ZM78.0057 25.6051V17.3504C78.0057 16.9348 78.1032 16.5885 78.2982 16.3115C78.4938 16.0344 78.7471 15.8267 79.059 15.6881C79.3704 15.5496 79.6995 15.4803 80.0458 15.4803C80.3196 15.4803 80.5434 15.5023 80.7163 15.5464C80.8897 15.5905 81.0183 15.6314 81.1036 15.6692L80.7822 16.6326C80.7257 16.6137 80.647 16.5901 80.5462 16.5618C80.4487 16.5334 80.3196 16.5193 80.1589 16.5193C79.791 16.5193 79.5244 16.6121 79.361 16.7979C79.2003 16.9836 79.12 17.2559 79.12 17.6148V25.6051H78.0057ZM82.3065 25.6051V18.3515H83.4208V25.6051H82.3065ZM82.8734 17.1426C82.6562 17.1426 82.4689 17.0686 82.3115 16.9206C82.1569 16.7727 82.0799 16.5948 82.0799 16.387C82.0799 16.1792 82.1569 16.0014 82.3115 15.8534C82.4689 15.7054 82.6562 15.6314 82.8734 15.6314C83.0906 15.6314 83.2762 15.7054 83.4302 15.8534C83.5881 16.0014 83.6668 16.1792 83.6668 16.387C83.6668 16.5948 83.5881 16.7727 83.4302 16.9206C83.2762 17.0686 83.0906 17.1426 82.8734 17.1426ZM85.4621 25.6051V18.3515H86.5392V19.4471H86.6146C86.747 19.0882 86.9858 18.797 87.3321 18.5735C87.6784 18.3499 88.0691 18.2382 88.5035 18.2382C88.5855 18.2382 88.6874 18.2398 88.8104 18.2429C88.9334 18.246 89.026 18.2508 89.0891 18.2571V19.3904C89.0515 19.381 88.9645 19.3668 88.8293 19.3479C88.6968 19.3259 88.5572 19.3149 88.4093 19.3149C88.0563 19.3149 87.7416 19.3888 87.4645 19.5368C87.1908 19.6817 86.9736 19.8831 86.8129 20.1413C86.6556 20.3963 86.5769 20.6875 86.5769 21.0149V25.6051H85.4621ZM95.5482 19.976L94.5469 20.2594C94.4838 20.0925 94.3912 19.9304 94.2682 19.7729C94.1485 19.6124 93.9851 19.4802 93.7773 19.3763C93.5695 19.2724 93.3035 19.2205 92.9788 19.2205C92.535 19.2205 92.1654 19.3227 91.8696 19.5274C91.5764 19.7289 91.4302 19.9855 91.4302 20.2972C91.4302 20.5742 91.531 20.793 91.7321 20.9535C91.9338 21.1141 92.2486 21.2479 92.6769 21.3549L93.7535 21.6194C94.4023 21.7768 94.8855 22.0177 95.2035 22.3419C95.521 22.663 95.68 23.077 95.68 23.5839C95.68 23.9995 95.5604 24.3709 95.3215 24.6984C95.0855 25.0258 94.7547 25.284 94.3297 25.4729C93.9047 25.6617 93.4105 25.7562 92.847 25.7562C92.1073 25.7562 91.4944 25.5956 91.0096 25.2745C90.5248 24.9534 90.2178 24.4843 90.0887 23.8672L91.147 23.6028C91.2473 23.9932 91.4379 24.2859 91.7183 24.4811C92.0014 24.6764 92.3716 24.7739 92.8281 24.7739C93.3473 24.7739 93.7596 24.6637 94.0654 24.4434C94.3735 24.2198 94.5281 23.9522 94.5281 23.6405C94.5281 23.3887 94.44 23.1778 94.2638 23.0078C94.087 22.8346 93.8166 22.7055 93.4515 22.6205L92.2425 22.3372C91.5781 22.1798 91.09 21.9358 90.7786 21.6052C90.4699 21.2715 90.3159 20.8544 90.3159 20.3538C90.3159 19.9445 90.4306 19.5825 90.6605 19.2677C90.8933 18.9528 91.2096 18.7057 91.6097 18.5262C92.0125 18.3468 92.4691 18.2571 92.9788 18.2571C93.6969 18.2571 94.2605 18.4145 94.6699 18.7293C95.0822 19.0441 95.3747 19.4597 95.5482 19.976ZM100.512 18.3515V19.296H96.7533V18.3515H100.512ZM97.8487 16.6137H98.9636V23.5272C98.9636 23.8421 99.009 24.0782 99.1004 24.2356C99.1946 24.3898 99.3143 24.4937 99.4595 24.5472C99.6074 24.5976 99.7631 24.6228 99.9266 24.6228C100.05 24.6228 100.15 24.6165 100.229 24.6039C100.308 24.5882 100.371 24.5756 100.418 24.5661L100.645 25.5673C100.569 25.5956 100.463 25.624 100.328 25.6523C100.193 25.6837 100.021 25.6995 99.8135 25.6995C99.4988 25.6995 99.1902 25.6318 98.8877 25.4965C98.589 25.3611 98.3402 25.1549 98.1419 24.8778C97.9468 24.6008 97.8487 24.2513 97.8487 23.8295V16.6137ZM108.97 25.7562C108.271 25.7562 107.668 25.6019 107.161 25.2934C106.658 24.9817 106.269 24.5473 105.995 23.99C105.725 23.4297 105.589 22.7779 105.589 22.035C105.589 21.292 105.725 20.6371 105.995 20.0705C106.269 19.5007 106.65 19.0567 107.138 18.7388C107.629 18.4176 108.202 18.2571 108.857 18.2571C109.235 18.2571 109.608 18.3201 109.976 18.4459C110.345 18.5719 110.68 18.7765 110.982 19.0599C111.284 19.3401 111.525 19.7115 111.704 20.1744C111.884 20.6371 111.974 21.207 111.974 21.8839V22.3561H106.382V21.3927H110.84C110.84 20.9835 110.758 20.6183 110.594 20.2972C110.434 19.976 110.204 19.7226 109.905 19.5368C109.609 19.3511 109.26 19.2582 108.857 19.2582C108.413 19.2582 108.029 19.3684 107.704 19.5888C107.384 19.806 107.136 20.0894 106.963 20.4388C106.79 20.7883 106.704 21.1629 106.704 21.5627V22.2049C106.704 22.7528 106.798 23.2171 106.987 23.598C107.179 23.9759 107.445 24.2639 107.785 24.4623C108.125 24.6575 108.52 24.755 108.97 24.755C109.263 24.755 109.527 24.7141 109.763 24.6322C110.003 24.5473 110.209 24.4213 110.382 24.2545C110.555 24.0845 110.689 23.8735 110.783 23.6217L111.86 23.9239C111.747 24.2891 111.556 24.6102 111.289 24.8872C111.021 25.1612 110.691 25.3752 110.297 25.5295C109.904 25.6806 109.461 25.7562 108.97 25.7562ZM113.669 25.6051V18.3515H114.746V19.4849H114.84C114.991 19.0977 115.235 18.797 115.572 18.5829C115.909 18.3657 116.313 18.2571 116.786 18.2571C117.264 18.2571 117.662 18.3657 117.98 18.5829C118.301 18.797 118.552 19.0977 118.731 19.4849H118.807C118.993 19.1102 119.271 18.8128 119.643 18.5924C120.014 18.3688 120.459 18.2571 120.979 18.2571C121.628 18.2571 122.158 18.4601 122.571 18.8663C122.983 19.2692 123.189 19.8973 123.189 20.7505V25.6051H122.075V20.7505C122.075 20.2153 121.928 19.8328 121.635 19.6029C121.343 19.3731 120.998 19.2582 120.601 19.2582C120.092 19.2582 119.696 19.4125 119.416 19.721C119.136 20.0264 118.996 20.4136 118.996 20.8827V25.6051H117.862V20.6371C117.862 20.2247 117.728 19.8926 117.461 19.6407C117.193 19.3857 116.848 19.2582 116.427 19.2582C116.137 19.2582 115.867 19.3354 115.615 19.4896C115.366 19.6439 115.164 19.8579 115.01 20.1319C114.859 20.4026 114.783 20.7158 114.783 21.0716V25.6051H113.669ZM127.361 25.7751C126.902 25.7751 126.485 25.6885 126.11 25.5154C125.736 25.339 125.438 25.0856 125.217 24.755C124.997 24.4213 124.887 24.0184 124.887 23.5461C124.887 23.1306 124.969 22.7937 125.133 22.5355C125.296 22.2742 125.515 22.0696 125.789 21.9216C126.062 21.7736 126.365 21.6635 126.696 21.5911C127.029 21.5155 127.365 21.4557 127.701 21.4116C128.142 21.3549 128.499 21.3124 128.774 21.2841C129.051 21.2526 129.252 21.2007 129.378 21.1283C129.507 21.0559 129.571 20.9299 129.571 20.7505V20.7127C129.571 20.2467 129.444 19.8847 129.189 19.6265C128.937 19.3684 128.555 19.2393 128.042 19.2393C127.509 19.2393 127.092 19.3558 126.79 19.5888C126.488 19.8217 126.275 20.0705 126.152 20.3349L125.094 19.9571C125.283 19.5164 125.535 19.1732 125.85 18.9277C126.168 18.6789 126.515 18.5058 126.889 18.4082C127.267 18.3074 127.638 18.2571 128.003 18.2571C128.237 18.2571 128.504 18.2854 128.806 18.3421C129.112 18.3956 129.406 18.5073 129.69 18.6774C129.976 18.8474 130.214 19.1039 130.403 19.4471C130.592 19.7903 130.686 20.2499 130.686 20.826V25.6051H129.571V24.6228H129.515C129.439 24.7802 129.313 24.9486 129.137 25.1281C128.961 25.3076 128.726 25.4602 128.433 25.5862C128.14 25.7121 127.783 25.7751 127.361 25.7751ZM127.531 24.7739C127.972 24.7739 128.344 24.6874 128.646 24.5142C128.951 24.3411 129.181 24.1175 129.335 23.8436C129.493 23.5697 129.571 23.2817 129.571 22.9795V21.9594C129.524 22.0161 129.42 22.068 129.26 22.1152C129.102 22.1593 128.92 22.1987 128.712 22.2333C128.507 22.2648 128.308 22.2931 128.112 22.3183C127.92 22.3404 127.765 22.3592 127.645 22.375C127.355 22.4127 127.084 22.4741 126.833 22.5591C126.584 22.641 126.382 22.7654 126.228 22.9322C126.077 23.0959 126.001 23.3194 126.001 23.6028C126.001 23.99 126.144 24.2828 126.431 24.4811C126.721 24.6764 127.088 24.7739 127.531 24.7739ZM132.72 25.6051V18.3515H133.835V25.6051H132.72ZM133.287 17.1426C133.069 17.1426 132.882 17.0686 132.725 16.9206C132.571 16.7727 132.493 16.5948 132.493 16.387C132.493 16.1792 132.571 16.0014 132.725 15.8534C132.882 15.7054 133.069 15.6314 133.287 15.6314C133.504 15.6314 133.689 15.7054 133.844 15.8534C134.001 16.0014 134.08 16.1792 134.08 16.387C134.08 16.5948 134.001 16.7727 133.844 16.9206C133.689 17.0686 133.504 17.1426 133.287 17.1426ZM136.99 15.9337V25.6051H135.876V15.9337H136.99ZM144.415 25.6051L142.205 18.3515H143.376L144.944 23.905H145.02L146.568 18.3515H147.758L149.288 23.8861H149.364L150.932 18.3515H152.103L149.893 25.6051H148.797L147.21 20.0327H147.097L145.51 25.6051H144.415ZM153.576 25.6051V18.3515H154.691V25.6051H153.576ZM154.143 17.1426C153.926 17.1426 153.739 17.0686 153.581 16.9206C153.427 16.7727 153.35 16.5948 153.35 16.387C153.35 16.1792 153.427 16.0014 153.581 15.8534C153.739 15.7054 153.926 15.6314 154.143 15.6314C154.36 15.6314 154.546 15.7054 154.7 15.8534C154.858 16.0014 154.937 16.1792 154.937 16.387C154.937 16.5948 154.858 16.7727 154.7 16.9206C154.546 17.0686 154.36 17.1426 154.143 17.1426ZM159.887 18.3515V19.296H156.127V18.3515H159.887ZM157.223 16.6137H158.338V23.5272C158.338 23.8421 158.383 24.0782 158.474 24.2356C158.569 24.3898 158.689 24.4937 158.834 24.5472C158.981 24.5976 159.137 24.6228 159.301 24.6228C159.424 24.6228 159.524 24.6165 159.603 24.6039C159.682 24.5882 159.745 24.5756 159.792 24.5661L160.019 25.5673C159.943 25.5956 159.838 25.624 159.702 25.6523C159.567 25.6837 159.395 25.6995 159.188 25.6995C158.873 25.6995 158.564 25.6318 158.262 25.4965C157.963 25.3611 157.714 25.1549 157.516 24.8778C157.321 24.6008 157.223 24.2513 157.223 23.8295V16.6137ZM162.833 21.2416V25.6051H161.719V15.9337H162.833V19.4849H162.928C163.098 19.1102 163.353 18.8128 163.693 18.5924C164.036 18.3688 164.492 18.2571 165.062 18.2571C165.556 18.2571 165.99 18.3562 166.361 18.5546C166.733 18.7498 167.021 19.0505 167.225 19.4566C167.433 19.8595 167.537 20.3727 167.537 20.996V25.6051H166.422V21.0716C166.422 20.4955 166.273 20.05 165.974 19.7351C165.678 19.4172 165.267 19.2582 164.741 19.2582C164.376 19.2582 164.049 19.3354 163.759 19.4896C163.472 19.6439 163.246 19.869 163.079 20.1649C162.915 20.4608 162.833 20.8197 162.833 21.2416ZM177.169 15.9337H178.34V22.8472C178.34 23.4643 178.227 23.9885 178.001 24.4198C177.773 24.8511 177.454 25.1785 177.041 25.402C176.629 25.6255 176.143 25.7373 175.583 25.7373C175.053 25.7373 174.583 25.6412 174.171 25.4493C173.758 25.254 173.434 24.977 173.198 24.6181C172.962 24.2592 172.844 23.8326 172.844 23.3383H173.996C173.996 23.6122 174.063 23.8515 174.199 24.0561C174.338 24.2576 174.526 24.415 174.766 24.5284C175.005 24.6417 175.277 24.6984 175.583 24.6984C175.919 24.6984 176.206 24.6275 176.442 24.4859C176.678 24.3442 176.857 24.1364 176.981 23.8625C177.106 23.5855 177.169 23.247 177.169 22.8472V15.9337ZM185.976 18.3515C185.92 17.873 185.69 17.5015 185.287 17.237C184.884 16.9726 184.39 16.8404 183.804 16.8404C183.376 16.8404 183.001 16.9096 182.68 17.0481C182.362 17.1867 182.114 17.3772 181.934 17.6196C181.758 17.862 181.67 18.1374 181.67 18.4459C181.67 18.7042 181.731 18.9261 181.854 19.1118C181.98 19.2944 182.14 19.4471 182.335 19.5699C182.531 19.6895 182.735 19.7887 182.949 19.8674C183.164 19.9429 183.36 20.0043 183.54 20.0516L184.522 20.316C184.774 20.3822 185.054 20.4734 185.363 20.5899C185.674 20.7064 185.972 20.8654 186.255 21.0669C186.541 21.2652 186.777 21.5202 186.964 21.8319C187.149 22.1436 187.242 22.5261 187.242 22.9795C187.242 23.502 187.105 23.9743 186.831 24.3961C186.56 24.818 186.164 25.1533 185.641 25.402C185.122 25.6507 184.491 25.7751 183.748 25.7751C183.055 25.7751 182.455 25.6633 181.948 25.4398C181.444 25.2163 181.048 24.9046 180.758 24.5048C180.472 24.1049 180.309 23.6405 180.272 23.1117H181.481C181.512 23.4769 181.635 23.7791 181.849 24.0184C182.067 24.2545 182.34 24.4308 182.671 24.5472C183.005 24.6606 183.364 24.7172 183.748 24.7172C184.195 24.7172 184.596 24.6448 184.952 24.5C185.307 24.352 185.589 24.1474 185.797 23.8861C186.005 23.6217 186.109 23.3131 186.109 22.9606C186.109 22.6394 186.019 22.3781 185.839 22.1766C185.66 21.9752 185.424 21.8114 185.131 21.6855C184.838 21.5596 184.522 21.4494 184.182 21.3549L182.992 21.0149C182.236 20.7977 181.638 20.4876 181.197 20.0846C180.757 19.6817 180.536 19.1544 180.536 18.5026C180.536 17.9611 180.682 17.4889 180.976 17.0859C181.271 16.6798 181.668 16.365 182.166 16.1415C182.666 15.9148 183.225 15.8014 183.842 15.8014C184.465 15.8014 185.019 15.9132 185.504 16.1367C185.989 16.3571 186.373 16.6593 186.657 17.0434C186.943 17.4275 187.094 17.8635 187.11 18.3515H185.976ZM189.734 15.9337L192.227 19.9571H192.303L194.797 15.9337H196.175L193.134 20.7694L196.175 25.6051H194.797L192.303 21.6572H192.227L189.734 25.6051H188.355L191.472 20.7694L188.355 15.9337H189.734ZM201.44 15.9337H202.838L206.125 23.9617H206.238L209.524 15.9337H210.922V25.6051H209.827V18.2571H209.732L206.71 25.6051H205.652L202.63 18.2571H202.535V25.6051H201.44V15.9337ZM215.254 25.7751C214.794 25.7751 214.377 25.6885 214.003 25.5154C213.628 25.339 213.33 25.0856 213.11 24.755C212.889 24.4213 212.779 24.0184 212.779 23.5461C212.779 23.1306 212.861 22.7937 213.025 22.5355C213.189 22.2742 213.407 22.0696 213.681 21.9216C213.955 21.7736 214.257 21.6635 214.588 21.5911C214.922 21.5155 215.257 21.4557 215.594 21.4116C216.034 21.3549 216.392 21.3124 216.666 21.2841C216.943 21.2526 217.144 21.2007 217.27 21.1283C217.399 21.0559 217.464 20.9299 217.464 20.7505V20.7127C217.464 20.2467 217.337 19.8847 217.082 19.6265C216.83 19.3684 216.447 19.2393 215.934 19.2393C215.402 19.2393 214.984 19.3558 214.682 19.5888C214.38 19.8217 214.168 20.0705 214.045 20.3349L212.987 19.9571C213.176 19.5164 213.428 19.1732 213.743 18.9277C214.061 18.6789 214.407 18.5058 214.782 18.4082C215.16 18.3074 215.531 18.2571 215.896 18.2571C216.129 18.2571 216.397 18.2854 216.699 18.3421C217.004 18.3956 217.299 18.5073 217.582 18.6774C217.868 18.8474 218.106 19.1039 218.295 19.4471C218.484 19.7903 218.578 20.2499 218.578 20.826V25.6051H217.464V24.6228H217.407C217.332 24.7802 217.206 24.9486 217.03 25.1281C216.853 25.3076 216.618 25.4602 216.326 25.5862C216.033 25.7121 215.676 25.7751 215.254 25.7751ZM215.424 24.7739C215.865 24.7739 216.236 24.6874 216.538 24.5142C216.844 24.3411 217.073 24.1175 217.228 23.8436C217.385 23.5697 217.464 23.2817 217.464 22.9795V21.9594C217.417 22.0161 217.313 22.068 217.152 22.1152C216.995 22.1593 216.812 22.1987 216.605 22.2333C216.4 22.2648 216.2 22.2931 216.005 22.3183C215.813 22.3404 215.657 22.3592 215.537 22.375C215.248 22.4127 214.977 22.4741 214.725 22.5591C214.476 22.641 214.275 22.7654 214.121 22.9322C213.969 23.0959 213.894 23.3194 213.894 23.6028C213.894 23.99 214.037 24.2828 214.323 24.4811C214.613 24.6764 214.98 24.7739 215.424 24.7739ZM220.612 25.6051V18.3515H221.727V25.6051H220.612ZM221.179 17.1426C220.962 17.1426 220.775 17.0686 220.617 16.9206C220.463 16.7727 220.386 16.5948 220.386 16.387C220.386 16.1792 220.463 16.0014 220.617 15.8534C220.775 15.7054 220.962 15.6314 221.179 15.6314C221.396 15.6314 221.582 15.7054 221.737 15.8534C221.894 16.0014 221.973 16.1792 221.973 16.387C221.973 16.5948 221.894 16.7727 221.737 16.9206C221.582 17.0686 221.396 17.1426 221.179 17.1426ZM224.883 15.9337V25.6051H223.768V15.9337H224.883Z" fill="white"/>
<mask id="mask0_2_21594" style="mask-type:luminance" maskUnits="userSpaceOnUse" x="360" y="12" width="18" height="18">
<path d="M377.889 12.0299H360.158V29.7608H377.889V12.0299Z" fill="white"/>
</mask>
<g mask="url(#mask0_2_21594)">
<path d="M364.591 17.5709V14.8004H373.456V17.5709" stroke="#A1A1AA" stroke-width="2" stroke-linecap="round" stroke-linejoin="round"/>
<path d="M373.456 22.5576H364.591V26.9903H373.456V22.5576Z" stroke="#A1A1AA" stroke-width="2" stroke-linecap="round" stroke-linejoin="round"/>
<path d="M364.591 24.22H361.82V18.6791C361.82 18.0668 362.358 17.5709 363.02 17.5709H375.026C375.689 17.5709 376.227 18.0668 376.227 18.6791V24.22H373.456" stroke="#A1A1AA" stroke-width="2" stroke-linecap="round" stroke-linejoin="round"/>
<path d="M373.179 20.8954C373.638 20.8954 374.01 20.5233 374.01 20.0643C374.01 19.6053 373.638 19.2332 373.179 19.2332C372.72 19.2332 372.348 19.6053 372.348 20.0643C372.348 20.5233 372.72 20.8954 373.179 20.8954Z" fill="#A1A1AA"/>
</g>
<mask id="mask1_2_21594" style="mask-type:luminance" maskUnits="userSpaceOnUse" x="391" y="12" width="18" height="18">
<path d="M408.918 12.0299H391.188V29.7608H408.918V12.0299Z" fill="white"/>
</mask>
<g mask="url(#mask1_2_21594)">
<path d="M406.148 19.2331L406.148 14.8011L401.715 14.8004" stroke="#A1A1AA" stroke-width="2" stroke-linecap="round" stroke-linejoin="round"/>
<path d="M400.607 20.3413L406.148 14.8004" stroke="#A1A1AA" stroke-width="2" stroke-linecap="round" stroke-linejoin="round"/>
<path d="M403.932 21.4494V26.4362C403.932 26.5832 403.873 26.7242 403.769 26.828C403.666 26.9319 403.524 26.9903 403.378 26.9903H394.512C394.365 26.9903 394.224 26.9319 394.12 26.828C394.016 26.7242 393.958 26.5832 393.958 26.4362V17.5708C393.958 17.4239 394.016 17.2829 394.12 17.179C394.224 17.0751 394.365 17.0167 394.512 17.0167H399.499" stroke="#A1A1AA" stroke-width="2" stroke-linecap="round" stroke-linejoin="round"/>
</g>
<path d="M46.2665 64.1143C46.2665 54.4749 38.4522 46.6605 28.8127 46.6605C19.1732 46.6605 11.3589 54.4749 11.3589 64.1143C11.3589 73.7538 19.1732 81.5682 28.8127 81.5682C38.4522 81.5682 46.2665 73.7538 46.2665 64.1143Z" fill="white"/>
<path d="M46.2665 64.1143C46.2665 54.4749 38.4522 46.6605 28.8127 46.6605C19.1732 46.6605 11.3589 54.4749 11.3589 64.1143C11.3589 73.7538 19.1732 81.5682 28.8127 81.5682C38.4522 81.5682 46.2665 73.7538 46.2665 64.1143Z" stroke="#E3E5F0"/>
<path d="M67.8518 51.8741H69.155V56.9744C69.1528 57.4415 69.0536 57.8443 68.8575 58.1818C68.6619 58.517 68.3876 58.7758 68.0358 58.9575C67.6867 59.137 67.2794 59.2268 66.814 59.2268C66.389 59.2268 66.0067 59.1514 65.6665 59.0002C65.329 58.8467 65.0608 58.6201 64.8625 58.3203C64.6641 58.02 64.5649 57.6471 64.5649 57.201H65.872C65.8743 57.3966 65.9169 57.5656 65.9995 57.7075C66.0843 57.8488 66.2012 57.9574 66.3502 58.0333C66.4987 58.1086 66.6699 58.1463 66.8639 58.1463C67.0739 58.1463 67.2523 58.1031 67.3986 58.0155C67.5448 57.9258 67.6557 57.7934 67.7316 57.6188C67.8091 57.4443 67.8496 57.2293 67.8518 56.9744V51.8741ZM74.5225 53.8681C74.4898 53.5588 74.3502 53.3179 74.1047 53.1455C73.8615 52.9732 73.5451 52.887 73.1555 52.887C72.8818 52.887 72.6469 52.9283 72.4507 53.0109C72.2546 53.0936 72.105 53.2058 72.0008 53.3474C71.8972 53.4891 71.844 53.6509 71.8418 53.8327C71.8418 53.9838 71.8756 54.1148 71.9443 54.2258C72.0152 54.3368 72.1105 54.4312 72.2313 54.5092C72.3516 54.5847 72.4851 54.6485 72.6314 54.7004C72.7777 54.7523 72.9256 54.796 73.0741 54.8314L73.754 55.0015C74.0282 55.0652 74.2914 55.1514 74.5441 55.26C74.799 55.3686 75.0267 55.5056 75.2273 55.6709C75.4306 55.8361 75.5913 56.0356 75.7093 56.2694C75.8274 56.5029 75.8861 56.7771 75.8861 57.0913C75.8861 57.5163 75.7775 57.8903 75.5603 58.2139C75.3431 58.5347 75.0289 58.7863 74.6183 58.968C74.21 59.1475 73.7152 59.2373 73.1345 59.2373C72.5699 59.2373 72.0801 59.1498 71.6645 58.9752C71.2511 58.8007 70.9276 58.5458 70.6943 58.21C70.4627 57.8748 70.3374 57.4664 70.3186 56.9849H71.6113C71.6301 57.2376 71.7083 57.4476 71.8451 57.6155C71.982 57.7828 72.1604 57.908 72.3798 57.9906C72.602 58.0732 72.8497 58.1147 73.124 58.1147C73.4093 58.1147 73.6598 58.0721 73.8748 57.9873C74.092 57.8997 74.2621 57.7795 74.3845 57.626C74.5075 57.4703 74.5701 57.288 74.5724 57.0802C74.5701 56.8913 74.5142 56.7356 74.4056 56.6131C74.297 56.4879 74.1452 56.3837 73.949 56.3012C73.7551 56.2162 73.5285 56.1407 73.2691 56.0746L72.4435 55.8621C71.8462 55.7086 71.3742 55.476 71.0267 55.1644C70.6821 54.8503 70.5098 54.4336 70.5098 53.9141C70.5098 53.4867 70.6256 53.1125 70.8572 52.7914C71.0905 52.4703 71.4085 52.2211 71.8097 52.0441C72.2114 51.8646 72.6657 51.7749 73.1733 51.7749C73.688 51.7749 74.1391 51.8646 74.5264 52.0441C74.9159 52.2211 75.2217 52.4679 75.4434 52.7843C75.6656 53.0983 75.7803 53.4596 75.7869 53.8681H74.5225ZM78.1557 51.8741L79.7531 54.5304H79.8096L81.4143 51.8741H82.9125L80.6773 55.5008L82.9474 59.1276H81.4248L79.8096 56.489H79.7531L78.1379 59.1276H76.6219L78.9136 55.5008L76.6502 51.8741H78.1557ZM86.4177 51.8741H88.0257L90.1789 57.1301H90.2642L92.4174 51.8741H94.0253V59.1276H92.7648V54.1443H92.6972L90.6925 59.1065H89.7505L87.7458 54.1337H87.6788V59.1276H86.4177V51.8741ZM96.9653 59.2373C96.6201 59.2373 96.3098 59.1758 96.0334 59.0533C95.7596 58.9281 95.5424 58.7442 95.3818 58.5009C95.2238 58.2577 95.1446 57.9574 95.1446 57.6011C95.1446 57.2941 95.2011 57.0403 95.3147 56.8398C95.4277 56.6392 95.5829 56.4785 95.7785 56.3577C95.9746 56.2375 96.1951 56.1466 96.4412 56.0852C96.6888 56.0215 96.9448 55.9754 97.2097 55.9471C97.5283 55.914 97.7871 55.8845 97.9849 55.8585C98.1832 55.8302 98.3273 55.7877 98.4171 55.731C98.5096 55.672 98.5556 55.5811 98.5556 55.4583V55.4371C98.5556 55.1703 98.4763 54.9637 98.3179 54.8173C98.16 54.6709 97.9322 54.5977 97.6347 54.5977C97.3205 54.5977 97.0712 54.6662 96.8872 54.8031C96.7055 54.9401 96.5825 55.1018 96.5187 55.2883L95.3219 55.1183C95.4161 54.7877 95.5718 54.5115 95.789 54.2896C96.0062 54.0652 96.2722 53.8976 96.5863 53.7866C96.9 53.6733 97.2474 53.6166 97.6275 53.6166C97.8896 53.6166 98.1505 53.6473 98.4104 53.7087C98.6697 53.7701 98.9074 53.8716 99.1219 54.0133C99.3368 54.1526 99.5092 54.3426 99.6394 54.5835C99.7712 54.8244 99.8377 55.1254 99.8377 55.4867V59.1276H98.6049V58.3801H98.5622C98.4846 58.5314 98.3749 58.6732 98.2331 58.8051C98.094 58.9353 97.9178 59.0401 97.7056 59.1204C97.495 59.1985 97.2485 59.2373 96.9653 59.2373ZM97.2978 58.2954C97.5554 58.2954 97.7787 58.2444 97.9677 58.143C98.1561 58.0394 98.3018 57.902 98.4032 57.7324C98.5068 57.5623 98.5589 57.3767 98.5589 57.1761V56.535C98.519 56.5683 98.4503 56.5987 98.3533 56.627C98.2591 56.6553 98.1528 56.6802 98.0347 56.7012C97.9167 56.7229 97.7998 56.7417 97.684 56.7583C97.5682 56.7749 97.4679 56.7888 97.3831 56.8004C97.192 56.8265 97.0207 56.8691 96.8695 56.9284C96.7182 56.9871 96.5991 57.0697 96.5115 57.1761C96.4245 57.2797 96.3808 57.4144 96.3808 57.58C96.3808 57.8161 96.4667 57.9945 96.6395 58.1147C96.8119 58.235 97.0313 58.2954 97.2978 58.2954ZM101.127 59.1276V53.6874H102.409V59.1276H101.127ZM101.772 52.9154C101.568 52.9154 101.394 52.848 101.247 52.7135C101.101 52.5765 101.027 52.4124 101.027 52.2211C101.027 52.0275 101.101 51.8634 101.247 51.7288C101.394 51.5919 101.568 51.5234 101.772 51.5234C101.977 51.5234 102.152 51.5919 102.296 51.7288C102.442 51.8634 102.515 52.0275 102.515 52.2211C102.515 52.4124 102.442 52.5765 102.296 52.7135C102.152 52.848 101.977 52.9154 101.772 52.9154ZM105.01 51.8741V59.1276H103.727V51.8741H105.01Z" fill="white"/>
<path d="M115.591 56.0297V55.526L119.646 53.4607V54.2667L116.535 55.7652L116.56 55.7149V55.8408L116.535 55.7904L119.646 57.2891V58.0947L115.591 56.0297ZM124.646 54.5437L123.978 54.7326C123.937 54.6214 123.874 54.5133 123.792 54.4084C123.713 54.3013 123.604 54.2132 123.465 54.1439C123.326 54.0746 123.149 54.04 122.933 54.04C122.637 54.04 122.391 54.1082 122.193 54.2446C121.998 54.3789 121.9 54.55 121.9 54.7578C121.9 54.9425 121.968 55.0883 122.102 55.1954C122.236 55.3024 122.446 55.3917 122.731 55.463L123.449 55.6393C123.882 55.7442 124.204 55.9048 124.416 56.121C124.628 56.335 124.734 56.6109 124.734 56.9489C124.734 57.2259 124.654 57.4736 124.494 57.6919C124.337 57.9102 124.117 58.0825 123.833 58.2083C123.55 58.3341 123.221 58.3973 122.845 58.3973C122.352 58.3973 121.943 58.2903 121.62 58.0759C121.297 57.862 121.092 57.5495 121.006 57.1378L121.712 56.9616C121.779 57.222 121.906 57.4171 122.093 57.5473C122.281 57.6775 122.528 57.7423 122.832 57.7423C123.179 57.7423 123.453 57.6686 123.657 57.5218C123.863 57.3727 123.966 57.1943 123.966 56.9865C123.966 56.8187 123.907 56.6785 123.79 56.5649C123.672 56.4496 123.492 56.3632 123.248 56.3067L122.442 56.1178C121.999 56.0129 121.674 55.8502 121.466 55.6299C121.26 55.4074 121.158 55.1293 121.158 54.7956C121.158 54.5227 121.234 54.2814 121.387 54.0715C121.543 53.8616 121.753 53.6969 122.02 53.5772C122.289 53.4576 122.593 53.3978 122.933 53.3978C123.412 53.3978 123.787 53.5027 124.06 53.7126C124.335 53.9225 124.531 54.1995 124.646 54.5437ZM127.88 58.3973C127.414 58.3973 127.012 58.2942 126.674 58.0886C126.338 57.8808 126.079 57.5911 125.896 57.2198C125.716 56.8464 125.625 56.4114 125.625 55.9163C125.625 55.421 125.716 54.9845 125.896 54.6067C126.079 54.2268 126.333 53.9309 126.658 53.7189C126.986 53.5048 127.367 53.3978 127.804 53.3978C128.056 53.3978 128.305 53.4397 128.55 53.5237C128.796 53.6077 129.019 53.7441 129.221 53.933C129.423 54.1197 129.583 54.3674 129.702 54.6759C129.822 54.9845 129.882 55.3643 129.882 55.8156V56.1304H126.155V55.4882H129.127C129.127 55.2153 129.072 54.9719 128.963 54.7578C128.856 54.5437 128.702 54.3747 128.503 54.251C128.306 54.1271 128.073 54.0652 127.804 54.0652C127.508 54.0652 127.252 54.1386 127.036 54.2856C126.822 54.4304 126.657 54.6193 126.542 54.8523C126.427 55.0852 126.368 55.335 126.368 55.6015V56.0297C126.368 56.3948 126.432 56.7045 126.557 56.9583C126.685 57.2104 126.863 57.4021 127.089 57.5345C127.316 57.6648 127.58 57.7296 127.88 57.7296C128.075 57.7296 128.251 57.7024 128.409 57.6481C128.568 57.5911 128.706 57.5074 128.821 57.396C128.937 57.2824 129.026 57.1422 129.088 56.9744L129.807 57.1755C129.731 57.4193 129.604 57.6332 129.425 57.8177C129.247 58.0005 129.027 58.1429 128.764 58.246C128.502 58.3468 128.207 58.3973 127.88 58.3973ZM131.755 55.3874V58.2964H131.012V53.4607H131.73V54.2163H131.793C131.907 53.9707 132.078 53.7734 132.309 53.6244C132.54 53.4733 132.838 53.3978 133.204 53.3978C133.531 53.3978 133.818 53.4649 134.063 53.5992C134.309 53.7315 134.5 53.933 134.636 54.2037C134.772 54.4724 134.84 54.8124 134.84 55.2237V58.2964H134.097V55.2741C134.097 54.8942 133.999 54.5983 133.802 54.3863C133.604 54.1722 133.333 54.0652 132.989 54.0652C132.752 54.0652 132.54 54.1166 132.353 54.2194C132.169 54.3223 132.023 54.4724 131.916 54.6696C131.809 54.8669 131.755 55.1062 131.755 55.3874ZM138.024 58.3973C137.621 58.3973 137.266 58.2953 136.957 58.092C136.648 57.8858 136.407 57.5966 136.233 57.2226C136.059 56.8469 135.971 56.4031 135.971 55.8912C135.971 55.3832 136.059 54.9425 136.233 54.5689C136.407 54.1953 136.65 53.9067 136.96 53.7031C137.271 53.4995 137.63 53.3978 138.037 53.3978C138.352 53.3978 138.601 53.4502 138.783 53.5552C138.968 53.658 139.108 53.7755 139.205 53.9077C139.304 54.0379 139.38 54.145 139.434 54.2289H139.498V51.8488H140.241V58.2964H139.523V57.5534H139.434C139.38 57.6415 139.303 57.7529 139.202 57.8869C139.101 58.0194 138.957 58.1379 138.77 58.2427C138.583 58.3457 138.335 58.3973 138.024 58.3973ZM138.125 57.7296C138.423 57.7296 138.675 57.652 138.88 57.4969C139.086 57.3395 139.243 57.1223 139.35 56.8453C139.457 56.566 139.51 56.2438 139.51 55.8786C139.51 55.5175 139.458 55.2017 139.353 54.9309C139.248 54.6581 139.093 54.4461 138.887 54.295C138.681 54.1418 138.427 54.0652 138.125 54.0652C137.81 54.0652 137.548 54.146 137.338 54.3076C137.13 54.4671 136.974 54.6844 136.869 54.9593C136.766 55.2321 136.714 55.5385 136.714 55.8786C136.714 56.2228 136.767 56.5355 136.872 56.817C136.979 57.0957 137.137 57.3184 137.344 57.4841C137.554 57.6481 137.814 57.7296 138.125 57.7296ZM143.732 58.3973C143.266 58.3973 142.864 58.2942 142.526 58.0886C142.19 57.8808 141.931 57.5911 141.748 57.2198C141.568 56.8464 141.478 56.4114 141.478 55.9163C141.478 55.421 141.568 54.9845 141.748 54.6067C141.931 54.2268 142.185 53.9309 142.51 53.7189C142.838 53.5048 143.22 53.3978 143.657 53.3978C143.908 53.3978 144.157 53.4397 144.402 53.5237C144.648 53.6077 144.872 53.7441 145.073 53.933C145.275 54.1197 145.435 54.3674 145.555 54.6759C145.675 54.9845 145.734 55.3643 145.734 55.8156V56.1304H142.006V55.4882H144.979C144.979 55.2153 144.924 54.9719 144.815 54.7578C144.708 54.5437 144.555 54.3747 144.355 54.251C144.158 54.1271 143.925 54.0652 143.657 54.0652C143.361 54.0652 143.104 54.1386 142.888 54.2856C142.674 54.4304 142.51 54.6193 142.394 54.8523C142.279 55.0852 142.221 55.335 142.221 55.6015V56.0297C142.221 56.3948 142.284 56.7045 142.41 56.9583C142.538 57.2104 142.715 57.4021 142.942 57.5345C143.168 57.6648 143.432 57.7296 143.732 57.7296C143.927 57.7296 144.103 57.7024 144.261 57.6481C144.42 57.5911 144.558 57.5074 144.673 57.396C144.789 57.2824 144.878 57.1422 144.941 56.9744L145.658 57.1755C145.583 57.4193 145.456 57.6332 145.278 57.8177C145.099 58.0005 144.879 58.1429 144.617 58.246C144.354 58.3468 144.059 58.3973 143.732 58.3973ZM146.864 58.2964V53.4607H147.582V54.1911H147.633C147.721 53.9519 147.88 53.7577 148.111 53.6087C148.342 53.4597 148.602 53.3852 148.892 53.3852C148.946 53.3852 149.015 53.3862 149.097 53.3883C149.179 53.3904 149.24 53.3936 149.282 53.3978V54.1533C149.257 54.1471 149.199 54.1376 149.109 54.125C149.021 54.1103 148.928 54.103 148.829 54.103C148.594 54.103 148.384 54.1523 148.199 54.251C148.017 54.3475 147.872 54.4818 147.765 54.6539C147.66 54.8239 147.607 55.018 147.607 55.2363V58.2964H146.864ZM153.878 59.9964C153.236 59.9964 152.668 59.9083 152.175 59.7321C151.681 59.5581 151.267 59.301 150.931 58.9608C150.595 58.6206 150.341 58.2039 150.169 57.7107C149.997 57.2176 149.911 56.653 149.911 56.0171C149.911 55.4021 149.998 54.8523 150.173 54.3674C150.349 53.8826 150.604 53.4712 150.937 53.1333C151.273 52.7933 151.68 52.5341 152.159 52.3557C152.639 52.1773 153.183 52.0881 153.79 52.0881C154.379 52.0881 154.896 52.1846 155.338 52.3777C155.783 52.5687 156.155 52.8279 156.453 53.1554C156.753 53.4807 156.978 53.8469 157.127 54.2541C157.278 54.6613 157.354 55.081 157.354 55.5134C157.354 55.8177 157.339 56.1262 157.309 56.4391C157.28 56.7516 157.218 57.0392 157.124 57.3018C157.03 57.5617 156.883 57.7717 156.686 57.9313C156.491 58.0909 156.227 58.1706 155.893 58.1706C155.746 58.1706 155.584 58.1474 155.408 58.1014C155.232 58.0548 155.075 57.9784 154.939 57.8714C154.803 57.7645 154.722 57.6204 154.696 57.4403H154.659C154.608 57.5617 154.531 57.6775 154.426 57.7867C154.323 57.8958 154.188 57.9828 154.02 58.0476C153.854 58.113 153.651 58.1413 153.412 58.133C153.139 58.1224 152.899 58.0615 152.691 57.9501C152.483 57.8365 152.309 57.6836 152.168 57.4902C152.03 57.2952 151.925 57.0697 151.854 56.8137C151.785 56.5555 151.75 56.2774 151.75 55.9793C151.75 55.696 151.792 55.4368 151.875 55.2017C151.96 54.9666 152.076 54.7609 152.225 54.5846C152.376 54.4084 152.552 54.2677 152.754 54.1628C152.958 54.0557 153.177 53.9896 153.412 53.9644C153.622 53.9434 153.813 53.9529 153.985 53.9928C154.157 54.0305 154.299 54.0883 154.41 54.166C154.521 54.2415 154.592 54.3254 154.621 54.4178H154.659V54.0652H155.326V56.9112C155.326 57.0874 155.376 57.2425 155.474 57.3772C155.573 57.5113 155.716 57.5789 155.905 57.5789C156.12 57.5789 156.283 57.5052 156.397 57.3583C156.512 57.2115 156.591 56.9849 156.633 56.6785C156.677 56.3721 156.699 55.9793 156.699 55.5008C156.699 55.2196 156.66 54.9425 156.582 54.6696C156.506 54.3947 156.391 54.1376 156.236 53.8983C156.083 53.6591 155.889 53.4481 155.654 53.2656C155.418 53.0829 155.142 52.9402 154.825 52.8374C154.511 52.7324 154.153 52.6799 153.752 52.6799C153.259 52.6799 152.817 52.7566 152.427 52.9098C152.038 53.0609 151.707 53.2823 151.435 53.5741C151.164 53.8637 150.957 54.2163 150.815 54.6319C150.674 55.0453 150.604 55.5155 150.604 56.0423C150.604 56.5776 150.674 57.053 150.815 57.4686C150.957 57.8842 151.167 58.2344 151.444 58.5197C151.724 58.8056 152.069 59.0217 152.48 59.1686C152.892 59.3176 153.366 59.3918 153.903 59.3918C154.134 59.3918 154.362 59.3702 154.586 59.3259C154.811 59.2816 155.009 59.2334 155.181 59.1813C155.353 59.1287 155.477 59.0899 155.553 59.0644L155.729 59.644C155.599 59.6983 155.429 59.7531 155.219 59.8074C155.012 59.8623 154.789 59.9072 154.552 59.9432C154.317 59.9786 154.092 59.9964 153.878 59.9964ZM153.513 57.4902C153.794 57.4902 154.022 57.4337 154.196 57.3207C154.37 57.2071 154.497 57.0359 154.577 56.807C154.656 56.5787 154.696 56.2899 154.696 55.9415C154.696 55.5889 154.652 55.314 154.564 55.1167C154.476 54.9194 154.346 54.7809 154.174 54.7011C154.002 54.6214 153.79 54.5815 153.538 54.5815C153.299 54.5815 153.094 54.6445 152.924 54.7704C152.756 54.8942 152.627 55.06 152.537 55.2678C152.449 55.4735 152.405 55.6981 152.405 55.9415C152.405 56.2102 152.44 56.4629 152.511 56.7001C152.583 56.9356 152.699 57.1262 152.861 57.273C153.023 57.4182 153.24 57.4902 153.513 57.4902ZM158.466 53.4607H159.209V58.6488C159.209 58.9469 159.157 59.2051 159.054 59.4234C158.954 59.6417 158.8 59.8107 158.595 59.9304C158.391 60.0501 158.134 60.11 157.824 60.11C157.798 60.11 157.773 60.11 157.748 60.11C157.723 60.11 157.698 60.11 157.672 60.11V59.4173C157.698 59.4173 157.72 59.4173 157.742 59.4173C157.763 59.4173 157.786 59.4173 157.811 59.4173C158.037 59.4173 158.203 59.3503 158.308 59.2156C158.413 59.0832 158.466 58.8948 158.466 58.6488V53.4607ZM158.831 52.6548C158.686 52.6548 158.561 52.6055 158.456 52.5068C158.353 52.4082 158.302 52.2896 158.302 52.1511C158.302 52.0125 158.353 51.894 158.456 51.7953C158.561 51.6967 158.686 51.6473 158.831 51.6473C158.975 51.6473 159.1 51.6967 159.202 51.7953C159.307 51.894 159.36 52.0125 159.36 52.1511C159.36 52.2896 159.307 52.4082 159.202 52.5068C159.1 52.6055 158.975 52.6548 158.831 52.6548ZM163.995 54.5437L163.327 54.7326C163.285 54.6214 163.224 54.5133 163.142 54.4084C163.062 54.3013 162.953 54.2132 162.814 54.1439C162.676 54.0746 162.498 54.04 162.282 54.04C161.986 54.04 161.74 54.1082 161.542 54.2446C161.347 54.3789 161.249 54.55 161.249 54.7578C161.249 54.9425 161.317 55.0883 161.451 55.1954C161.585 55.3024 161.795 55.3917 162.081 55.463L162.798 55.6393C163.231 55.7442 163.553 55.9048 163.765 56.121C163.977 56.335 164.083 56.6109 164.083 56.9489C164.083 57.2259 164.003 57.4736 163.844 57.6919C163.686 57.9102 163.466 58.0825 163.183 58.2083C162.899 58.3341 162.57 58.3973 162.194 58.3973C161.7 58.3973 161.293 58.2903 160.969 58.0759C160.646 57.862 160.442 57.5495 160.355 57.1378L161.061 56.9616C161.128 57.222 161.255 57.4171 161.442 57.5473C161.631 57.6775 161.877 57.7423 162.181 57.7423C162.528 57.7423 162.803 57.6686 163.006 57.5218C163.212 57.3727 163.315 57.1943 163.315 56.9865C163.315 56.8187 163.256 56.6785 163.138 56.5649C163.021 56.4496 162.84 56.3632 162.597 56.3067L161.791 56.1178C161.348 56.0129 161.023 55.8502 160.815 55.6299C160.61 55.4074 160.506 55.1293 160.506 54.7956C160.506 54.5227 160.583 54.2814 160.736 54.0715C160.892 53.8616 161.103 53.6969 161.369 53.5772C161.638 53.4576 161.942 53.3978 162.282 53.3978C162.76 53.3978 163.136 53.5027 163.409 53.7126C163.684 53.9225 163.879 54.1995 163.995 54.5437ZM165.755 53.4607L166.914 55.4378L168.073 53.4607H168.929L167.367 55.8786L168.929 58.2964H168.073L166.914 56.4203L165.755 58.2964H164.899L166.435 55.8786L164.899 53.4607H165.755ZM169.989 58.2964V53.4607H170.707V54.2163H170.77C170.871 53.9582 171.033 53.7577 171.258 53.615C171.482 53.4702 171.752 53.3978 172.067 53.3978C172.386 53.3978 172.652 53.4702 172.863 53.615C173.078 53.7577 173.244 53.9582 173.364 54.2163H173.415C173.538 53.9665 173.724 53.7682 173.971 53.6213C174.219 53.4723 174.516 53.3978 174.862 53.3978C175.295 53.3978 175.649 53.5331 175.923 53.8039C176.198 54.0725 176.336 54.4913 176.336 55.06V58.2964H175.593V55.06C175.593 54.7033 175.495 54.4482 175.3 54.295C175.105 54.1418 174.875 54.0652 174.611 54.0652C174.271 54.0652 174.007 54.168 173.821 54.3737C173.633 54.5773 173.54 54.8355 173.54 55.1482V58.2964H172.785V54.9845C172.785 54.7095 172.695 54.4881 172.517 54.3202C172.338 54.1502 172.109 54.0652 171.828 54.0652C171.634 54.0652 171.454 54.1166 171.286 54.2194C171.12 54.3223 170.986 54.465 170.883 54.6476C170.783 54.8281 170.732 55.0369 170.732 55.2741V58.2964H169.989ZM179.117 58.41C178.811 58.41 178.533 58.3518 178.283 58.2366C178.033 58.1191 177.835 57.9501 177.688 57.7296C177.541 57.5074 177.468 57.2387 177.468 56.9239C177.468 56.6469 177.522 56.4219 177.631 56.2501C177.74 56.0758 177.887 55.9394 178.069 55.8408C178.252 55.7422 178.453 55.6687 178.673 55.6204C178.896 55.57 179.119 55.5302 179.344 55.5008C179.638 55.463 179.876 55.4347 180.059 55.4158C180.243 55.3948 180.378 55.3602 180.461 55.3119C180.548 55.2636 180.591 55.1797 180.591 55.06V55.0348C180.591 54.7242 180.506 54.4828 180.336 54.3107C180.168 54.1386 179.913 54.0526 179.57 54.0526C179.216 54.0526 178.938 54.1303 178.737 54.2856C178.535 54.4409 178.393 54.6067 178.312 54.783L177.606 54.5311C177.732 54.2373 177.9 54.0085 178.11 53.8448C178.322 53.679 178.553 53.5635 178.802 53.4985C179.055 53.4313 179.302 53.3978 179.546 53.3978C179.701 53.3978 179.879 53.4167 180.081 53.4544C180.284 53.4901 180.48 53.5646 180.669 53.678C180.86 53.7913 181.019 53.9623 181.145 54.1911C181.271 54.4199 181.334 54.7263 181.334 55.1104V58.2964H180.591V57.6415H180.553C180.502 57.7468 180.419 57.8587 180.301 57.9784C180.183 58.0981 180.027 58.2 179.832 58.2837C179.637 58.3679 179.399 58.41 179.117 58.41ZM179.231 57.7423C179.524 57.7423 179.772 57.6847 179.974 57.5695C180.177 57.4536 180.331 57.3046 180.433 57.1223C180.538 56.9394 180.591 56.7477 180.591 56.546V55.866C180.559 55.9037 180.49 55.9384 180.383 55.9698C180.278 55.9993 180.156 56.0255 180.018 56.0486C179.881 56.0696 179.748 56.0885 179.618 56.1053C179.49 56.12 179.386 56.1325 179.306 56.143C179.113 56.1682 178.933 56.2092 178.765 56.2658C178.599 56.3204 178.464 56.4031 178.362 56.5145C178.261 56.6236 178.211 56.7727 178.211 56.9616C178.211 57.2198 178.306 57.4149 178.497 57.5473C178.69 57.6775 178.935 57.7423 179.231 57.7423ZM182.69 58.2964V53.4607H183.433V58.2964H182.69ZM183.067 52.6548C182.923 52.6548 182.798 52.6055 182.693 52.5068C182.59 52.4082 182.539 52.2896 182.539 52.1511C182.539 52.0125 182.59 51.894 182.693 51.7953C182.798 51.6967 182.923 51.6473 183.067 51.6473C183.212 51.6473 183.336 51.6967 183.439 51.7953C183.544 51.894 183.596 52.0125 183.596 52.1511C183.596 52.2896 183.544 52.4082 183.439 52.5068C183.336 52.6055 183.212 52.6548 183.067 52.6548ZM185.536 51.8488V58.2964H184.794V51.8488H185.536ZM187.439 58.3468C187.283 58.3468 187.15 58.2914 187.039 58.1801C186.928 58.0687 186.872 57.9351 186.872 57.78C186.872 57.6249 186.928 57.4913 187.039 57.3805C187.15 57.2691 187.283 57.2132 187.439 57.2132C187.594 57.2132 187.728 57.2691 187.839 57.3805C187.95 57.4913 188.005 57.6249 188.005 57.78C188.005 57.8831 187.979 57.9773 187.927 58.0637C187.876 58.1496 187.808 58.2188 187.722 58.2715C187.639 58.3214 187.544 58.3468 187.439 58.3468ZM191.303 58.3973C190.867 58.3973 190.484 58.2931 190.154 58.0853C189.827 57.8775 189.571 57.5872 189.386 57.2132C189.203 56.8397 189.112 56.4031 189.112 55.9037C189.112 55.4 189.203 54.9604 189.386 54.5846C189.571 54.209 189.827 53.9172 190.154 53.7094C190.484 53.5017 190.867 53.3978 191.303 53.3978C191.74 53.3978 192.122 53.5017 192.449 53.7094C192.779 53.9172 193.035 54.209 193.218 54.5846C193.402 54.9604 193.495 55.4 193.495 55.9037C193.495 56.4031 193.402 56.8397 193.218 57.2132C193.035 57.5872 192.779 57.8775 192.449 58.0853C192.122 58.2931 191.74 58.3973 191.303 58.3973ZM191.303 57.7296C191.635 57.7296 191.908 57.6448 192.122 57.4747C192.336 57.3046 192.495 57.0813 192.597 56.8043C192.7 56.5272 192.752 56.227 192.752 55.9037C192.752 55.5805 192.7 55.2793 192.597 55.0002C192.495 54.721 192.336 54.4955 192.122 54.3233C191.908 54.1512 191.635 54.0652 191.303 54.0652C190.972 54.0652 190.699 54.1512 190.485 54.3233C190.27 54.4955 190.112 54.721 190.009 55.0002C189.906 55.2793 189.855 55.5805 189.855 55.9037C189.855 56.227 189.906 56.5272 190.009 56.8043C190.112 57.0813 190.27 57.3046 190.485 57.4747C190.699 57.6448 190.972 57.7296 191.303 57.7296ZM194.629 58.2964V53.4607H195.346V54.1911H195.397C195.485 53.9519 195.645 53.7577 195.876 53.6087C196.106 53.4597 196.367 53.3852 196.656 53.3852C196.711 53.3852 196.779 53.3862 196.861 53.3883C196.943 53.3904 197.004 53.3936 197.046 53.3978V54.1533C197.022 54.1471 196.964 54.1376 196.874 54.125C196.785 54.1103 196.692 54.103 196.593 54.103C196.358 54.103 196.148 54.1523 195.964 54.251C195.781 54.3475 195.636 54.4818 195.529 54.6539C195.424 54.8239 195.371 55.018 195.371 55.2363V58.2964H194.629ZM199.732 60.2108C199.373 60.2108 199.064 60.1643 198.806 60.0723C198.548 59.982 198.333 59.8623 198.161 59.7132C197.991 59.5664 197.855 59.409 197.755 59.2411L198.347 58.8256C198.414 58.9137 198.499 59.014 198.602 59.1276C198.705 59.2428 198.845 59.3425 199.023 59.4268C199.204 59.5126 199.44 59.5559 199.732 59.5559C200.122 59.5559 200.445 59.4611 200.698 59.2722C200.952 59.0832 201.08 58.7873 201.08 58.3845V57.4021H201.016C200.962 57.4902 200.884 57.5994 200.783 57.7296C200.685 57.8576 200.542 57.9723 200.355 58.0731C200.17 58.1717 199.921 58.2211 199.606 58.2211C199.216 58.2211 198.865 58.1285 198.555 57.944C198.246 57.7589 198.002 57.4902 197.821 57.1378C197.643 56.7854 197.553 56.3571 197.553 55.8534C197.553 55.3581 197.64 54.9268 197.815 54.5595C197.989 54.1901 198.231 53.9046 198.542 53.7031C198.853 53.4995 199.211 53.3978 199.619 53.3978C199.933 53.3978 200.183 53.4502 200.368 53.5552C200.555 53.658 200.697 53.7755 200.796 53.9077C200.897 54.0379 200.974 54.145 201.029 54.2289H201.105V53.4607H201.822V58.4349C201.822 58.8505 201.728 59.1885 201.539 59.4489C201.352 59.711 201.1 59.9033 200.783 60.0246C200.468 60.1487 200.118 60.2108 199.732 60.2108ZM199.707 57.5534C200.005 57.5534 200.257 57.4852 200.462 57.3489C200.668 57.2126 200.824 57.0159 200.932 56.7599C201.039 56.5039 201.092 56.1976 201.092 55.8408C201.092 55.4924 201.04 55.1849 200.934 54.9184C200.83 54.6518 200.675 54.443 200.469 54.2918C200.263 54.1407 200.009 54.0652 199.707 54.0652C199.392 54.0652 199.13 54.145 198.92 54.3045C198.712 54.4639 198.556 54.678 198.451 54.9467C198.348 55.2153 198.296 55.5134 198.296 55.8408C198.296 56.1766 198.349 56.4735 198.454 56.7317C198.561 56.9877 198.718 57.1893 198.926 57.3362C199.136 57.4808 199.396 57.5534 199.707 57.5534ZM207.452 56.0297L203.396 58.0947V57.2891L206.507 55.7904L206.482 55.8408V55.7149L206.507 55.7652L203.396 54.2667V53.4607L207.452 55.526V56.0297Z" fill="#A1A1AA"/>
<mask id="mask2_2_21594" style="mask-type:luminance" maskUnits="userSpaceOnUse" x="329" y="49" width="18" height="18">
<path d="M346.86 49.1539H329.129V66.8848H346.86V49.1539Z" fill="white"/>
</mask>
<g mask="url(#mask2_2_21594)">
<path d="M338.503 51.1556L340.112 54.9899C340.151 55.083 340.214 55.1636 340.296 55.2232C340.377 55.2828 340.474 55.319 340.574 55.3279L344.692 55.6839C344.802 55.6927 344.906 55.7337 344.992 55.8017C345.078 55.8698 345.141 55.9617 345.175 56.0661C345.209 56.1704 345.211 56.2824 345.181 56.3876C345.151 56.4935 345.09 56.5876 345.007 56.6586L341.882 59.3841C341.806 59.4506 341.75 59.5365 341.719 59.6329C341.688 59.7288 341.684 59.8318 341.707 59.9305L342.643 63.9847C342.667 64.0906 342.661 64.2014 342.623 64.3033C342.585 64.4053 342.518 64.494 342.43 64.5582C342.343 64.6225 342.238 64.6596 342.129 64.6646C342.02 64.6696 341.913 64.6424 341.819 64.587L338.28 62.4399C338.194 62.3873 338.096 62.3596 337.995 62.3596C337.894 62.3596 337.795 62.3873 337.709 62.4399L334.17 64.587C334.077 64.6424 333.969 64.6696 333.86 64.6646C333.752 64.6596 333.647 64.6225 333.559 64.5582C333.471 64.494 333.405 64.4053 333.366 64.3033C333.329 64.2014 333.322 64.0906 333.347 63.9847L334.283 59.9305C334.306 59.8318 334.301 59.7288 334.271 59.6329C334.24 59.5365 334.183 59.4506 334.107 59.3841L330.983 56.6586C330.899 56.5876 330.839 56.4935 330.809 56.3876C330.779 56.2824 330.781 56.1704 330.814 56.0661C330.848 55.9617 330.912 55.8698 330.998 55.8017C331.084 55.7337 331.188 55.6927 331.297 55.6839L335.415 55.3279C335.516 55.319 335.612 55.2828 335.694 55.2232C335.775 55.1636 335.838 55.083 335.878 54.9899L337.486 51.1556C337.529 51.0565 337.6 50.9721 337.691 50.9128C337.781 50.8535 337.887 50.8219 337.995 50.8219C338.103 50.8219 338.209 50.8535 338.299 50.9128C338.389 50.9721 338.46 51.0565 338.503 51.1556Z" stroke="#A1A1AA" stroke-width="2" stroke-linecap="round" stroke-linejoin="round"/>
</g>
<mask id="mask3_2_21594" style="mask-type:luminance" maskUnits="userSpaceOnUse" x="360" y="49" width="18" height="18">
<path d="M377.889 49.1539H360.158V66.8848H377.889V49.1539Z" fill="white"/>
</mask>
<g mask="url(#mask3_2_21594)">
<path d="M373.457 64.6684V54.6948H363.483" stroke="#A1A1AA" stroke-width="2" stroke-linecap="round" stroke-linejoin="round"/>
<path d="M366.807 58.0193L363.483 54.6948L366.807 51.3702" stroke="#A1A1AA" stroke-width="2" stroke-linecap="round" stroke-linejoin="round"/>
<path d="M373.457 64.6684V54.6948H363.483" stroke="#A1A1AA" stroke-width="2" stroke-linecap="round" stroke-linejoin="round"/>
</g>
<mask id="mask4_2_21594" style="mask-type:luminance" maskUnits="userSpaceOnUse" x="391" y="49" width="18" height="18">
<path d="M408.918 49.1539H391.188V66.8848H408.918V49.1539Z" fill="white"/>
</mask>
<g mask="url(#mask4_2_21594)">
<path d="M401.992 58.0194C401.992 58.4028 401.879 58.7779 401.666 59.0965C401.453 59.4157 401.15 59.6645 400.795 59.8113C400.441 59.9576 400.051 59.9964 399.675 59.9216C399.298 59.8468 398.953 59.6617 398.682 59.3908C398.411 59.1193 398.226 58.7741 398.151 58.3978C398.076 58.0216 398.115 57.6315 398.261 57.2775C398.408 56.9228 398.657 56.6198 398.976 56.407C399.295 56.1938 399.67 56.0801 400.053 56.0801C400.567 56.0801 401.06 56.2844 401.424 56.648C401.788 57.0121 401.992 57.5052 401.992 58.0194ZM400.053 54.4178C400.437 54.4178 400.812 54.3041 401.13 54.091C401.449 53.8779 401.698 53.575 401.845 53.2206C401.991 52.8663 402.03 52.4763 401.955 52.1002C401.88 51.724 401.695 51.3784 401.424 51.1072C401.153 50.836 400.808 50.6513 400.432 50.5765C400.055 50.5016 399.665 50.54 399.311 50.6868C398.957 50.8336 398.654 51.0821 398.441 51.4011C398.227 51.72 398.114 52.095 398.114 52.4785C398.114 52.9929 398.318 53.4861 398.682 53.8498C399.046 54.2135 399.539 54.4178 400.053 54.4178ZM400.053 61.621C399.67 61.621 399.295 61.7346 398.976 61.9479C398.657 62.1607 398.408 62.4637 398.261 62.8184C398.115 63.1724 398.076 63.5625 398.151 63.9387C398.226 64.315 398.411 64.6602 398.682 64.9317C398.953 65.2026 399.298 65.3877 399.675 65.4625C400.051 65.5373 400.441 65.4985 400.795 65.3522C401.15 65.2054 401.453 64.9566 401.666 64.6374C401.879 64.3188 401.992 63.9437 401.992 63.5603C401.992 63.0461 401.788 62.553 401.424 62.1889C401.06 61.8254 400.567 61.621 400.053 61.621Z" fill="#A1A1AA"/>
</g>
<path d="M67.4057 71.4183V72.1265H64.5859V71.4183H67.4057ZM65.4077 70.1151H66.2438V75.3003C66.2438 75.5363 66.2781 75.7131 66.3463 75.8311C66.4172 75.9469 66.507 76.025 66.6156 76.0649C66.7264 76.1026 66.8433 76.1214 66.9663 76.1214C67.0583 76.1214 67.1342 76.117 67.1929 76.1076C67.2522 76.096 67.2993 76.0865 67.3348 76.0793L67.5049 76.8301C67.4478 76.8512 67.3691 76.8728 67.2672 76.8938C67.1658 76.9177 67.0372 76.9293 66.8815 76.9293C66.6449 76.9293 66.4139 76.8783 66.1873 76.7769C65.9629 76.6755 65.7761 76.5209 65.6276 76.3132C65.4813 76.1054 65.4077 75.8433 65.4077 75.5269V70.1151ZM70.8145 76.972C70.3235 76.972 69.8925 76.8551 69.5218 76.6212C69.1533 76.3874 68.8652 76.0605 68.6574 75.6399C68.4518 75.2199 68.3493 74.7285 68.3493 74.1666C68.3493 73.5998 68.4518 73.1055 68.6574 72.6828C68.8652 72.26 69.1533 71.932 69.5218 71.6981C69.8925 71.4643 70.3235 71.3474 70.8145 71.3474C71.3054 71.3474 71.7354 71.4643 72.1038 71.6981C72.4745 71.932 72.7626 72.26 72.9677 72.6828C73.1754 73.1055 73.2796 73.5998 73.2796 74.1666C73.2796 74.7285 73.1754 75.2199 72.9677 75.6399C72.7626 76.0605 72.4745 76.3874 72.1038 76.6212C71.7354 76.8551 71.3054 76.972 70.8145 76.972ZM70.8145 76.2206C71.1874 76.2206 71.4943 76.1253 71.7354 75.9342C71.9764 75.743 72.1542 75.4914 72.2701 75.1795C72.3859 74.8681 72.4435 74.5301 72.4435 74.1666C72.4435 73.8031 72.3859 73.464 72.2701 73.1504C72.1542 72.8362 71.9764 72.5825 71.7354 72.3885C71.4943 72.1952 71.1874 72.0982 70.8145 72.0982C70.4416 72.0982 70.1346 72.1952 69.8936 72.3885C69.6525 72.5825 69.4747 72.8362 69.3589 73.1504C69.2431 73.464 69.1854 73.8031 69.1854 74.1666C69.1854 74.5301 69.2431 74.8681 69.3589 75.1795C69.4747 75.4914 69.6525 75.743 69.8936 75.9342C70.1346 76.1253 70.4416 76.2206 70.8145 76.2206ZM77.3605 76.8584V71.4183H78.1678V72.2683H78.2387C78.3523 71.978 78.5351 71.7524 78.7878 71.5918C79.0405 71.4289 79.3441 71.3474 79.6982 71.3474C80.0567 71.3474 80.3559 71.4289 80.5941 71.5918C80.8352 71.7524 81.0225 71.978 81.1571 72.2683H81.2142C81.3533 71.9874 81.5621 71.7641 81.8408 71.599C82.1196 71.4311 82.4537 71.3474 82.8432 71.3474C83.3297 71.3474 83.7275 71.4998 84.0367 71.8045C84.3459 72.1065 84.5005 72.5775 84.5005 73.2175V76.8584H83.6649V73.2175C83.6649 72.8163 83.5552 72.5293 83.3352 72.357C83.1158 72.1846 82.8571 72.0982 82.5601 72.0982C82.1772 72.0982 81.8807 72.214 81.6707 72.4456C81.4607 72.6744 81.3555 72.9648 81.3555 73.3166V76.8584H80.5055V73.1327C80.5055 72.8229 80.4052 72.5742 80.2046 72.3852C80.004 72.1941 79.7453 72.0982 79.4289 72.0982C79.2117 72.0982 79.0083 72.1558 78.82 72.2716C78.6332 72.3874 78.482 72.5481 78.3662 72.7537C78.2531 72.9565 78.1966 73.1914 78.1966 73.4585V76.8584H77.3605ZM88.3098 76.972C87.7857 76.972 87.3335 76.8562 86.9534 76.6246C86.5755 76.3907 86.2841 76.0649 86.0785 75.6471C85.8757 75.2266 85.7738 74.7379 85.7738 74.181C85.7738 73.6236 85.8757 73.1327 86.0785 72.7077C86.2841 72.2799 86.5694 71.9469 86.9357 71.7087C87.3042 71.4676 87.7336 71.3474 88.2251 71.3474C88.5082 71.3474 88.788 71.3945 89.0645 71.4893C89.3405 71.5834 89.592 71.7369 89.8186 71.9497C90.0453 72.1597 90.2259 72.4384 90.3605 72.7853C90.4952 73.1327 90.5622 73.5599 90.5622 74.0674V74.4215H86.3689V73.699H89.7122C89.7122 73.392 89.6507 73.1183 89.5283 72.8772C89.408 72.6368 89.2352 72.4467 89.0113 72.3071C88.7891 72.168 88.5271 72.0982 88.2251 72.0982C87.8921 72.0982 87.6039 72.1808 87.3607 72.3464C87.1197 72.5093 86.9346 72.7216 86.8044 72.9836C86.6747 73.2457 86.6099 73.5266 86.6099 73.8264V74.3085C86.6099 74.719 86.6808 75.0676 86.8221 75.3529C86.9662 75.6366 87.1657 75.8527 87.4211 76.0012C87.676 76.1475 87.9724 76.2206 88.3098 76.2206C88.5293 76.2206 88.7276 76.1902 88.9049 76.1286C89.0845 76.0649 89.2391 75.9707 89.3687 75.8455C89.4989 75.7181 89.5992 75.5596 89.6701 75.3707L90.4774 75.5973C90.3927 75.8715 90.2497 76.112 90.0491 76.3198C89.848 76.5254 89.6003 76.6861 89.305 76.8019C89.0102 76.9149 88.6783 76.972 88.3098 76.972Z" fill="#A1A1AA"/>
<mask id="mask5_2_21594" style="mask-type:luminance" maskUnits="userSpaceOnUse" x="95" y="68" width="10" height="10">
<path d="M104.723 68.5471H95.8574V77.4126H104.723V68.5471Z" fill="white"/>
</mask>
<g mask="url(#mask5_2_21594)">
<path d="M103.317 71.7658C103.296 71.7148 103.26 71.6716 103.215 71.6411C103.169 71.6107 103.116 71.5946 103.061 71.5946H97.5199C97.4651 71.5946 97.4113 71.6107 97.3659 71.6411C97.3205 71.6716 97.285 71.7148 97.2639 71.7658C97.2429 71.8162 97.2373 71.8722 97.2479 71.926C97.259 71.9797 97.285 72.029 97.3238 72.0678L100.094 74.8382C100.12 74.8637 100.151 74.8842 100.185 74.8981C100.218 74.9119 100.254 74.9191 100.29 74.9191C100.327 74.9191 100.363 74.9119 100.396 74.8981C100.43 74.8842 100.46 74.8637 100.487 74.8382L103.257 72.0678C103.296 72.029 103.322 71.9797 103.332 71.926C103.343 71.8722 103.338 71.8162 103.317 71.7658Z" fill="#4A4A4A"/>
</g>
<path d="M397.837 95.1434H22.1638C16.0435 95.1434 11.082 100.105 11.082 106.225V118.415C11.082 124.535 16.0435 129.497 22.1638 129.497H397.837C403.957 129.497 408.918 124.535 408.918 118.415V106.225C408.918 100.105 403.957 95.1434 397.837 95.1434Z" fill="white"/>
<path d="M29.9004 116.199L27.917 108.945H28.8095L30.3254 114.853H30.3963L31.9405 108.945H32.9322L34.4764 114.853H34.5472L36.0631 108.945H36.9556L34.9722 116.199H34.0655L32.4646 110.419H32.4079L30.8071 116.199H29.9004ZM39.7111 116.312C39.1869 116.312 38.7348 116.197 38.3546 115.965C37.9768 115.731 37.6852 115.405 37.4797 114.988C37.2767 114.567 37.1752 114.078 37.1752 113.521C37.1752 112.964 37.2767 112.473 37.4797 112.048C37.6852 111.62 37.9709 111.287 38.3369 111.049C38.7052 110.808 39.135 110.688 39.6261 110.688C39.9094 110.688 40.1892 110.735 40.4655 110.83C40.7417 110.924 40.9932 111.077 41.2199 111.29C41.4465 111.5 41.6272 111.779 41.7618 112.126C41.8963 112.473 41.9637 112.9 41.9637 113.408V113.762H37.7702V113.039H41.1136C41.1136 112.732 41.0522 112.459 40.9295 112.218C40.8091 111.977 40.6367 111.787 40.4124 111.647C40.1904 111.508 39.9283 111.439 39.6261 111.439C39.2932 111.439 39.0051 111.521 38.7619 111.687C38.5211 111.85 38.3357 112.062 38.2058 112.324C38.076 112.586 38.0111 112.867 38.0111 113.167V113.649C38.0111 114.059 38.0819 114.408 38.2236 114.693C38.3676 114.977 38.5671 115.193 38.8221 115.342C39.0771 115.488 39.3735 115.561 39.7111 115.561C39.9307 115.561 40.129 115.531 40.3061 115.469C40.4856 115.405 40.6402 115.311 40.7701 115.186C40.8999 115.058 41.0003 114.9 41.0711 114.711L41.8787 114.938C41.7937 115.212 41.6508 115.452 41.4501 115.66C41.2494 115.866 41.0015 116.026 40.7063 116.142C40.4112 116.255 40.0794 116.312 39.7111 116.312ZM44.071 108.945V116.199H43.2351V108.945H44.071ZM47.812 116.312C47.302 116.312 46.8628 116.192 46.4945 115.951C46.1261 115.71 45.8428 115.378 45.6444 114.955C45.4461 114.533 45.3469 114.05 45.3469 113.507C45.3469 112.955 45.4484 112.467 45.6515 112.044C45.8569 111.619 46.1427 111.287 46.5086 111.049C46.8769 110.808 47.3067 110.688 47.7978 110.688C48.1803 110.688 48.5251 110.759 48.832 110.901C49.139 111.042 49.3905 111.24 49.5864 111.495C49.7824 111.751 49.904 112.048 49.9512 112.388H49.1154C49.0516 112.14 48.91 111.92 48.6904 111.729C48.4731 111.536 48.1803 111.439 47.812 111.439C47.4862 111.439 47.2004 111.523 46.9549 111.693C46.7117 111.861 46.5216 112.099 46.3846 112.405C46.25 112.71 46.1828 113.068 46.1828 113.479C46.1828 113.899 46.2489 114.265 46.3811 114.576C46.5157 114.888 46.7046 115.13 46.9478 115.303C47.1934 115.475 47.4814 115.561 47.812 115.561C48.0292 115.561 48.2264 115.523 48.4035 115.448C48.5805 115.373 48.7305 115.263 48.8533 115.122C48.9761 114.98 49.0634 114.81 49.1154 114.612H49.9512C49.904 114.933 49.7871 115.222 49.6006 115.48C49.4164 115.735 49.172 115.938 48.8675 116.089C48.5652 116.238 48.2134 116.312 47.812 116.312ZM53.3832 116.312C52.8921 116.312 52.4612 116.195 52.0904 115.962C51.7221 115.728 51.4341 115.401 51.2263 114.98C51.0208 114.56 50.9181 114.069 50.9181 113.507C50.9181 112.94 51.0208 112.446 51.2263 112.023C51.4341 111.6 51.7221 111.272 52.0904 111.039C52.4612 110.805 52.8921 110.688 53.3832 110.688C53.8743 110.688 54.3041 110.805 54.6724 111.039C55.0431 111.272 55.3312 111.6 55.5364 112.023C55.7442 112.446 55.8484 112.94 55.8484 113.507C55.8484 114.069 55.7442 114.56 55.5364 114.98C55.3312 115.401 55.0431 115.728 54.6724 115.962C54.3041 116.195 53.8743 116.312 53.3832 116.312ZM53.3832 115.561C53.7562 115.561 54.0632 115.466 54.3041 115.275C54.5449 115.083 54.7232 114.832 54.8389 114.52C54.9546 114.208 55.0124 113.87 55.0124 113.507C55.0124 113.144 54.9546 112.804 54.8389 112.491C54.7232 112.177 54.5449 111.923 54.3041 111.729C54.0632 111.536 53.7562 111.439 53.3832 111.439C53.0101 111.439 52.7032 111.536 52.4623 111.729C52.2215 111.923 52.0432 112.177 51.9275 112.491C51.8118 112.804 51.754 113.144 51.754 113.507C51.754 113.87 51.8118 114.208 51.9275 114.52C52.0432 114.832 52.2215 115.083 52.4623 115.275C52.7032 115.466 53.0101 115.561 53.3832 115.561ZM57.1244 116.199V110.759H57.9318V111.609H58.0027C58.1157 111.318 58.2991 111.093 58.5518 110.932C58.8039 110.769 59.1075 110.688 59.4616 110.688C59.8207 110.688 60.1193 110.769 60.3576 110.932C60.5986 111.093 60.7864 111.318 60.9211 111.609H60.9776C61.1167 111.328 61.3261 111.104 61.6043 110.939C61.883 110.771 62.2171 110.688 62.6066 110.688C63.0931 110.688 63.4909 110.84 63.8007 111.145C64.1099 111.447 64.2645 111.918 64.2645 112.558V116.199H63.4283V112.558C63.4283 112.157 63.3186 111.87 63.0992 111.697C62.8798 111.525 62.621 111.439 62.3235 111.439C61.9411 111.439 61.6447 111.554 61.4347 111.786C61.2242 112.015 61.1194 112.305 61.1194 112.657V116.199H60.2695V112.473C60.2695 112.163 60.1692 111.915 59.968 111.726C59.7675 111.534 59.5093 111.439 59.1923 111.439C58.9751 111.439 58.7723 111.496 58.5834 111.612C58.3966 111.728 58.2459 111.889 58.1301 112.094C58.0165 112.297 57.96 112.532 57.96 112.799V116.199H57.1244ZM68.0738 116.312C67.5496 116.312 67.097 116.197 66.7168 115.965C66.3395 115.731 66.0475 115.405 65.8425 114.988C65.6391 114.567 65.5377 114.078 65.5377 113.521C65.5377 112.964 65.6391 112.473 65.8425 112.048C66.0475 111.62 66.3334 111.287 66.6991 111.049C67.0676 110.808 67.4976 110.688 67.9885 110.688C68.2716 110.688 68.5514 110.735 68.8279 110.83C69.1044 110.924 69.3554 111.077 69.5826 111.29C69.8092 111.5 69.9899 111.779 70.1245 112.126C70.2586 112.473 70.3262 112.9 70.3262 113.408V113.762H66.1328V113.039H69.4762C69.4762 112.732 69.4147 112.459 69.2917 112.218C69.1715 111.977 68.9991 111.787 68.7747 111.647C68.5531 111.508 68.291 111.439 67.9885 111.439C67.6555 111.439 67.3673 111.521 67.1241 111.687C66.8836 111.85 66.698 112.062 66.5684 112.324C66.4387 112.586 66.3733 112.867 66.3733 113.167V113.649C66.3733 114.059 66.4442 114.408 66.5861 114.693C66.7301 114.977 66.9296 115.193 67.1845 115.342C67.4394 115.488 67.7358 115.561 68.0738 115.561C68.2932 115.561 68.4916 115.531 68.6684 115.469C68.8479 115.405 69.0025 115.311 69.1327 115.186C69.2623 115.058 69.3626 114.9 69.4335 114.711L70.2409 114.938C70.1561 115.212 70.0131 115.452 69.8125 115.66C69.612 115.866 69.3637 116.026 69.069 116.142C68.7736 116.255 68.4417 116.312 68.0738 116.312ZM76.7686 110.759V111.467H73.9494V110.759H76.7686ZM74.7711 109.456H75.6067V114.641C75.6067 114.877 75.641 115.053 75.7097 115.171C75.7806 115.287 75.8704 115.365 75.979 115.405C76.0898 115.443 76.2067 115.462 76.3292 115.462C76.4217 115.462 76.4971 115.457 76.5558 115.448C76.6151 115.436 76.6622 115.427 76.6977 115.42L76.8678 116.171C76.8113 116.192 76.732 116.213 76.6306 116.234C76.5287 116.258 76.4001 116.27 76.2444 116.27C76.0084 116.27 75.7768 116.219 75.5502 116.117C75.3257 116.016 75.1396 115.861 74.9905 115.654C74.8442 115.446 74.7711 115.184 74.7711 114.867V109.456ZM80.1774 116.312C79.6864 116.312 79.2553 116.195 78.8847 115.962C78.5162 115.728 78.2286 115.401 78.0208 114.98C77.8153 114.56 77.7122 114.069 77.7122 113.507C77.7122 112.94 77.8153 112.446 78.0208 112.023C78.2286 111.6 78.5162 111.272 78.8847 111.039C79.2553 110.805 79.6864 110.688 80.1774 110.688C80.6688 110.688 81.0982 110.805 81.4667 111.039C81.8374 111.272 82.1255 111.6 82.3311 112.023C82.5389 112.446 82.6425 112.94 82.6425 113.507C82.6425 114.069 82.5389 114.56 82.3311 114.98C82.1255 115.401 81.8374 115.728 81.4667 115.962C81.0982 116.195 80.6688 116.312 80.1774 116.312ZM80.1774 115.561C80.5508 115.561 80.8578 115.466 81.0983 115.275C81.3393 115.083 81.5177 114.832 81.6329 114.52C81.7487 114.208 81.8069 113.87 81.8069 113.507C81.8069 113.144 81.7487 112.804 81.6329 112.491C81.5177 112.177 81.3393 111.923 81.0983 111.729C80.8578 111.536 80.5508 111.439 80.1774 111.439C79.8045 111.439 79.4975 111.536 79.2565 111.729C79.016 111.923 78.8376 112.177 78.7218 112.491C78.606 112.804 78.5483 113.144 78.5483 113.507C78.5483 113.87 78.606 114.208 78.7218 114.52C78.8376 114.832 79.016 115.083 79.2565 115.275C79.4975 115.466 79.8045 115.561 80.1774 115.561ZM89.6135 108.945H90.4923V114.13C90.4923 114.593 90.407 114.986 90.2369 115.31C90.0673 115.633 89.8274 115.879 89.5182 116.046C89.209 116.214 88.8439 116.298 88.4239 116.298C88.0271 116.298 87.6742 116.226 87.3644 116.082C87.0553 115.936 86.812 115.728 86.6353 115.459C86.458 115.189 86.3693 114.87 86.3693 114.499H87.2337C87.2337 114.704 87.2847 114.883 87.3861 115.037C87.4897 115.188 87.6315 115.306 87.811 115.391C87.9906 115.476 88.1945 115.519 88.4239 115.519C88.6765 115.519 88.891 115.466 89.0683 115.359C89.2456 115.253 89.3797 115.097 89.4722 114.892C89.5664 114.684 89.6135 114.43 89.6135 114.13V108.945ZM96.2194 110.759C96.1767 110.4 96.0044 110.121 95.7018 109.923C95.3999 109.724 95.0292 109.625 94.5898 109.625C94.269 109.625 93.988 109.677 93.747 109.781C93.5082 109.885 93.322 110.028 93.1874 110.21C93.0549 110.391 92.989 110.598 92.989 110.83C92.989 111.023 93.035 111.19 93.127 111.329C93.2217 111.466 93.342 111.58 93.4883 111.672C93.6345 111.762 93.788 111.836 93.9487 111.896C94.1094 111.952 94.2568 111.998 94.3914 112.034L95.1284 112.232C95.3173 112.281 95.5273 112.35 95.7589 112.438C95.9922 112.525 96.2155 112.644 96.4282 112.795C96.6427 112.944 96.82 113.135 96.9591 113.369C97.0987 113.603 97.1685 113.889 97.1685 114.23C97.1685 114.621 97.0655 114.976 96.8599 115.292C96.6571 115.609 96.3595 115.86 95.9678 116.046C95.5783 116.233 95.1045 116.326 94.5471 116.326C94.0279 116.326 93.578 116.243 93.1979 116.075C92.82 115.907 92.5225 115.674 92.3053 115.374C92.0908 115.073 91.9689 114.725 91.9407 114.329H92.8472C92.871 114.602 92.963 114.829 93.1237 115.009C93.2866 115.186 93.4921 115.318 93.7398 115.405C93.9902 115.491 94.2595 115.533 94.5471 115.533C94.8829 115.533 95.1838 115.478 95.4503 115.37C95.7174 115.259 95.9285 115.106 96.0847 114.909C96.2404 114.711 96.318 114.48 96.318 114.215C96.318 113.975 96.2509 113.779 96.1163 113.627C95.9817 113.477 95.8049 113.354 95.5849 113.259C95.3655 113.165 95.1283 113.082 94.8735 113.011L93.9808 112.756C93.414 112.593 92.9652 112.361 92.635 112.059C92.3042 111.756 92.139 111.36 92.139 110.872C92.139 110.466 92.2487 110.112 92.4682 109.81C92.6904 109.505 92.9879 109.269 93.3608 109.101C93.7365 108.931 94.1554 108.846 94.618 108.846C95.0857 108.846 95.5013 108.93 95.8647 109.098C96.2288 109.263 96.5163 109.489 96.7291 109.777C96.9441 110.066 97.0571 110.392 97.0693 110.759H96.2194ZM99.0375 108.945L100.908 111.963H100.964L102.834 108.945H103.869L101.587 112.572L103.869 116.199H102.834L100.964 113.238H100.908L99.0375 116.199H98.0035L100.341 112.572L98.0035 108.945H99.0375ZM107.816 108.945H108.865L111.33 114.966H111.415L113.88 108.945H114.929V116.199H114.107V110.688H114.036L111.769 116.199H110.976L108.709 110.688H108.638V116.199H107.816V108.945ZM118.177 116.326C117.832 116.326 117.52 116.261 117.239 116.132C116.958 115.999 116.735 115.809 116.569 115.561C116.404 115.311 116.321 115.009 116.321 114.655C116.321 114.343 116.383 114.09 116.506 113.897C116.628 113.7 116.792 113.547 116.998 113.436C117.203 113.325 117.43 113.243 117.678 113.188C117.928 113.131 118.18 113.087 118.432 113.054C118.762 113.011 119.031 112.98 119.236 112.958C119.444 112.935 119.595 112.895 119.689 112.841C119.786 112.787 119.835 112.692 119.835 112.558V112.53C119.835 112.18 119.739 111.908 119.548 111.715C119.359 111.521 119.072 111.425 118.687 111.425C118.288 111.425 117.975 111.512 117.749 111.687C117.522 111.861 117.362 112.048 117.27 112.246L116.477 111.963C116.619 111.633 116.808 111.375 117.044 111.191C117.283 111.004 117.542 110.875 117.823 110.801C118.106 110.725 118.385 110.688 118.659 110.688C118.833 110.688 119.034 110.709 119.261 110.752C119.49 110.791 119.711 110.876 119.923 111.003C120.138 111.131 120.316 111.323 120.458 111.58C120.6 111.838 120.671 112.182 120.671 112.614V116.199H119.835V115.462H119.792C119.735 115.58 119.641 115.707 119.509 115.841C119.376 115.975 119.201 116.09 118.981 116.184C118.761 116.279 118.494 116.326 118.177 116.326ZM118.305 115.575C118.635 115.575 118.914 115.511 119.14 115.38C119.37 115.251 119.542 115.083 119.657 114.878C119.776 114.672 119.835 114.456 119.835 114.23V113.464C119.799 113.507 119.722 113.546 119.601 113.581C119.483 113.615 119.346 113.644 119.19 113.67C119.037 113.694 118.887 113.715 118.74 113.734C118.596 113.75 118.479 113.765 118.39 113.776C118.172 113.805 117.97 113.851 117.781 113.914C117.594 113.976 117.443 114.069 117.327 114.194C117.214 114.317 117.157 114.484 117.157 114.697C117.157 114.988 117.265 115.207 117.479 115.356C117.696 115.502 117.972 115.575 118.305 115.575ZM122.196 116.199V110.759H123.032V116.199H122.196ZM122.621 109.852C122.458 109.852 122.318 109.796 122.2 109.685C122.084 109.575 122.026 109.441 122.026 109.285C122.026 109.129 122.084 108.996 122.2 108.885C122.318 108.774 122.458 108.719 122.621 108.719C122.784 108.719 122.923 108.774 123.039 108.885C123.157 108.996 123.216 109.129 123.216 109.285C123.216 109.441 123.157 109.575 123.039 109.685C122.923 109.796 122.784 109.852 122.621 109.852ZM125.399 108.945V116.199H124.563V108.945H125.399ZM128.035 108.945L127.964 114.159H127.142L127.072 108.945H128.035ZM127.553 116.255C127.379 116.255 127.228 116.193 127.103 116.067C126.978 115.943 126.915 115.793 126.915 115.618C126.915 115.443 126.978 115.293 127.103 115.168C127.228 115.043 127.379 114.98 127.553 114.98C127.728 114.98 127.878 115.043 128.003 115.168C128.128 115.293 128.191 115.443 128.191 115.618C128.191 115.734 128.161 115.84 128.102 115.937C128.045 116.034 127.969 116.111 127.872 116.171C127.778 116.227 127.671 116.255 127.553 116.255Z" fill="black"/>
<g clip-path="url(#clip1_2_21594)">
<path d="M36.6667 55C36.5747 55 36.4961 55.0333 36.4307 55.0973L25.0974 66.4307C24.9507 66.5773 24.854 66.5887 24.6974 66.5693C24.542 66.5493 24.3427 66.4613 24.144 66.366L17.9274 63.366C17.7447 63.2767 17.6687 63.146 17.6674 62.9993C17.666 62.8527 17.7174 62.7127 17.898 62.646L33.4487 56.9793C33.8867 56.8193 33.5701 56.224 33.2194 56.3527L17.6687 62.0193C17.2367 62.176 16.996 62.6067 17 63C17.004 63.3933 17.2307 63.7707 17.638 63.9667L23.8554 66.9667C24.0574 67.0647 24.3114 67.192 24.6154 67.2307C24.918 67.2693 25.2874 67.184 25.5687 66.9027L35.8081 56.664L29.1654 74.264C29.112 74.3973 28.8434 74.3827 28.776 74.2347L25.6334 67.8533C25.4334 67.4467 24.8654 67.804 25.0334 68.1467L28.1774 74.5287C28.3427 74.8647 28.6907 75.006 29 75C29.31 74.9933 29.6574 74.844 29.788 74.4987L36.98 55.4507C37.06 55.2373 36.8954 55.002 36.6667 55Z" fill="black"/>
</g>
</g>
<defs>
<clipPath id="clip0_2_21594">
<rect width="420" height="139.631" fill="white" transform="translate(0 0.94812)"/>
</clipPath>
<clipPath id="clip1_2_21594">
<rect width="20" height="20" fill="white" transform="translate(17 55)"/>
</clipPath>
</defs>
</svg>
