<svg width="95" height="24" viewBox="0 0 95 24" fill="none" xmlns="http://www.w3.org/2000/svg">
<g clip-path="url(#clip0_5_1676)">
<path d="M19.6667 1.99646C19.5747 1.99646 19.4961 2.02979 19.4307 2.09379L8.09738 13.4271C7.95072 13.5738 7.85405 13.5851 7.69738 13.5658C7.54205 13.5458 7.34272 13.4578 7.14405 13.3625L0.927382 10.3625C0.744716 10.2731 0.668716 10.1425 0.667382 9.99579C0.666049 9.84913 0.717382 9.70913 0.898049 9.64246L16.4487 3.97579C16.8867 3.81579 16.5701 3.22046 16.2194 3.34913L0.668716 9.01579C0.236716 9.17246 -0.00395092 9.60313 4.90755e-05 9.99646C0.00404908 10.3898 0.230716 10.7671 0.638049 10.9631L6.85538 13.9631C7.05738 14.0611 7.31138 14.1885 7.61538 14.2271C7.91805 14.2658 8.28738 14.1805 8.56872 13.8991L18.8081 3.66046L12.1654 21.2605C12.112 21.3938 11.8434 21.3791 11.776 21.2311L8.63338 14.8498C8.43338 14.4431 7.86538 14.8005 8.03338 15.1431L11.1774 21.5251C11.3427 21.8611 11.6907 22.0025 12 21.9965C12.31 21.9898 12.6574 21.8405 12.788 21.4951L19.98 2.44713C20.06 2.23379 19.8954 1.99846 19.6667 1.99646Z" fill="white"/>
</g>
<path d="M36.032 6.76446V14.4125C36.032 15.5965 35.696 16.5085 35.024 17.1485C34.3627 17.7885 33.4667 18.1085 32.336 18.1085C31.152 18.1085 30.2027 17.7725 29.488 17.1005C28.7733 16.4285 28.416 15.4738 28.416 14.2365H31.136C31.136 14.7058 31.232 15.0631 31.424 15.3085C31.616 15.5431 31.8933 15.6605 32.256 15.6605C32.5867 15.6605 32.8427 15.5538 33.024 15.3405C33.2053 15.1271 33.296 14.8178 33.296 14.4125V6.76446H36.032ZM42.306 18.1085C41.4847 18.1085 40.7487 17.9751 40.098 17.7085C39.4473 17.4418 38.9247 17.0471 38.53 16.5245C38.146 16.0018 37.9433 15.3725 37.922 14.6365H40.834C40.8767 15.0525 41.0207 15.3725 41.266 15.5965C41.5113 15.8098 41.8313 15.9165 42.226 15.9165C42.6313 15.9165 42.9513 15.8258 43.186 15.6445C43.4207 15.4525 43.538 15.1911 43.538 14.8605C43.538 14.5831 43.442 14.3538 43.25 14.1725C43.0687 13.9911 42.8393 13.8418 42.562 13.7245C42.2953 13.6071 41.9113 13.4738 41.41 13.3245C40.6847 13.1005 40.0927 12.8765 39.634 12.6525C39.1753 12.4285 38.7807 12.0978 38.45 11.6605C38.1193 11.2231 37.954 10.6525 37.954 9.94846C37.954 8.90313 38.3327 8.08713 39.09 7.50046C39.8473 6.90313 40.834 6.60446 42.05 6.60446C43.2873 6.60446 44.2847 6.90313 45.042 7.50046C45.7993 8.08713 46.2047 8.90846 46.258 9.96446H43.298C43.2767 9.60179 43.1433 9.31913 42.898 9.11646C42.6527 8.90313 42.338 8.79646 41.954 8.79646C41.6233 8.79646 41.3567 8.88713 41.154 9.06846C40.9513 9.23913 40.85 9.48979 40.85 9.82046C40.85 10.1831 41.0207 10.4658 41.362 10.6685C41.7033 10.8711 42.2367 11.0898 42.962 11.3245C43.6873 11.5698 44.274 11.8045 44.722 12.0285C45.1807 12.2525 45.5753 12.5778 45.906 13.0045C46.2367 13.4311 46.402 13.9805 46.402 14.6525C46.402 15.2925 46.2367 15.8738 45.906 16.3965C45.586 16.9191 45.1167 17.3351 44.498 17.6445C43.8793 17.9538 43.1487 18.1085 42.306 18.1085ZM54.9658 17.9965L52.6778 14.5565L50.6618 17.9965H47.5578L51.1578 12.2845L47.4778 6.76446H50.6618L52.9178 10.1565L54.9018 6.76446H58.0058L54.4378 12.4285L58.1498 17.9965H54.9658ZM74.4659 6.92446V17.9965H73.0099V9.74046L69.3299 17.9965H68.3059L64.6099 9.72446V17.9965H63.1539V6.92446H64.7219L68.8179 16.0765L72.9139 6.92446H74.4659ZM76.3911 13.5805C76.3911 12.6845 76.5725 11.9005 76.9351 11.2285C77.2978 10.5458 77.7938 10.0178 78.4231 9.64446C79.0631 9.27113 79.7725 9.08446 80.5511 9.08446C81.3191 9.08446 81.9858 9.24979 82.5511 9.58046C83.1165 9.91113 83.5378 10.3271 83.8151 10.8285V9.22846H85.2871V17.9965H83.8151V16.3645C83.5271 16.8765 83.0951 17.3031 82.5191 17.6445C81.9538 17.9751 81.2925 18.1405 80.5351 18.1405C79.7565 18.1405 79.0525 17.9485 78.4231 17.5645C77.7938 17.1805 77.2978 16.6418 76.9351 15.9485C76.5725 15.2551 76.3911 14.4658 76.3911 13.5805ZM83.8151 13.5965C83.8151 12.9351 83.6818 12.3591 83.4151 11.8685C83.1485 11.3778 82.7858 11.0045 82.3271 10.7485C81.8791 10.4818 81.3831 10.3485 80.8391 10.3485C80.2951 10.3485 79.7991 10.4765 79.3511 10.7325C78.9031 10.9885 78.5458 11.3618 78.2791 11.8525C78.0125 12.3431 77.8791 12.9191 77.8791 13.5805C77.8791 14.2525 78.0125 14.8391 78.2791 15.3405C78.5458 15.8311 78.9031 16.2098 79.3511 16.4765C79.7991 16.7325 80.2951 16.8605 80.8391 16.8605C81.3831 16.8605 81.8791 16.7325 82.3271 16.4765C82.7858 16.2098 83.1485 15.8311 83.4151 15.3405C83.6818 14.8391 83.8151 14.2578 83.8151 13.5965ZM88.4996 7.80446C88.2223 7.80446 87.9876 7.70846 87.7956 7.51646C87.6036 7.32446 87.5076 7.08979 87.5076 6.81246C87.5076 6.53513 87.6036 6.30046 87.7956 6.10846C87.9876 5.91646 88.2223 5.82046 88.4996 5.82046C88.7663 5.82046 88.9903 5.91646 89.1716 6.10846C89.3636 6.30046 89.4596 6.53513 89.4596 6.81246C89.4596 7.08979 89.3636 7.32446 89.1716 7.51646C88.9903 7.70846 88.7663 7.80446 88.4996 7.80446ZM89.2036 9.22846V17.9965H87.7476V9.22846H89.2036ZM93.1411 6.15646V17.9965H91.6851V6.15646H93.1411Z" fill="white"/>
<defs>
<clipPath id="clip0_5_1676">
<rect width="20" height="20" fill="white" transform="translate(0 1.99646)"/>
</clipPath>
</defs>
</svg>
