<svg width="80" height="25" viewBox="0 0 80 25" fill="none" xmlns="http://www.w3.org/2000/svg">
<path d="M25.8821 20.185V8.90039H28.3325L31.9274 16.0581L35.474 8.90039H37.9244V20.185H35.8609V12.3986L32.7173 18.5729H31.0891L27.9456 12.3986V20.185H25.8821Z" fill="#71717A"/>
<path d="M42.0192 20.378C41.3321 20.378 40.7679 20.2672 40.3265 20.0475C39.8852 19.8279 39.5588 19.5337 39.3432 19.1689C39.1276 18.8042 39.0208 18.4012 39.0208 17.9599C39.0208 17.2183 39.3109 16.6158 39.8913 16.1543C40.4716 15.6929 41.3422 15.4611 42.5029 15.4611H44.5341V15.2677C44.5341 14.7196 44.3789 14.3165 44.0666 14.0586C43.7543 13.8007 43.3674 13.6717 42.9059 13.6717C42.4867 13.6717 42.122 13.7704 41.8097 13.9699C41.4973 14.1694 41.3039 14.4616 41.2293 14.8485H39.2142C39.2686 14.2682 39.4641 13.7624 39.8026 13.3332C40.1412 12.9039 40.5784 12.5735 41.1165 12.3417C41.6545 12.11 42.255 11.9951 42.922 11.9951C44.0606 11.9951 44.9593 12.2792 45.6142 12.8495C46.2691 13.4198 46.5976 14.2258 46.5976 15.2677V20.1845H44.8404L44.6469 18.8949C44.4112 19.3241 44.0807 19.6787 43.6555 19.9588C43.2303 20.2389 42.6862 20.378 42.0192 20.378ZM42.4867 18.7659C43.0772 18.7659 43.5366 18.5724 43.8651 18.1855C44.1935 17.7986 44.3991 17.3211 44.4857 16.7508H42.7286C42.1804 16.7508 41.7875 16.8495 41.5517 17.049C41.316 17.2485 41.1971 17.4923 41.1971 17.7825C41.1971 18.0949 41.316 18.3367 41.5517 18.508C41.7875 18.6792 42.0998 18.7659 42.4867 18.7659Z" fill="#71717A"/>
<path d="M48.8705 10.9479C48.4937 10.9479 48.1853 10.8351 47.9435 10.6094C47.7017 10.3837 47.5808 10.0995 47.5808 9.75495C47.5808 9.41037 47.7017 9.12825 47.9435 8.9086C48.1853 8.68896 48.4937 8.57812 48.8705 8.57812C49.2473 8.57812 49.5556 8.68896 49.7974 8.9086C50.0392 9.12825 50.1602 9.41037 50.1602 9.75495C50.1602 10.0995 50.0392 10.3837 49.7974 10.6094C49.5556 10.8351 49.2473 10.9479 48.8705 10.9479ZM47.8387 20.1852V12.1892H49.9022V20.1852H47.8387Z" fill="#71717A"/>
<path d="M51.2563 20.1852V8.57812H53.3198V20.1852H51.2563Z" fill="#71717A"/>
<path d="M58.0111 17.7986C57.6242 17.7986 57.2635 17.7563 56.931 17.6697L56.3345 18.2662C56.5179 18.3629 56.7637 18.4435 57.0761 18.508C57.3884 18.5724 57.8922 18.6369 58.5914 18.7014C59.6554 18.7981 60.4292 19.05 60.9128 19.4591C61.3965 19.8682 61.6383 20.4324 61.6383 21.1518C61.6383 21.6253 61.5093 22.0727 61.2514 22.4979C60.9934 22.9231 60.5965 23.2656 60.0584 23.5296C59.5204 23.7936 58.8332 23.9246 57.995 23.9246C56.8564 23.9246 55.9375 23.713 55.2383 23.2878C54.539 22.8626 54.1904 22.2258 54.1904 21.3775C54.1904 20.6581 54.539 20.0334 55.2383 19.5075C55.0227 19.4107 54.8373 19.308 54.6821 19.2012C54.5269 19.0944 54.3899 18.9815 54.271 18.8626V18.4918L55.6736 17.0087C55.0509 16.4606 54.7385 15.7573 54.7385 14.8969C54.7385 14.3588 54.8695 13.8712 55.1335 13.4299C55.3975 12.9886 55.7703 12.64 56.2539 12.382C56.7375 12.1241 57.3239 11.9951 58.0111 11.9951C58.4625 11.9951 58.8816 12.0596 59.2685 12.1886H62.2992V13.446L60.929 13.5427C61.1446 13.9518 61.2514 14.4032 61.2514 14.8969C61.2514 15.4349 61.1224 15.9226 60.8645 16.3639C60.6065 16.8052 60.2338 17.1538 59.7441 17.4117C59.2544 17.6697 58.6781 17.7986 58.0111 17.7986ZM56.0766 21.1679C56.0766 21.5649 56.262 21.8631 56.6327 22.0626C57.0035 22.2621 57.4569 22.3609 57.995 22.3609C58.533 22.3609 58.93 22.2561 59.2524 22.0465C59.5748 21.8369 59.736 21.5548 59.736 21.2002C59.736 20.91 59.6312 20.6682 59.4217 20.4747C59.2121 20.2813 58.795 20.1624 58.1723 20.1201C57.731 20.0878 57.3239 20.0394 56.9471 19.975C56.6348 20.1463 56.4131 20.3357 56.2781 20.5392C56.1431 20.7427 56.0766 20.9523 56.0766 21.1679ZM58.0111 16.2188C58.4302 16.2188 58.7768 16.1059 59.0509 15.8803C59.3249 15.6546 59.462 15.3321 59.462 14.913C59.462 14.4939 59.3249 14.1714 59.0509 13.9457C58.7768 13.7201 58.4302 13.6072 58.0111 13.6072C57.5698 13.6072 57.2151 13.7201 56.9471 13.9457C56.6791 14.1714 56.5441 14.4939 56.5441 14.913C56.5441 15.3321 56.6791 15.6546 56.9471 15.8803C57.2151 16.1059 57.5698 16.2188 58.0111 16.2188Z" fill="#71717A"/>
<path d="M65.991 20.3779C64.9915 20.3779 64.2197 20.0656 63.6776 19.4429C63.1356 18.8202 62.8635 17.9054 62.8635 16.7023V12.1885H64.9109V16.5089C64.9109 17.196 65.0499 17.724 65.33 18.0887C65.6101 18.4535 66.0494 18.6368 66.6519 18.6368C67.2222 18.6368 67.6917 18.4333 68.0625 18.0242C68.4333 17.6152 68.6187 17.0469 68.6187 16.3154V12.1885H70.6822V20.1844H68.8605L68.6993 18.8303C68.4514 19.3038 68.0948 19.6787 67.6273 19.9588C67.1597 20.2389 66.6137 20.3779 65.991 20.3779Z" fill="#71717A"/>
<path d="M71.9878 20.1845V12.1886H73.8095L73.9707 13.5427C74.2185 13.0692 74.5752 12.6944 75.0427 12.4143C75.5102 12.1342 76.0603 11.9951 76.6951 11.9951C77.6845 11.9951 78.4523 12.3075 79.0004 12.9301C79.5485 13.5528 79.8226 14.4677 79.8226 15.6707V20.1845H77.7591V15.8641C77.7591 15.177 77.62 14.649 77.3399 14.2843C77.0598 13.9196 76.6246 13.7362 76.0341 13.7362C75.4437 13.7362 74.9782 13.9397 74.6074 14.3488C74.2367 14.7578 74.0513 15.3261 74.0513 16.0576V20.1845H71.9878Z" fill="#71717A"/>
<path d="M27.3249 6.51048C27.0347 6.51048 26.7788 6.4601 26.5571 6.36136C26.3354 6.26262 26.1601 6.11955 26.0332 5.93214C25.9062 5.74473 25.8397 5.51904 25.8357 5.25305H26.5974C26.6055 5.43844 26.672 5.59159 26.7969 5.71854C26.9218 5.84549 27.0972 5.90796 27.3188 5.90796C27.5103 5.90796 27.6634 5.86161 27.7762 5.76892C27.8891 5.67622 27.9455 5.5533 27.9455 5.40015C27.9455 5.247 27.8951 5.11199 27.7964 5.02131C27.6977 4.93063 27.5647 4.85808 27.3994 4.80166C27.2342 4.74524 27.0569 4.68479 26.8694 4.6203C26.5652 4.51552 26.3314 4.3805 26.1722 4.21325C26.013 4.04801 25.9324 3.82836 25.9324 3.55229C25.9284 3.31854 25.9848 3.11904 26.0997 2.95179C26.2145 2.78453 26.3717 2.65557 26.5712 2.56287C26.7707 2.47018 27.0004 2.42383 27.2604 2.42383C27.5203 2.42383 27.7561 2.47018 27.9576 2.56489C28.1591 2.6596 28.3163 2.79058 28.4312 2.95985C28.546 3.12912 28.6065 3.33063 28.6145 3.56438H27.8407C27.8367 3.42534 27.7843 3.30242 27.6795 3.19562C27.5747 3.08882 27.4317 3.03441 27.2483 3.03441C27.0911 3.03038 26.9581 3.06866 26.8513 3.14927C26.7445 3.22987 26.6901 3.34675 26.6901 3.50191C26.6901 3.6329 26.7324 3.73768 26.815 3.81426C26.8977 3.89083 27.0105 3.95733 27.1536 4.00972C27.2966 4.06212 27.4599 4.11854 27.6453 4.17899C27.8407 4.24751 28.0201 4.32609 28.1813 4.41677C28.3425 4.50746 28.4735 4.62635 28.5702 4.77547C28.6689 4.92458 28.7173 5.114 28.7173 5.34776C28.7173 5.55531 28.6649 5.74675 28.5601 5.92408C28.4553 6.10141 28.2982 6.24247 28.0926 6.34927C27.8851 6.45607 27.6312 6.51048 27.3309 6.51048H27.3249Z" fill="#71717A"/>
<path d="M30.4727 6.44181V2.49219H31.1941V6.44181H30.4727Z" fill="#71717A"/>
<path d="M33.0901 6.44181V2.49219H33.8115L35.6674 5.27304V2.49219H36.3888V6.44181H35.6674L33.8115 3.66498V6.44181H33.0901Z" fill="#71717A"/>
<path d="M40.0767 6.51042C39.6777 6.51042 39.3351 6.42578 39.0489 6.2545C38.7628 6.08321 38.5432 5.84543 38.388 5.53712C38.2328 5.23082 38.1562 4.87616 38.1562 4.47314C38.1562 4.07011 38.2328 3.71545 38.388 3.40714C38.5411 3.09883 38.7628 2.85903 39.0489 2.68573C39.3351 2.51243 39.6777 2.42578 40.0767 2.42578C40.5502 2.42578 40.9391 2.54266 41.2414 2.77843C41.5437 3.01419 41.7331 3.34266 41.8076 3.76785H41.0117C40.9633 3.55424 40.8585 3.38498 40.6993 3.26205C40.5401 3.13913 40.3285 3.07868 40.0646 3.07868C39.6998 3.07868 39.4137 3.20362 39.2061 3.45147C38.9986 3.69933 38.8958 4.03989 38.8958 4.47314C38.8958 4.90639 38.9986 5.24492 39.2061 5.49077C39.4137 5.73661 39.6998 5.85953 40.0646 5.85953C40.3285 5.85953 40.5401 5.8011 40.6993 5.68825C40.8585 5.57339 40.9633 5.41419 41.0117 5.21067H41.8076C41.7331 5.61772 41.5437 5.93409 41.2414 6.16382C40.9391 6.39354 40.5502 6.5084 40.0767 6.5084V6.51042Z" fill="#71717A"/>
<path d="M43.5747 6.44181V2.49219H44.2961V4.13451H46.0674V2.49219H46.7888V6.44181H46.0674V4.7209H44.2961V6.44181H43.5747Z" fill="#71717A"/>
<path d="M10.4785 12.7148C11.2498 12.7148 11.875 12.0896 11.875 11.3183C11.875 10.5471 11.2498 9.92188 10.4785 9.92188C9.70725 9.92188 9.08203 10.5471 9.08203 11.3183C9.08203 12.0896 9.70725 12.7148 10.4785 12.7148Z" fill="#71717A"/>
<path d="M17.1143 12.3663C16.536 12.3663 16.0665 11.8968 16.0665 11.3185C16.0665 8.23132 13.5637 5.73056 10.4786 5.73056C7.39342 5.73056 4.89065 8.23333 4.89065 11.3185C4.89065 14.4036 7.39342 16.9064 10.4786 16.9064C12.6106 16.9064 14.4645 15.7134 15.4055 13.9563C16.6226 14.7462 18.269 14.6071 19.337 13.5391C19.9516 12.9245 20.2579 12.1205 20.2579 11.3165C20.2579 5.91595 15.8791 1.53711 10.4786 1.53711C5.07806 1.53711 0.699219 5.91797 0.699219 11.3185C0.699219 16.719 5.07806 21.0978 10.4786 21.0978C13.1788 21.0978 15.6252 20.0036 17.3944 18.2323L15.9133 16.7512C14.5229 18.1416 12.6025 19.0021 10.4806 19.0021C6.23675 19.0021 2.79695 15.5623 2.79695 11.3185C2.79695 7.07464 6.23473 3.63484 10.4786 3.63484C14.7224 3.63484 18.1622 7.07464 18.1622 11.3185C18.1622 11.8968 17.6927 12.3663 17.1143 12.3663ZM10.4786 14.8107C8.5501 14.8107 6.98637 13.2469 6.98637 11.3185C6.98637 9.39001 8.5501 7.82628 10.4786 7.82628C12.407 7.82628 13.9708 9.39001 13.9708 11.3185C13.9708 13.2469 12.407 14.8107 10.4786 14.8107Z" fill="#71717A"/>
</svg>
