<svg width="80" height="27" viewBox="0 0 80 27" fill="none" xmlns="http://www.w3.org/2000/svg">
<path d="M27.2756 22.0432V9.49414H30.0006L33.9983 17.4538L37.9423 9.49414H40.6672V22.0432H38.3726V13.3843L34.8768 20.2504H33.0661L29.5703 13.3843V22.0432H27.2756Z" fill="#71717A"/>
<path d="M45.2207 22.2577C44.4565 22.2577 43.8291 22.1344 43.3383 21.8902C42.8476 21.6459 42.4846 21.3187 42.2448 20.9131C42.005 20.5075 41.8862 20.0594 41.8862 19.5686C41.8862 18.7439 42.2089 18.0739 42.8543 17.5608C43.4997 17.0476 44.4677 16.7899 45.7585 16.7899H48.0173V16.5748C48.0173 15.9652 47.8448 15.5171 47.4974 15.2302C47.1501 14.9434 46.7198 14.8 46.2067 14.8C45.7406 14.8 45.335 14.9098 44.9876 15.1316C44.6403 15.3535 44.4252 15.6784 44.3423 16.1087H42.1014C42.1619 15.4633 42.3792 14.9008 42.7557 14.4235C43.1322 13.9462 43.6184 13.5787 44.2168 13.321C44.8151 13.0633 45.4829 12.9355 46.2246 12.9355C47.4907 12.9355 48.4902 13.2515 49.2184 13.8857C49.9467 14.5199 50.312 15.4162 50.312 16.5748V22.0425H48.3579L48.1428 20.6084C47.8806 21.0857 47.5131 21.4801 47.0403 21.7916C46.5675 22.1031 45.9624 22.2577 45.2207 22.2577ZM45.7406 20.465C46.3972 20.465 46.9081 20.2498 47.2733 19.8196C47.6386 19.3893 47.8672 18.8582 47.9635 18.2241H46.0095C45.4 18.2241 44.963 18.3339 44.7008 18.5557C44.4386 18.7776 44.3064 19.0487 44.3064 19.3714C44.3064 19.7187 44.4386 19.9876 44.7008 20.1781C44.963 20.3686 45.3103 20.465 45.7406 20.465Z" fill="#71717A"/>
<path d="M52.8397 11.7701C52.4206 11.7701 52.0778 11.6446 51.8089 11.3936C51.54 11.1426 51.4055 10.8266 51.4055 10.4434C51.4055 10.0603 51.54 9.74653 51.8089 9.50227C52.0778 9.25801 52.4206 9.13477 52.8397 9.13477C53.2587 9.13477 53.6016 9.25801 53.8705 9.50227C54.1394 9.74653 54.2739 10.0603 54.2739 10.4434C54.2739 10.8266 54.1394 11.1426 53.8705 11.3936C53.6016 11.6446 53.2587 11.7701 52.8397 11.7701ZM51.6924 22.0423V13.1505H53.987V22.0423H51.6924Z" fill="#71717A"/>
<path d="M55.4932 22.0423V9.13477H57.7878V22.0423H55.4932Z" fill="#71717A"/>
<path d="M57.5547 25.9863V24.0322H58.2538C58.6482 24.0322 58.9284 23.9538 59.0964 23.7992C59.2645 23.6446 59.3474 23.3801 59.3474 23.0104V13.1505H61.6421V23.0104C61.6421 24.086 61.3709 24.8502 60.8264 25.3051C60.2819 25.76 59.5446 25.9863 58.6124 25.9863H57.5547ZM60.5127 11.7701C60.0936 11.7701 59.7508 11.6446 59.4819 11.3936C59.213 11.1426 59.0785 10.8266 59.0785 10.4434C59.0785 10.0603 59.213 9.74653 59.4819 9.50227C59.7508 9.25801 60.0936 9.13477 60.5127 9.13477C60.9317 9.13477 61.2746 9.25801 61.5435 9.50227C61.8124 9.74653 61.9468 10.0603 61.9468 10.4434C61.9468 10.8266 61.8124 11.1426 61.5435 11.3936C61.2746 11.6446 60.9317 11.7701 60.5127 11.7701Z" fill="#71717A"/>
<path d="M67.4684 22.2577C66.572 22.2577 65.7765 22.0672 65.0841 21.684C64.3916 21.3008 63.8471 20.763 63.4527 20.0706C63.0583 19.3781 62.8611 18.5759 62.8611 17.6683C62.8611 16.7608 63.056 15.9294 63.4437 15.2123C63.8314 14.4952 64.3692 13.9372 65.0572 13.5361C65.7451 13.135 66.5541 12.9355 67.4863 12.9355C68.358 12.9355 69.1289 13.126 69.7989 13.5092C70.4689 13.8924 70.9911 14.4145 71.3675 15.0778C71.744 15.7411 71.9322 16.4784 71.9322 17.2919C71.9322 17.4241 71.93 17.5608 71.9233 17.7042C71.9165 17.8476 71.9076 17.9977 71.8964 18.1524H65.1378C65.1849 18.8448 65.4269 19.3893 65.8639 19.7837C66.3009 20.1781 66.8297 20.3753 67.4504 20.3753C67.9165 20.3753 68.3087 20.27 68.6247 20.0616C68.9406 19.8532 69.1782 19.5798 69.3328 19.2459H71.6633C71.4953 19.8084 71.2174 20.3193 70.8297 20.7787C70.442 21.2381 69.9625 21.6011 69.3955 21.8633C68.8286 22.1255 68.1855 22.2577 67.4684 22.2577ZM67.4863 14.8C66.9238 14.8 66.4286 14.9591 65.9983 15.275C65.5681 15.591 65.2925 16.0728 65.1737 16.7182H69.6017C69.5659 16.1333 69.3507 15.6672 68.9563 15.3199C68.5619 14.9725 68.0712 14.8 67.4863 14.8Z" fill="#71717A"/>
<path d="M76.7726 22.0428C75.8404 22.0428 75.0941 21.8165 74.5317 21.3616C73.9692 20.9067 73.6891 20.0999 73.6891 18.9414V15.0691H72.1653V13.1509H73.6891L73.958 10.7666H75.9838V13.1509H78.386V15.0691H75.9838V18.9593C75.9838 19.3896 76.0756 19.6854 76.2616 19.8467C76.4476 20.0081 76.7658 20.0887 77.2207 20.0887H78.3322V22.0428H76.7726Z" fill="#71717A"/>
<path d="M28.8801 6.83653C28.5575 6.83653 28.2729 6.78051 28.0264 6.6707C27.7799 6.5609 27.5849 6.4018 27.4437 6.19339C27.3026 5.98499 27.2286 5.73401 27.2241 5.43821H28.0712C28.0801 5.64437 28.1541 5.81468 28.293 5.95586C28.432 6.09703 28.6269 6.1665 28.8734 6.1665C29.0863 6.1665 29.2566 6.11496 29.3821 6.01188C29.5076 5.9088 29.5703 5.7721 29.5703 5.6018C29.5703 5.43149 29.5143 5.28135 29.4045 5.18051C29.2947 5.07967 29.1468 4.99899 28.9631 4.93625C28.7793 4.8735 28.5821 4.80628 28.3737 4.73457C28.0353 4.61804 27.7754 4.4679 27.5984 4.28191C27.4213 4.09815 27.3317 3.8539 27.3317 3.54689C27.3272 3.28695 27.3899 3.0651 27.5177 2.87911C27.6454 2.69311 27.8202 2.5497 28.042 2.44661C28.2639 2.34353 28.5194 2.29199 28.8084 2.29199C29.0975 2.29199 29.3597 2.34353 29.5838 2.44885C29.8079 2.55418 29.9827 2.69984 30.1104 2.88807C30.2381 3.07631 30.3054 3.3004 30.3143 3.56034H29.4538C29.4493 3.40572 29.3911 3.26902 29.2745 3.15026C29.158 3.03149 28.9989 2.97098 28.795 2.97098C28.6202 2.9665 28.4723 3.00908 28.3535 3.09871C28.2348 3.18835 28.1743 3.31832 28.1743 3.49087C28.1743 3.63653 28.2213 3.75306 28.3132 3.83821C28.4051 3.92336 28.5306 3.99731 28.6897 4.05558C28.8488 4.11384 29.0303 4.17659 29.2364 4.24381C29.4538 4.32 29.6533 4.4074 29.8325 4.50824C30.0118 4.60908 30.1575 4.74129 30.265 4.90712C30.3748 5.07294 30.4286 5.28359 30.4286 5.54353C30.4286 5.77435 30.3703 5.98723 30.2538 6.18443C30.1373 6.38163 29.9625 6.53849 29.7339 6.65726C29.5031 6.77603 29.2208 6.83653 28.8869 6.83653H28.8801Z" fill="#71717A"/>
<path d="M32.3804 6.76032V2.36816H33.1826V6.76032H32.3804Z" fill="#71717A"/>
<path d="M35.2913 6.76032V2.36816H36.0935L38.1574 5.4606V2.36816H38.9596V6.76032H38.1574L36.0935 3.67237V6.76032H35.2913Z" fill="#71717A"/>
<path d="M43.0604 6.83624C42.6167 6.83624 42.2357 6.74212 41.9175 6.55165C41.5993 6.36117 41.3551 6.09675 41.1825 5.75389C41.01 5.41327 40.9248 5.01888 40.9248 4.5707C40.9248 4.12252 41.01 3.72812 41.1825 3.38526C41.3528 3.0424 41.5993 2.77574 41.9175 2.58302C42.2357 2.3903 42.6167 2.29395 43.0604 2.29395C43.587 2.29395 44.0195 2.42392 44.3556 2.6861C44.6918 2.94829 44.9024 3.31355 44.9853 3.78638H44.1002C44.0464 3.54885 43.9298 3.36061 43.7528 3.22392C43.5758 3.08722 43.3405 3.02 43.0469 3.02C42.6413 3.02 42.3231 3.15893 42.0923 3.43456C41.8615 3.71019 41.7472 4.0889 41.7472 4.5707C41.7472 5.05249 41.8615 5.42896 42.0923 5.70235C42.3231 5.97574 42.6413 6.11243 43.0469 6.11243C43.3405 6.11243 43.5758 6.04745 43.7528 5.92196C43.9298 5.79422 44.0464 5.61719 44.1002 5.39086H44.9853C44.9024 5.84353 44.6918 6.19535 44.3556 6.45081C44.0195 6.70627 43.587 6.834 43.0604 6.834V6.83624Z" fill="#71717A"/>
<path d="M46.9507 6.76032V2.36816H47.7529V4.19449H49.7227V2.36816H50.5249V6.76032H49.7227V4.8466H47.7529V6.76032H46.9507Z" fill="#71717A"/>
<path d="M19.4459 2.88326C18.8969 2.332 18.0745 2.16393 17.3507 2.45301L1.22073 8.90455C0.501399 9.19362 0.0330519 9.85245 0.00167935 10.6278C-0.0296932 11.4031 0.380391 12.0978 1.07283 12.4452L5.84818 14.8317L7.58487 13.095L2.88795 10.7466L17.3753 4.95161L11.5804 19.439L9.23193 14.7421L7.49524 16.4788L9.88179 21.2541C10.2157 21.9219 10.8745 22.3275 11.614 22.3275C11.6409 22.3275 11.67 22.3275 11.6992 22.3275C12.4745 22.2961 13.1333 21.8278 13.4224 21.1085L19.8739 4.97626C20.163 4.25469 19.995 3.43228 19.4437 2.88102L19.4459 2.88326Z" fill="#71717A"/>
</svg>
