<svg width="90" height="15" viewBox="0 0 90 15" fill="none" xmlns="http://www.w3.org/2000/svg">
<path d="M7.092 14.1533C5.904 14.1533 4.812 13.8773 3.816 13.3253C2.832 12.7733 2.046 12.0053 1.458 11.0213C0.882 10.0253 0.594 8.90934 0.594 7.67334C0.594 6.43734 0.882 5.32734 1.458 4.34334C2.046 3.35934 2.832 2.59134 3.816 2.03934C4.812 1.48734 5.904 1.21134 7.092 1.21134C8.28 1.21134 9.366 1.48734 10.35 2.03934C11.346 2.59134 12.126 3.35934 12.69 4.34334C13.266 5.32734 13.554 6.43734 13.554 7.67334C13.554 8.90934 13.266 10.0253 12.69 11.0213C12.114 12.0053 11.334 12.7733 10.35 13.3253C9.366 13.8773 8.28 14.1533 7.092 14.1533ZM7.092 11.3453C8.1 11.3453 8.904 11.0093 9.504 10.3373C10.116 9.66534 10.422 8.77734 10.422 7.67334C10.422 6.55734 10.116 5.66934 9.504 5.00934C8.904 4.33734 8.1 4.00134 7.092 4.00134C6.072 4.00134 5.256 4.33134 4.644 4.99134C4.044 5.65134 3.744 6.54534 3.744 7.67334C3.744 8.78934 4.044 9.68334 4.644 10.3553C5.256 11.0153 6.072 11.3453 7.092 11.3453ZM25.1844 3.98334V14.0273H22.1064V12.6593C21.7944 13.1033 21.3684 13.4633 20.8284 13.7393C20.3004 14.0033 19.7124 14.1353 19.0644 14.1353C18.2964 14.1353 17.6184 13.9673 17.0304 13.6313C16.4424 13.2833 15.9864 12.7853 15.6624 12.1373C15.3384 11.4893 15.1764 10.7273 15.1764 9.85134V3.98334H18.2364V9.43734C18.2364 10.1093 18.4104 10.6313 18.7584 11.0033C19.1064 11.3753 19.5744 11.5613 20.1624 11.5613C20.7624 11.5613 21.2364 11.3753 21.5844 11.0033C21.9324 10.6313 22.1064 10.1093 22.1064 9.43734V3.98334H25.1844ZM30.4733 5.65734C30.8333 5.10534 31.2833 4.67334 31.8233 4.36134C32.3633 4.03734 32.9633 3.87534 33.6233 3.87534V7.13334H32.7773C32.0093 7.13334 31.4333 7.30134 31.0493 7.63734C30.6653 7.96134 30.4733 8.53734 30.4733 9.36534V14.0273H27.3953V3.98334H30.4733V5.65734ZM38.567 7.74534C38.567 6.52134 38.843 5.42334 39.395 4.45134C39.947 3.46734 40.697 2.69934 41.645 2.14734C42.605 1.59534 43.667 1.31934 44.831 1.31934C46.199 1.31934 47.393 1.64934 48.413 2.30934C49.433 2.96934 50.177 3.90534 50.645 5.11734H48.683C48.335 4.36134 47.831 3.77934 47.171 3.37134C46.523 2.96334 45.743 2.75934 44.831 2.75934C43.955 2.75934 43.169 2.96334 42.473 3.37134C41.777 3.77934 41.231 4.36134 40.835 5.11734C40.439 5.86134 40.241 6.73734 40.241 7.74534C40.241 8.74134 40.439 9.61734 40.835 10.3733C41.231 11.1173 41.777 11.6933 42.473 12.1013C43.169 12.5093 43.955 12.7133 44.831 12.7133C45.743 12.7133 46.523 12.5153 47.171 12.1193C47.831 11.7113 48.335 11.1293 48.683 10.3733H50.645C50.177 11.5733 49.433 12.5033 48.413 13.1633C47.393 13.8113 46.199 14.1353 44.831 14.1353C43.667 14.1353 42.605 13.8653 41.645 13.3253C40.697 12.7733 39.947 12.0113 39.395 11.0393C38.843 10.0673 38.567 8.96934 38.567 7.74534ZM54.7213 0.707344V14.0273H53.0833V0.707344H54.7213ZM61.815 14.1893C60.891 14.1893 60.051 13.9793 59.295 13.5593C58.551 13.1393 57.963 12.5453 57.531 11.7773C57.111 10.9973 56.901 10.0973 56.901 9.07734C56.901 8.06934 57.117 7.18134 57.549 6.41334C57.993 5.63334 58.593 5.03934 59.349 4.63134C60.105 4.21134 60.951 4.00134 61.887 4.00134C62.823 4.00134 63.669 4.21134 64.425 4.63134C65.181 5.03934 65.775 5.62734 66.207 6.39534C66.651 7.16334 66.873 8.05734 66.873 9.07734C66.873 10.0973 66.645 10.9973 66.189 11.7773C65.745 12.5453 65.139 13.1393 64.371 13.5593C63.603 13.9793 62.751 14.1893 61.815 14.1893ZM61.815 12.7493C62.403 12.7493 62.955 12.6113 63.471 12.3353C63.987 12.0593 64.401 11.6453 64.713 11.0933C65.037 10.5413 65.199 9.86934 65.199 9.07734C65.199 8.28534 65.043 7.61334 64.731 7.06134C64.419 6.50934 64.011 6.10134 63.507 5.83734C63.003 5.56134 62.457 5.42334 61.869 5.42334C61.269 5.42334 60.717 5.56134 60.213 5.83734C59.721 6.10134 59.325 6.50934 59.025 7.06134C58.725 7.61334 58.575 8.28534 58.575 9.07734C58.575 9.88134 58.719 10.5593 59.007 11.1113C59.307 11.6633 59.703 12.0773 60.195 12.3533C60.687 12.6173 61.227 12.7493 61.815 12.7493ZM77.7746 4.16334V14.0273H76.1366V12.5693C75.8246 13.0733 75.3866 13.4693 74.8226 13.7573C74.2706 14.0333 73.6586 14.1713 72.9866 14.1713C72.2186 14.1713 71.5286 14.0153 70.9166 13.7033C70.3046 13.3793 69.8186 12.8993 69.4586 12.2633C69.1106 11.6273 68.9366 10.8533 68.9366 9.94134V4.16334H70.5566V9.72534C70.5566 10.6973 70.8026 11.4473 71.2946 11.9753C71.7866 12.4913 72.4586 12.7493 73.3106 12.7493C74.1866 12.7493 74.8766 12.4793 75.3806 11.9393C75.8846 11.3993 76.1366 10.6133 76.1366 9.58134V4.16334H77.7746ZM79.9283 9.05934C79.9283 8.05134 80.1323 7.16934 80.5403 6.41334C80.9483 5.64534 81.5063 5.05134 82.2143 4.63134C82.9343 4.21134 83.7383 4.00134 84.6263 4.00134C85.3943 4.00134 86.1083 4.18134 86.7683 4.54134C87.4283 4.88934 87.9323 5.35134 88.2803 5.92734V0.707344H89.9363V14.0273H88.2803V12.1733C87.9563 12.7613 87.4763 13.2473 86.8403 13.6313C86.2043 14.0033 85.4603 14.1893 84.6083 14.1893C83.7323 14.1893 82.9343 13.9733 82.2143 13.5413C81.5063 13.1093 80.9483 12.5033 80.5403 11.7233C80.1323 10.9433 79.9283 10.0553 79.9283 9.05934ZM88.2803 9.07734C88.2803 8.33334 88.1303 7.68534 87.8303 7.13334C87.5303 6.58134 87.1223 6.16134 86.6063 5.87334C86.1023 5.57334 85.5443 5.42334 84.9323 5.42334C84.3203 5.42334 83.7623 5.56734 83.2583 5.85534C82.7543 6.14334 82.3523 6.56334 82.0523 7.11534C81.7523 7.66734 81.6023 8.31534 81.6023 9.05934C81.6023 9.81534 81.7523 10.4753 82.0523 11.0393C82.3523 11.5913 82.7543 12.0173 83.2583 12.3173C83.7623 12.6053 84.3203 12.7493 84.9323 12.7493C85.5443 12.7493 86.1023 12.6053 86.6063 12.3173C87.1223 12.0173 87.5303 11.5913 87.8303 11.0393C88.1303 10.4753 88.2803 9.82134 88.2803 9.07734Z" fill="white"/>
</svg>
