<svg width="80" height="21" viewBox="0 0 80 21" fill="none" xmlns="http://www.w3.org/2000/svg">
<g clip-path="url(#clip0_4523_1902)">
<path d="M1.00928 19.1429V1.91211H8.64005C9.70672 1.91211 10.6749 2.15826 11.5447 2.65057C12.4144 3.12647 13.0955 3.77467 13.5878 4.59519C14.0965 5.4157 14.3509 6.35109 14.3509 7.40134C14.3509 8.43519 14.0965 9.37878 13.5878 10.2321C13.0955 11.069 12.4144 11.7336 11.5447 12.226C10.6749 12.7183 9.70672 12.9644 8.64005 12.9644H4.57851V19.1429H1.00928ZM10.7816 19.1429L6.40005 11.3644L10.1908 10.749L15.0647 19.1675L10.7816 19.1429ZM4.57851 9.96134H8.46774C8.91082 9.96134 9.29646 9.86288 9.62467 9.66596C9.96928 9.45263 10.2318 9.16544 10.4124 8.80442C10.5929 8.42699 10.6831 8.00853 10.6831 7.54903C10.6831 7.05672 10.5765 6.63007 10.3631 6.26903C10.1498 5.90801 9.83799 5.62903 9.42774 5.43211C9.01749 5.21878 8.54159 5.11211 8.00005 5.11211H4.57851V9.96134Z" fill="#71717A"/>
<path d="M22.2196 19.3892C20.8082 19.3892 19.5692 19.1021 18.5025 18.5277C17.4523 17.9533 16.6319 17.1656 16.041 16.1646C15.4667 15.1636 15.1794 14.0148 15.1794 12.7185C15.1794 11.7011 15.3436 10.7739 15.6718 9.93694C16 9.10002 16.4594 8.37797 17.0502 7.77079C17.641 7.14721 18.3385 6.6713 19.1426 6.3431C19.9631 5.99848 20.8492 5.82617 21.8011 5.82617C22.6873 5.82617 23.5077 5.99028 24.2626 6.31848C25.0175 6.64669 25.6657 7.10617 26.2073 7.69694C26.7652 8.2713 27.1919 8.96054 27.4873 9.76463C27.7826 10.5523 27.9138 11.4057 27.8811 12.3246L27.8565 13.4077H17.395L16.8287 11.2662H24.9765L24.5826 11.7092V11.1677C24.5498 10.7246 24.4021 10.3308 24.1394 9.98617C23.8934 9.62515 23.5734 9.34617 23.1796 9.14925C22.7857 8.93592 22.3425 8.82925 21.8502 8.82925C21.1282 8.82925 20.5129 8.96874 20.0041 9.24771C19.5118 9.52669 19.1344 9.93694 18.8718 10.4785C18.6092 11.02 18.4779 11.6764 18.4779 12.4477C18.4779 13.2354 18.6421 13.9164 18.9703 14.4908C19.315 15.0652 19.7908 15.5164 20.398 15.8446C21.0215 16.1564 21.7518 16.3123 22.5887 16.3123C23.1631 16.3123 23.6882 16.2221 24.1642 16.0415C24.64 15.861 25.1487 15.5492 25.6903 15.1062L27.3642 17.4446C26.8882 17.8713 26.3631 18.2323 25.7888 18.5277C25.2144 18.8067 24.6236 19.02 24.0164 19.1677C23.4092 19.3154 22.8103 19.3892 22.2196 19.3892Z" fill="#71717A"/>
<path d="M33.6149 19.389C32.4005 19.389 31.3174 19.1921 30.3657 18.7983C29.4303 18.3881 28.6755 17.83 28.1011 17.1244L30.2918 15.2537C30.7842 15.7952 31.3421 16.189 31.9657 16.4352C32.5893 16.665 33.2128 16.7798 33.8365 16.7798C34.0826 16.7798 34.3042 16.7552 34.5011 16.706C34.7144 16.6404 34.8949 16.5583 35.0426 16.4598C35.1903 16.345 35.297 16.2137 35.3626 16.066C35.4447 15.9019 35.4857 15.7296 35.4857 15.549C35.4857 15.1881 35.338 14.909 35.0426 14.7121C34.8786 14.6137 34.6242 14.5069 34.2795 14.3921C33.9349 14.2608 33.4918 14.1213 32.9503 13.9737C32.1134 13.7604 31.3995 13.5142 30.8088 13.2352C30.2344 12.9398 29.7749 12.6116 29.4303 12.2506C29.1349 11.906 28.9051 11.5367 28.7411 11.1429C28.5934 10.7326 28.5195 10.2814 28.5195 9.78905C28.5195 9.19828 28.6509 8.66495 28.9134 8.18905C29.1759 7.69674 29.537 7.27828 29.9965 6.93366C30.4724 6.58905 31.0139 6.32649 31.6211 6.14597C32.2282 5.94905 32.8682 5.85059 33.5411 5.85059C34.2139 5.85059 34.8703 5.93264 35.5103 6.09674C36.1503 6.26085 36.7411 6.4988 37.2826 6.81059C37.8405 7.10597 38.3247 7.4588 38.7349 7.86905L36.8642 9.93674C36.5688 9.65776 36.2324 9.40341 35.8549 9.17366C35.4939 8.94393 35.1165 8.76341 34.7226 8.63213C34.3288 8.50085 33.9759 8.4352 33.6642 8.4352C33.3851 8.4352 33.1309 8.45982 32.9011 8.50905C32.6878 8.55828 32.5072 8.64033 32.3595 8.7552C32.2118 8.85366 32.097 8.97674 32.0149 9.12443C31.9493 9.27213 31.9165 9.43622 31.9165 9.61674C31.9165 9.79726 31.9574 9.96956 32.0395 10.1337C32.138 10.2978 32.2693 10.4373 32.4334 10.5521C32.6139 10.6506 32.8765 10.7655 33.2211 10.8967C33.5821 11.028 34.0662 11.1757 34.6734 11.3398C35.4611 11.5532 36.1257 11.7911 36.6672 12.0537C37.2251 12.3162 37.6682 12.6198 37.9965 12.9644C38.2755 13.2598 38.4805 13.5962 38.6118 13.9737C38.7432 14.3511 38.8088 14.7696 38.8088 15.229C38.8088 16.0331 38.579 16.7469 38.1195 17.3706C37.6765 17.9942 37.0611 18.4865 36.2734 18.8475C35.4857 19.2085 34.5995 19.389 33.6149 19.389Z" fill="#71717A"/>
<path d="M46.2485 19.3892C44.8372 19.3892 43.5983 19.1021 42.5316 18.5277C41.4814 17.9533 40.6608 17.1656 40.07 16.1646C39.4956 15.1636 39.2085 14.0148 39.2085 12.7185C39.2085 11.7011 39.3726 10.7739 39.7008 9.93694C40.0291 9.10002 40.4885 8.37797 41.0793 7.77079C41.67 7.14721 42.3675 6.6713 43.1716 6.3431C43.9921 5.99848 44.8783 5.82617 45.83 5.82617C46.7162 5.82617 47.5367 5.99028 48.2916 6.31848C49.0464 6.64669 49.6946 7.10617 50.2362 7.69694C50.7941 8.2713 51.2208 8.96054 51.5162 9.76463C51.8116 10.5523 51.9429 11.4057 51.91 12.3246L51.8854 13.4077H41.4239L40.8577 11.2662H49.0054L48.6116 11.7092V11.1677C48.5787 10.7246 48.431 10.3308 48.1685 9.98617C47.9223 9.62515 47.6023 9.34617 47.2085 9.14925C46.8146 8.93592 46.3716 8.82925 45.8793 8.82925C45.1572 8.82925 44.5418 8.96874 44.0331 9.24771C43.5408 9.52669 43.1633 9.93694 42.9008 10.4785C42.6383 11.02 42.507 11.6764 42.507 12.4477C42.507 13.2354 42.671 13.9164 42.9993 14.4908C43.3439 15.0652 43.8198 15.5164 44.427 15.8446C45.0506 16.1564 45.7808 16.3123 46.6177 16.3123C47.1921 16.3123 47.7172 16.2221 48.1931 16.0415C48.669 15.861 49.1777 15.5492 49.7193 15.1062L51.3931 17.4446C50.9172 17.8713 50.3921 18.2323 49.8177 18.5277C49.2433 18.8067 48.6526 19.02 48.0454 19.1677C47.4383 19.3154 46.8393 19.3892 46.2485 19.3892Z" fill="#71717A"/>
<path d="M53.2622 19.1429V6.12136H56.6099L56.7084 8.77982L56.0191 9.0752C56.1997 8.48443 56.5197 7.9511 56.9791 7.4752C57.4551 6.98289 58.0212 6.58905 58.6776 6.29366C59.3341 5.99828 60.0233 5.85059 60.7453 5.85059C61.7299 5.85059 62.5505 6.04751 63.2068 6.44136C63.8797 6.8352 64.3802 7.43418 64.7084 8.23828C65.053 9.02597 65.2253 10.0024 65.2253 11.1675V19.1429H61.7299V11.4383C61.7299 10.8475 61.6479 10.3552 61.4837 9.96136C61.3197 9.56751 61.0653 9.28033 60.7207 9.09982C60.3925 8.9193 59.9822 8.83726 59.4899 8.85366C59.0961 8.85366 58.7268 8.91931 58.3822 9.05059C58.0541 9.16545 57.7668 9.33777 57.5207 9.56751C57.291 9.79726 57.1022 10.0598 56.9545 10.3552C56.8233 10.6506 56.7576 10.9706 56.7576 11.3152V19.1429H55.0345C54.6572 19.1429 54.3207 19.1429 54.0253 19.1429C53.7299 19.1429 53.4756 19.1429 53.2622 19.1429Z" fill="#71717A"/>
<path d="M72.4393 19.3893C71.2907 19.3893 70.2651 19.1021 69.3624 18.5277C68.4763 17.937 67.7707 17.141 67.2455 16.14C66.7368 15.1226 66.4824 13.9493 66.4824 12.62C66.4824 11.3236 66.7368 10.1667 67.2455 9.14927C67.7707 8.11543 68.4763 7.31133 69.3624 6.73696C70.2651 6.14619 71.2907 5.85081 72.4393 5.85081C73.0466 5.85081 73.6291 5.94927 74.187 6.14619C74.7614 6.32671 75.2701 6.58107 75.7132 6.90927C76.1728 7.23748 76.542 7.60671 76.8209 8.01696C77.0999 8.41081 77.2558 8.82107 77.2886 9.24773L76.4024 9.42004V0.927734H79.9224V19.1431H76.5993L76.4517 16.14L77.1409 16.2139C77.1081 16.6241 76.9605 17.0179 76.6978 17.3954C76.4353 17.7729 76.0824 18.1175 75.6393 18.4293C75.2128 18.7246 74.7205 18.9626 74.1624 19.1431C73.6209 19.3072 73.0466 19.3893 72.4393 19.3893ZM73.227 16.4846C73.8835 16.4846 74.4578 16.3206 74.9501 15.9923C75.4424 15.6641 75.8281 15.2129 76.107 14.6385C76.3861 14.0641 76.5255 13.3914 76.5255 12.62C76.5255 11.8652 76.3861 11.2006 76.107 10.6262C75.8281 10.0518 75.4424 9.60056 74.9501 9.27235C74.4578 8.94415 73.8835 8.78004 73.227 8.78004C72.5707 8.78004 71.9963 8.94415 71.504 9.27235C71.0281 9.60056 70.6507 10.0518 70.3717 10.6262C70.1091 11.2006 69.9778 11.8652 69.9778 12.62C69.9778 13.3914 70.1091 14.0641 70.3717 14.6385C70.6507 15.2129 71.0281 15.6641 71.504 15.9923C71.9963 16.3206 72.5707 16.4846 73.227 16.4846Z" fill="#71717A"/>
</g>
<defs>
<clipPath id="clip0_4523_1902">
<rect width="80" height="19.6923" fill="white" transform="translate(0 0.681641)"/>
</clipPath>
</defs>
</svg>
